G04 #@! TF.FileFunction,Copper,L2,Bot,Signal*
%FSLAX46Y46*%
G04 Gerber Fmt 4.6, Leading zero omitted, Abs format (unit mm)*
G04 Created by KiCad (PCBNEW 4.0.2-stable) date 4/28/2016 9:51:21 AM*
%MOMM*%
G01*
G04 APERTURE LIST*
%ADD10C,0.100000*%
%ADD11R,1.727200X1.727200*%
%ADD12O,1.727200X1.727200*%
%ADD13C,0.600000*%
%ADD14C,0.250000*%
%ADD15C,0.254000*%
G04 APERTURE END LIST*
D10*
D11*
X111760000Y-104140000D03*
D12*
X109220000Y-104140000D03*
X111760000Y-101600000D03*
X109220000Y-101600000D03*
X111760000Y-99060000D03*
X109220000Y-99060000D03*
D11*
X138430000Y-88900000D03*
D12*
X140970000Y-88900000D03*
X138430000Y-91440000D03*
X140970000Y-91440000D03*
X138430000Y-93980000D03*
X140970000Y-93980000D03*
D11*
X138430000Y-99060000D03*
D12*
X140970000Y-99060000D03*
X138430000Y-101600000D03*
X140970000Y-101600000D03*
X138430000Y-104140000D03*
X140970000Y-104140000D03*
D11*
X138430000Y-109220000D03*
D12*
X140970000Y-109220000D03*
X138430000Y-111760000D03*
X140970000Y-111760000D03*
X138430000Y-114300000D03*
X140970000Y-114300000D03*
D11*
X109220000Y-93980000D03*
D12*
X109220000Y-91440000D03*
X111760000Y-93980000D03*
X111760000Y-91440000D03*
X114300000Y-93980000D03*
X114300000Y-91440000D03*
D11*
X114300000Y-109220000D03*
D12*
X114300000Y-111760000D03*
X111760000Y-109220000D03*
X111760000Y-111760000D03*
X109220000Y-109220000D03*
X109220000Y-111760000D03*
D13*
X123190000Y-89535000D03*
X128270000Y-93345000D03*
X116840000Y-94615000D03*
X118745000Y-93345000D03*
X116840000Y-99695000D03*
X115570000Y-101600000D03*
X134620000Y-97790000D03*
X126365000Y-101600000D03*
X121285000Y-101600000D03*
X122555000Y-107950000D03*
X128270000Y-111760000D03*
X118745000Y-111760000D03*
X114935000Y-97155000D03*
X119380000Y-97155000D03*
X135890000Y-100965000D03*
X135890000Y-104140000D03*
X136525000Y-103505000D03*
X136525000Y-95885000D03*
X137795000Y-97155000D03*
X137795000Y-106680000D03*
X135255000Y-100330000D03*
X123190000Y-90805000D03*
X126365000Y-92075000D03*
X125730000Y-88265000D03*
X124460000Y-91440000D03*
X124460000Y-93345000D03*
X123825000Y-109220000D03*
X129540000Y-108585000D03*
X125730000Y-106680000D03*
X124460000Y-109855000D03*
X124460000Y-112395000D03*
D14*
X128270000Y-93345000D02*
X128270000Y-92710000D01*
X115570000Y-101600000D02*
X116205000Y-101600000D01*
X122555000Y-107950000D02*
X123190000Y-107950000D01*
X119380000Y-97155000D02*
X114935000Y-97155000D01*
X135890000Y-104140000D02*
X135890000Y-100965000D01*
X136525000Y-100965000D02*
X138430000Y-99060000D01*
X136525000Y-103505000D02*
X136525000Y-100965000D01*
X137795000Y-97155000D02*
X136525000Y-95885000D01*
X137160000Y-106680000D02*
X137795000Y-106680000D01*
X135255000Y-104775000D02*
X137160000Y-106680000D01*
X135255000Y-100330000D02*
X135255000Y-104775000D01*
X110490000Y-92710000D02*
X109220000Y-93980000D01*
X110490000Y-90805000D02*
X110490000Y-92710000D01*
X111760000Y-89535000D02*
X110490000Y-90805000D01*
X121920000Y-89535000D02*
X111760000Y-89535000D01*
X123190000Y-90805000D02*
X121920000Y-89535000D01*
X125730000Y-91440000D02*
X126365000Y-92075000D01*
X125730000Y-88265000D02*
X125730000Y-91440000D01*
X113030000Y-92710000D02*
X111760000Y-93980000D01*
X114935000Y-92710000D02*
X113030000Y-92710000D01*
X116840000Y-90805000D02*
X114935000Y-92710000D01*
X120834998Y-90805000D02*
X116840000Y-90805000D01*
X122104998Y-92075000D02*
X120834998Y-90805000D01*
X125095000Y-92075000D02*
X122104998Y-92075000D01*
X125730000Y-91440000D02*
X125095000Y-92075000D01*
X113030000Y-90170000D02*
X111760000Y-91440000D01*
X121285000Y-90170000D02*
X113030000Y-90170000D01*
X122555000Y-91440000D02*
X121285000Y-90170000D01*
X124460000Y-91440000D02*
X122555000Y-91440000D01*
X123825000Y-93345000D02*
X121920000Y-93345000D01*
X117475000Y-91440000D02*
X114935000Y-93980000D01*
X120015000Y-91440000D02*
X117475000Y-91440000D01*
X121920000Y-93345000D02*
X120015000Y-91440000D01*
X114935000Y-93980000D02*
X114300000Y-93980000D01*
X114300000Y-93980000D02*
X114301398Y-93980000D01*
X123825000Y-93345000D02*
X124460000Y-93345000D01*
X123825000Y-109220000D02*
X114300000Y-109220000D01*
X125730000Y-106680000D02*
X127635000Y-106680000D01*
X127635000Y-106680000D02*
X129540000Y-108585000D01*
X111760000Y-109220000D02*
X113030000Y-107950000D01*
X123825000Y-108585000D02*
X125730000Y-106680000D01*
X116205000Y-108585000D02*
X123825000Y-108585000D01*
X115570000Y-107950000D02*
X116205000Y-108585000D01*
X113030000Y-107950000D02*
X115570000Y-107950000D01*
X113030000Y-110490000D02*
X111760000Y-111760000D01*
X115570000Y-110490000D02*
X113030000Y-110490000D01*
X116205000Y-109855000D02*
X115570000Y-110490000D01*
X124460000Y-109855000D02*
X116205000Y-109855000D01*
X109220000Y-109220000D02*
X110490000Y-110490000D01*
X122555000Y-110490000D02*
X124460000Y-112395000D01*
X117475000Y-110490000D02*
X122555000Y-110490000D01*
X114935000Y-113030000D02*
X117475000Y-110490000D01*
X111125000Y-113030000D02*
X114935000Y-113030000D01*
X110490000Y-112395000D02*
X111125000Y-113030000D01*
X110490000Y-110490000D02*
X110490000Y-112395000D01*
D15*
G36*
X144328000Y-116388000D02*
X105862000Y-116388000D01*
X105862000Y-114497035D01*
X137205147Y-114497035D01*
X137222980Y-114586695D01*
X137424572Y-115026778D01*
X137779232Y-115356216D01*
X138232965Y-115524854D01*
X138427000Y-115446347D01*
X138427000Y-114303000D01*
X138433000Y-114303000D01*
X138433000Y-115446347D01*
X138627035Y-115524854D01*
X139080768Y-115356216D01*
X139435428Y-115026778D01*
X139637020Y-114586695D01*
X139654853Y-114497035D01*
X139745147Y-114497035D01*
X139762980Y-114586695D01*
X139964572Y-115026778D01*
X140319232Y-115356216D01*
X140772965Y-115524854D01*
X140967000Y-115446347D01*
X140967000Y-114303000D01*
X140973000Y-114303000D01*
X140973000Y-115446347D01*
X141167035Y-115524854D01*
X141620768Y-115356216D01*
X141975428Y-115026778D01*
X142177020Y-114586695D01*
X142194853Y-114497035D01*
X142116346Y-114303000D01*
X140973000Y-114303000D01*
X140967000Y-114303000D01*
X139823654Y-114303000D01*
X139745147Y-114497035D01*
X139654853Y-114497035D01*
X139576346Y-114303000D01*
X138433000Y-114303000D01*
X138427000Y-114303000D01*
X137283654Y-114303000D01*
X137205147Y-114497035D01*
X105862000Y-114497035D01*
X105862000Y-114102965D01*
X137205147Y-114102965D01*
X137283654Y-114297000D01*
X138427000Y-114297000D01*
X138427000Y-113153653D01*
X138433000Y-113153653D01*
X138433000Y-114297000D01*
X139576346Y-114297000D01*
X139654853Y-114102965D01*
X139745147Y-114102965D01*
X139823654Y-114297000D01*
X140967000Y-114297000D01*
X140967000Y-113153653D01*
X140973000Y-113153653D01*
X140973000Y-114297000D01*
X142116346Y-114297000D01*
X142194853Y-114102965D01*
X142177020Y-114013305D01*
X141975428Y-113573222D01*
X141620768Y-113243784D01*
X141167035Y-113075146D01*
X140973000Y-113153653D01*
X140967000Y-113153653D01*
X140772965Y-113075146D01*
X140319232Y-113243784D01*
X139964572Y-113573222D01*
X139762980Y-114013305D01*
X139745147Y-114102965D01*
X139654853Y-114102965D01*
X139637020Y-114013305D01*
X139435428Y-113573222D01*
X139080768Y-113243784D01*
X138627035Y-113075146D01*
X138433000Y-113153653D01*
X138427000Y-113153653D01*
X138232965Y-113075146D01*
X137779232Y-113243784D01*
X137424572Y-113573222D01*
X137222980Y-114013305D01*
X137205147Y-114102965D01*
X105862000Y-114102965D01*
X105862000Y-111957035D01*
X107995146Y-111957035D01*
X108163784Y-112410768D01*
X108493222Y-112765428D01*
X108933305Y-112967020D01*
X109022965Y-112984853D01*
X109217000Y-112906346D01*
X109217000Y-111763000D01*
X108073653Y-111763000D01*
X107995146Y-111957035D01*
X105862000Y-111957035D01*
X105862000Y-111562965D01*
X107995146Y-111562965D01*
X108073653Y-111757000D01*
X109217000Y-111757000D01*
X109217000Y-110613654D01*
X109022965Y-110535147D01*
X108933305Y-110552980D01*
X108493222Y-110754572D01*
X108163784Y-111109232D01*
X107995146Y-111562965D01*
X105862000Y-111562965D01*
X105862000Y-109195695D01*
X107979400Y-109195695D01*
X107979400Y-109244305D01*
X108073835Y-109719062D01*
X108342763Y-110121542D01*
X108745243Y-110390470D01*
X109220000Y-110484905D01*
X109682894Y-110392830D01*
X109988000Y-110697935D01*
X109988000Y-110798950D01*
X109946778Y-110754572D01*
X109506695Y-110552980D01*
X109417035Y-110535147D01*
X109223000Y-110613654D01*
X109223000Y-111757000D01*
X109243000Y-111757000D01*
X109243000Y-111763000D01*
X109223000Y-111763000D01*
X109223000Y-112906346D01*
X109417035Y-112984853D01*
X109506695Y-112967020D01*
X109946778Y-112765428D01*
X110062279Y-112641085D01*
X110135032Y-112749968D01*
X110770030Y-113384965D01*
X110770032Y-113384968D01*
X110932893Y-113493788D01*
X111125000Y-113532001D01*
X111125005Y-113532000D01*
X114934995Y-113532000D01*
X114935000Y-113532001D01*
X115127107Y-113493788D01*
X115289968Y-113384968D01*
X117682935Y-110992000D01*
X122347064Y-110992000D01*
X123782971Y-112427906D01*
X123782883Y-112529073D01*
X123885733Y-112777989D01*
X124076010Y-112968598D01*
X124324746Y-113071882D01*
X124594073Y-113072117D01*
X124842989Y-112969267D01*
X125033598Y-112778990D01*
X125136882Y-112530254D01*
X125137117Y-112260927D01*
X125034267Y-112012011D01*
X124843990Y-111821402D01*
X124696118Y-111760000D01*
X137165095Y-111760000D01*
X137259530Y-112234757D01*
X137528458Y-112637237D01*
X137930938Y-112906165D01*
X138405695Y-113000600D01*
X138454305Y-113000600D01*
X138929062Y-112906165D01*
X139331542Y-112637237D01*
X139600470Y-112234757D01*
X139694905Y-111760000D01*
X139705095Y-111760000D01*
X139799530Y-112234757D01*
X140068458Y-112637237D01*
X140470938Y-112906165D01*
X140945695Y-113000600D01*
X140994305Y-113000600D01*
X141469062Y-112906165D01*
X141871542Y-112637237D01*
X142140470Y-112234757D01*
X142234905Y-111760000D01*
X142140470Y-111285243D01*
X141871542Y-110882763D01*
X141469062Y-110613835D01*
X140994305Y-110519400D01*
X140945695Y-110519400D01*
X140470938Y-110613835D01*
X140068458Y-110882763D01*
X139799530Y-111285243D01*
X139705095Y-111760000D01*
X139694905Y-111760000D01*
X139600470Y-111285243D01*
X139331542Y-110882763D01*
X138929062Y-110613835D01*
X138454305Y-110519400D01*
X138405695Y-110519400D01*
X137930938Y-110613835D01*
X137528458Y-110882763D01*
X137259530Y-111285243D01*
X137165095Y-111760000D01*
X124696118Y-111760000D01*
X124595254Y-111718118D01*
X124492964Y-111718029D01*
X123131936Y-110357000D01*
X124004537Y-110357000D01*
X124076010Y-110428598D01*
X124324746Y-110531882D01*
X124594073Y-110532117D01*
X124842989Y-110429267D01*
X125033598Y-110238990D01*
X125136882Y-109990254D01*
X125137117Y-109720927D01*
X125034267Y-109472011D01*
X124843990Y-109281402D01*
X124595254Y-109178118D01*
X124502037Y-109178037D01*
X124502117Y-109085927D01*
X124399267Y-108837011D01*
X124341147Y-108778789D01*
X125762906Y-107357029D01*
X125864073Y-107357117D01*
X126112989Y-107254267D01*
X126185382Y-107182000D01*
X127427064Y-107182000D01*
X128862971Y-108617906D01*
X128862883Y-108719073D01*
X128965733Y-108967989D01*
X129156010Y-109158598D01*
X129404746Y-109261882D01*
X129674073Y-109262117D01*
X129922989Y-109159267D01*
X130113598Y-108968990D01*
X130216882Y-108720254D01*
X130217117Y-108450927D01*
X130178060Y-108356400D01*
X137182015Y-108356400D01*
X137182015Y-110083600D01*
X137208303Y-110223308D01*
X137290870Y-110351620D01*
X137416853Y-110437701D01*
X137566400Y-110467985D01*
X139293600Y-110467985D01*
X139433308Y-110441697D01*
X139561620Y-110359130D01*
X139647701Y-110233147D01*
X139677985Y-110083600D01*
X139677985Y-109220000D01*
X139705095Y-109220000D01*
X139799530Y-109694757D01*
X140068458Y-110097237D01*
X140470938Y-110366165D01*
X140945695Y-110460600D01*
X140994305Y-110460600D01*
X141469062Y-110366165D01*
X141871542Y-110097237D01*
X142140470Y-109694757D01*
X142234905Y-109220000D01*
X142140470Y-108745243D01*
X141871542Y-108342763D01*
X141469062Y-108073835D01*
X140994305Y-107979400D01*
X140945695Y-107979400D01*
X140470938Y-108073835D01*
X140068458Y-108342763D01*
X139799530Y-108745243D01*
X139705095Y-109220000D01*
X139677985Y-109220000D01*
X139677985Y-108356400D01*
X139651697Y-108216692D01*
X139569130Y-108088380D01*
X139443147Y-108002299D01*
X139293600Y-107972015D01*
X137566400Y-107972015D01*
X137426692Y-107998303D01*
X137298380Y-108080870D01*
X137212299Y-108206853D01*
X137182015Y-108356400D01*
X130178060Y-108356400D01*
X130114267Y-108202011D01*
X129923990Y-108011402D01*
X129675254Y-107908118D01*
X129572964Y-107908029D01*
X127989968Y-106325032D01*
X127827107Y-106216212D01*
X127635000Y-106177999D01*
X127634995Y-106178000D01*
X126185463Y-106178000D01*
X126113990Y-106106402D01*
X125865254Y-106003118D01*
X125595927Y-106002883D01*
X125347011Y-106105733D01*
X125156402Y-106296010D01*
X125053118Y-106544746D01*
X125053029Y-106647036D01*
X123617064Y-108083000D01*
X116412935Y-108083000D01*
X115924968Y-107595032D01*
X115762107Y-107486212D01*
X115570000Y-107447999D01*
X115569995Y-107448000D01*
X113030000Y-107448000D01*
X112837892Y-107486212D01*
X112772660Y-107529800D01*
X112675032Y-107595032D01*
X112675030Y-107595035D01*
X112222894Y-108047170D01*
X111760000Y-107955095D01*
X111285243Y-108049530D01*
X110882763Y-108318458D01*
X110613835Y-108720938D01*
X110519400Y-109195695D01*
X110519400Y-109244305D01*
X110613835Y-109719062D01*
X110882763Y-110121542D01*
X111285243Y-110390470D01*
X111760000Y-110484905D01*
X112234757Y-110390470D01*
X112637237Y-110121542D01*
X112906165Y-109719062D01*
X113000600Y-109244305D01*
X113000600Y-109195695D01*
X112916590Y-108773346D01*
X113052015Y-108637920D01*
X113052015Y-109988000D01*
X113030000Y-109988000D01*
X112837892Y-110026212D01*
X112806621Y-110047107D01*
X112675032Y-110135032D01*
X112675030Y-110135035D01*
X112222894Y-110587170D01*
X111760000Y-110495095D01*
X111285243Y-110589530D01*
X110992000Y-110785468D01*
X110992000Y-110490000D01*
X110979787Y-110428598D01*
X110953788Y-110297892D01*
X110903952Y-110223308D01*
X110844968Y-110135032D01*
X110844965Y-110135030D01*
X110376590Y-109666654D01*
X110460600Y-109244305D01*
X110460600Y-109195695D01*
X110366165Y-108720938D01*
X110097237Y-108318458D01*
X109694757Y-108049530D01*
X109220000Y-107955095D01*
X108745243Y-108049530D01*
X108342763Y-108318458D01*
X108073835Y-108720938D01*
X107979400Y-109195695D01*
X105862000Y-109195695D01*
X105862000Y-104140000D01*
X107955095Y-104140000D01*
X108049530Y-104614757D01*
X108318458Y-105017237D01*
X108720938Y-105286165D01*
X109195695Y-105380600D01*
X109244305Y-105380600D01*
X109719062Y-105286165D01*
X110121542Y-105017237D01*
X110390470Y-104614757D01*
X110484905Y-104140000D01*
X110390470Y-103665243D01*
X110130654Y-103276400D01*
X110512015Y-103276400D01*
X110512015Y-105003600D01*
X110538303Y-105143308D01*
X110620870Y-105271620D01*
X110746853Y-105357701D01*
X110896400Y-105387985D01*
X112623600Y-105387985D01*
X112763308Y-105361697D01*
X112891620Y-105279130D01*
X112977701Y-105153147D01*
X113007985Y-105003600D01*
X113007985Y-103276400D01*
X112981697Y-103136692D01*
X112899130Y-103008380D01*
X112773147Y-102922299D01*
X112623600Y-102892015D01*
X110896400Y-102892015D01*
X110756692Y-102918303D01*
X110628380Y-103000870D01*
X110542299Y-103126853D01*
X110512015Y-103276400D01*
X110130654Y-103276400D01*
X110121542Y-103262763D01*
X109719062Y-102993835D01*
X109244305Y-102899400D01*
X109195695Y-102899400D01*
X108720938Y-102993835D01*
X108318458Y-103262763D01*
X108049530Y-103665243D01*
X107955095Y-104140000D01*
X105862000Y-104140000D01*
X105862000Y-101600000D01*
X107955095Y-101600000D01*
X108049530Y-102074757D01*
X108318458Y-102477237D01*
X108720938Y-102746165D01*
X109195695Y-102840600D01*
X109244305Y-102840600D01*
X109719062Y-102746165D01*
X110121542Y-102477237D01*
X110390470Y-102074757D01*
X110484905Y-101600000D01*
X110495095Y-101600000D01*
X110589530Y-102074757D01*
X110858458Y-102477237D01*
X111260938Y-102746165D01*
X111735695Y-102840600D01*
X111784305Y-102840600D01*
X112259062Y-102746165D01*
X112661542Y-102477237D01*
X112930470Y-102074757D01*
X113024905Y-101600000D01*
X112930470Y-101125243D01*
X112661542Y-100722763D01*
X112274385Y-100464073D01*
X134577883Y-100464073D01*
X134680733Y-100712989D01*
X134753000Y-100785382D01*
X134753000Y-104774995D01*
X134752999Y-104775000D01*
X134791212Y-104967107D01*
X134900032Y-105129968D01*
X136805030Y-107034965D01*
X136805032Y-107034968D01*
X136848467Y-107063990D01*
X136967893Y-107143788D01*
X137160000Y-107182001D01*
X137160005Y-107182000D01*
X137339537Y-107182000D01*
X137411010Y-107253598D01*
X137659746Y-107356882D01*
X137929073Y-107357117D01*
X138177989Y-107254267D01*
X138368598Y-107063990D01*
X138471882Y-106815254D01*
X138472117Y-106545927D01*
X138369267Y-106297011D01*
X138178990Y-106106402D01*
X137930254Y-106003118D01*
X137660927Y-106002883D01*
X137412011Y-106105733D01*
X137353789Y-106163854D01*
X136007038Y-104817102D01*
X136024073Y-104817117D01*
X136272989Y-104714267D01*
X136463598Y-104523990D01*
X136541228Y-104337035D01*
X137205147Y-104337035D01*
X137222980Y-104426695D01*
X137424572Y-104866778D01*
X137779232Y-105196216D01*
X138232965Y-105364854D01*
X138427000Y-105286347D01*
X138427000Y-104143000D01*
X138433000Y-104143000D01*
X138433000Y-105286347D01*
X138627035Y-105364854D01*
X139080768Y-105196216D01*
X139435428Y-104866778D01*
X139637020Y-104426695D01*
X139654853Y-104337035D01*
X139745147Y-104337035D01*
X139762980Y-104426695D01*
X139964572Y-104866778D01*
X140319232Y-105196216D01*
X140772965Y-105364854D01*
X140967000Y-105286347D01*
X140967000Y-104143000D01*
X140973000Y-104143000D01*
X140973000Y-105286347D01*
X141167035Y-105364854D01*
X141620768Y-105196216D01*
X141975428Y-104866778D01*
X142177020Y-104426695D01*
X142194853Y-104337035D01*
X142116346Y-104143000D01*
X140973000Y-104143000D01*
X140967000Y-104143000D01*
X139823654Y-104143000D01*
X139745147Y-104337035D01*
X139654853Y-104337035D01*
X139576346Y-104143000D01*
X138433000Y-104143000D01*
X138427000Y-104143000D01*
X137283654Y-104143000D01*
X137205147Y-104337035D01*
X136541228Y-104337035D01*
X136566882Y-104275254D01*
X136566963Y-104182037D01*
X136659073Y-104182117D01*
X136907989Y-104079267D01*
X137044528Y-103942965D01*
X137205147Y-103942965D01*
X137283654Y-104137000D01*
X138427000Y-104137000D01*
X138427000Y-102993653D01*
X138433000Y-102993653D01*
X138433000Y-104137000D01*
X139576346Y-104137000D01*
X139654853Y-103942965D01*
X139745147Y-103942965D01*
X139823654Y-104137000D01*
X140967000Y-104137000D01*
X140967000Y-102993653D01*
X140973000Y-102993653D01*
X140973000Y-104137000D01*
X142116346Y-104137000D01*
X142194853Y-103942965D01*
X142177020Y-103853305D01*
X141975428Y-103413222D01*
X141620768Y-103083784D01*
X141167035Y-102915146D01*
X140973000Y-102993653D01*
X140967000Y-102993653D01*
X140772965Y-102915146D01*
X140319232Y-103083784D01*
X139964572Y-103413222D01*
X139762980Y-103853305D01*
X139745147Y-103942965D01*
X139654853Y-103942965D01*
X139637020Y-103853305D01*
X139435428Y-103413222D01*
X139080768Y-103083784D01*
X138627035Y-102915146D01*
X138433000Y-102993653D01*
X138427000Y-102993653D01*
X138232965Y-102915146D01*
X137779232Y-103083784D01*
X137424572Y-103413222D01*
X137222980Y-103853305D01*
X137205147Y-103942965D01*
X137044528Y-103942965D01*
X137098598Y-103888990D01*
X137201882Y-103640254D01*
X137202117Y-103370927D01*
X137099267Y-103122011D01*
X137027000Y-103049618D01*
X137027000Y-101600000D01*
X137165095Y-101600000D01*
X137259530Y-102074757D01*
X137528458Y-102477237D01*
X137930938Y-102746165D01*
X138405695Y-102840600D01*
X138454305Y-102840600D01*
X138929062Y-102746165D01*
X139331542Y-102477237D01*
X139600470Y-102074757D01*
X139694905Y-101600000D01*
X139705095Y-101600000D01*
X139799530Y-102074757D01*
X140068458Y-102477237D01*
X140470938Y-102746165D01*
X140945695Y-102840600D01*
X140994305Y-102840600D01*
X141469062Y-102746165D01*
X141871542Y-102477237D01*
X142140470Y-102074757D01*
X142234905Y-101600000D01*
X142140470Y-101125243D01*
X141871542Y-100722763D01*
X141469062Y-100453835D01*
X140994305Y-100359400D01*
X140945695Y-100359400D01*
X140470938Y-100453835D01*
X140068458Y-100722763D01*
X139799530Y-101125243D01*
X139705095Y-101600000D01*
X139694905Y-101600000D01*
X139600470Y-101125243D01*
X139331542Y-100722763D01*
X138929062Y-100453835D01*
X138454305Y-100359400D01*
X138405695Y-100359400D01*
X137930938Y-100453835D01*
X137528458Y-100722763D01*
X137259530Y-101125243D01*
X137165095Y-101600000D01*
X137027000Y-101600000D01*
X137027000Y-101172936D01*
X137891950Y-100307985D01*
X139293600Y-100307985D01*
X139433308Y-100281697D01*
X139561620Y-100199130D01*
X139647701Y-100073147D01*
X139677985Y-99923600D01*
X139677985Y-99060000D01*
X139705095Y-99060000D01*
X139799530Y-99534757D01*
X140068458Y-99937237D01*
X140470938Y-100206165D01*
X140945695Y-100300600D01*
X140994305Y-100300600D01*
X141469062Y-100206165D01*
X141871542Y-99937237D01*
X142140470Y-99534757D01*
X142234905Y-99060000D01*
X142140470Y-98585243D01*
X141871542Y-98182763D01*
X141469062Y-97913835D01*
X140994305Y-97819400D01*
X140945695Y-97819400D01*
X140470938Y-97913835D01*
X140068458Y-98182763D01*
X139799530Y-98585243D01*
X139705095Y-99060000D01*
X139677985Y-99060000D01*
X139677985Y-98196400D01*
X139651697Y-98056692D01*
X139569130Y-97928380D01*
X139443147Y-97842299D01*
X139293600Y-97812015D01*
X137977724Y-97812015D01*
X138177989Y-97729267D01*
X138368598Y-97538990D01*
X138471882Y-97290254D01*
X138472117Y-97020927D01*
X138369267Y-96772011D01*
X138178990Y-96581402D01*
X137930254Y-96478118D01*
X137827964Y-96478029D01*
X137202029Y-95852093D01*
X137202117Y-95750927D01*
X137099267Y-95502011D01*
X136908990Y-95311402D01*
X136660254Y-95208118D01*
X136390927Y-95207883D01*
X136142011Y-95310733D01*
X135951402Y-95501010D01*
X135848118Y-95749746D01*
X135847883Y-96019073D01*
X135950733Y-96267989D01*
X136141010Y-96458598D01*
X136389746Y-96561882D01*
X136492036Y-96561971D01*
X137117971Y-97187907D01*
X137117883Y-97289073D01*
X137220733Y-97537989D01*
X137411010Y-97728598D01*
X137611901Y-97812015D01*
X137566400Y-97812015D01*
X137426692Y-97838303D01*
X137298380Y-97920870D01*
X137212299Y-98046853D01*
X137182015Y-98196400D01*
X137182015Y-99598050D01*
X136331276Y-100448788D01*
X136273990Y-100391402D01*
X136025254Y-100288118D01*
X135932037Y-100288037D01*
X135932117Y-100195927D01*
X135829267Y-99947011D01*
X135638990Y-99756402D01*
X135390254Y-99653118D01*
X135120927Y-99652883D01*
X134872011Y-99755733D01*
X134681402Y-99946010D01*
X134578118Y-100194746D01*
X134577883Y-100464073D01*
X112274385Y-100464073D01*
X112259062Y-100453835D01*
X111784305Y-100359400D01*
X111735695Y-100359400D01*
X111260938Y-100453835D01*
X110858458Y-100722763D01*
X110589530Y-101125243D01*
X110495095Y-101600000D01*
X110484905Y-101600000D01*
X110390470Y-101125243D01*
X110121542Y-100722763D01*
X109719062Y-100453835D01*
X109244305Y-100359400D01*
X109195695Y-100359400D01*
X108720938Y-100453835D01*
X108318458Y-100722763D01*
X108049530Y-101125243D01*
X107955095Y-101600000D01*
X105862000Y-101600000D01*
X105862000Y-99257035D01*
X107995147Y-99257035D01*
X108012980Y-99346695D01*
X108214572Y-99786778D01*
X108569232Y-100116216D01*
X109022965Y-100284854D01*
X109217000Y-100206347D01*
X109217000Y-99063000D01*
X109223000Y-99063000D01*
X109223000Y-100206347D01*
X109417035Y-100284854D01*
X109870768Y-100116216D01*
X110225428Y-99786778D01*
X110427020Y-99346695D01*
X110444853Y-99257035D01*
X110535147Y-99257035D01*
X110552980Y-99346695D01*
X110754572Y-99786778D01*
X111109232Y-100116216D01*
X111562965Y-100284854D01*
X111757000Y-100206347D01*
X111757000Y-99063000D01*
X111763000Y-99063000D01*
X111763000Y-100206347D01*
X111957035Y-100284854D01*
X112410768Y-100116216D01*
X112765428Y-99786778D01*
X112967020Y-99346695D01*
X112984853Y-99257035D01*
X112906346Y-99063000D01*
X111763000Y-99063000D01*
X111757000Y-99063000D01*
X110613654Y-99063000D01*
X110535147Y-99257035D01*
X110444853Y-99257035D01*
X110366346Y-99063000D01*
X109223000Y-99063000D01*
X109217000Y-99063000D01*
X108073654Y-99063000D01*
X107995147Y-99257035D01*
X105862000Y-99257035D01*
X105862000Y-98862965D01*
X107995147Y-98862965D01*
X108073654Y-99057000D01*
X109217000Y-99057000D01*
X109217000Y-97913653D01*
X109223000Y-97913653D01*
X109223000Y-99057000D01*
X110366346Y-99057000D01*
X110444853Y-98862965D01*
X110535147Y-98862965D01*
X110613654Y-99057000D01*
X111757000Y-99057000D01*
X111757000Y-97913653D01*
X111763000Y-97913653D01*
X111763000Y-99057000D01*
X112906346Y-99057000D01*
X112984853Y-98862965D01*
X112967020Y-98773305D01*
X112765428Y-98333222D01*
X112410768Y-98003784D01*
X111957035Y-97835146D01*
X111763000Y-97913653D01*
X111757000Y-97913653D01*
X111562965Y-97835146D01*
X111109232Y-98003784D01*
X110754572Y-98333222D01*
X110552980Y-98773305D01*
X110535147Y-98862965D01*
X110444853Y-98862965D01*
X110427020Y-98773305D01*
X110225428Y-98333222D01*
X109870768Y-98003784D01*
X109417035Y-97835146D01*
X109223000Y-97913653D01*
X109217000Y-97913653D01*
X109022965Y-97835146D01*
X108569232Y-98003784D01*
X108214572Y-98333222D01*
X108012980Y-98773305D01*
X107995147Y-98862965D01*
X105862000Y-98862965D01*
X105862000Y-97289073D01*
X114257883Y-97289073D01*
X114360733Y-97537989D01*
X114551010Y-97728598D01*
X114799746Y-97831882D01*
X115069073Y-97832117D01*
X115317989Y-97729267D01*
X115390382Y-97657000D01*
X118924537Y-97657000D01*
X118996010Y-97728598D01*
X119244746Y-97831882D01*
X119514073Y-97832117D01*
X119762989Y-97729267D01*
X119953598Y-97538990D01*
X120056882Y-97290254D01*
X120057117Y-97020927D01*
X119954267Y-96772011D01*
X119763990Y-96581402D01*
X119515254Y-96478118D01*
X119245927Y-96477883D01*
X118997011Y-96580733D01*
X118924618Y-96653000D01*
X115390463Y-96653000D01*
X115318990Y-96581402D01*
X115070254Y-96478118D01*
X114800927Y-96477883D01*
X114552011Y-96580733D01*
X114361402Y-96771010D01*
X114258118Y-97019746D01*
X114257883Y-97289073D01*
X105862000Y-97289073D01*
X105862000Y-93116400D01*
X107972015Y-93116400D01*
X107972015Y-94843600D01*
X107998303Y-94983308D01*
X108080870Y-95111620D01*
X108206853Y-95197701D01*
X108356400Y-95227985D01*
X110083600Y-95227985D01*
X110223308Y-95201697D01*
X110351620Y-95119130D01*
X110437701Y-94993147D01*
X110467985Y-94843600D01*
X110467985Y-93441950D01*
X110844965Y-93064970D01*
X110844968Y-93064968D01*
X110939304Y-92923784D01*
X110953788Y-92902108D01*
X110992000Y-92710000D01*
X110992000Y-92414532D01*
X111285243Y-92610470D01*
X111760000Y-92704905D01*
X112234757Y-92610470D01*
X112637237Y-92341542D01*
X112906165Y-91939062D01*
X113000600Y-91464305D01*
X113000600Y-91415695D01*
X112916590Y-90993346D01*
X113237935Y-90672000D01*
X113352679Y-90672000D01*
X113243784Y-90789232D01*
X113075146Y-91242965D01*
X113153653Y-91437000D01*
X114297000Y-91437000D01*
X114297000Y-91417000D01*
X114303000Y-91417000D01*
X114303000Y-91437000D01*
X114323000Y-91437000D01*
X114323000Y-91443000D01*
X114303000Y-91443000D01*
X114303000Y-91463000D01*
X114297000Y-91463000D01*
X114297000Y-91443000D01*
X113153653Y-91443000D01*
X113075146Y-91637035D01*
X113243784Y-92090768D01*
X113352679Y-92208000D01*
X113030000Y-92208000D01*
X112837892Y-92246212D01*
X112772660Y-92289800D01*
X112675032Y-92355032D01*
X112675030Y-92355035D01*
X112222894Y-92807170D01*
X111760000Y-92715095D01*
X111285243Y-92809530D01*
X110882763Y-93078458D01*
X110613835Y-93480938D01*
X110519400Y-93955695D01*
X110519400Y-94004305D01*
X110613835Y-94479062D01*
X110882763Y-94881542D01*
X111285243Y-95150470D01*
X111760000Y-95244905D01*
X112234757Y-95150470D01*
X112637237Y-94881542D01*
X112906165Y-94479062D01*
X113000600Y-94004305D01*
X113000600Y-93955695D01*
X112916590Y-93533346D01*
X113237935Y-93212000D01*
X113333533Y-93212000D01*
X113153835Y-93480938D01*
X113059400Y-93955695D01*
X113059400Y-94004305D01*
X113153835Y-94479062D01*
X113422763Y-94881542D01*
X113825243Y-95150470D01*
X114300000Y-95244905D01*
X114774757Y-95150470D01*
X115177237Y-94881542D01*
X115446165Y-94479062D01*
X115506241Y-94177035D01*
X137205147Y-94177035D01*
X137222980Y-94266695D01*
X137424572Y-94706778D01*
X137779232Y-95036216D01*
X138232965Y-95204854D01*
X138427000Y-95126347D01*
X138427000Y-93983000D01*
X138433000Y-93983000D01*
X138433000Y-95126347D01*
X138627035Y-95204854D01*
X139080768Y-95036216D01*
X139435428Y-94706778D01*
X139637020Y-94266695D01*
X139654853Y-94177035D01*
X139745147Y-94177035D01*
X139762980Y-94266695D01*
X139964572Y-94706778D01*
X140319232Y-95036216D01*
X140772965Y-95204854D01*
X140967000Y-95126347D01*
X140967000Y-93983000D01*
X140973000Y-93983000D01*
X140973000Y-95126347D01*
X141167035Y-95204854D01*
X141620768Y-95036216D01*
X141975428Y-94706778D01*
X142177020Y-94266695D01*
X142194853Y-94177035D01*
X142116346Y-93983000D01*
X140973000Y-93983000D01*
X140967000Y-93983000D01*
X139823654Y-93983000D01*
X139745147Y-94177035D01*
X139654853Y-94177035D01*
X139576346Y-93983000D01*
X138433000Y-93983000D01*
X138427000Y-93983000D01*
X137283654Y-93983000D01*
X137205147Y-94177035D01*
X115506241Y-94177035D01*
X115520728Y-94104208D01*
X117682935Y-91942000D01*
X119807064Y-91942000D01*
X121565030Y-93699965D01*
X121565032Y-93699968D01*
X121727893Y-93808788D01*
X121920000Y-93847001D01*
X121920005Y-93847000D01*
X124004537Y-93847000D01*
X124076010Y-93918598D01*
X124324746Y-94021882D01*
X124594073Y-94022117D01*
X124842989Y-93919267D01*
X124979528Y-93782965D01*
X137205147Y-93782965D01*
X137283654Y-93977000D01*
X138427000Y-93977000D01*
X138427000Y-92833653D01*
X138433000Y-92833653D01*
X138433000Y-93977000D01*
X139576346Y-93977000D01*
X139654853Y-93782965D01*
X139745147Y-93782965D01*
X139823654Y-93977000D01*
X140967000Y-93977000D01*
X140967000Y-92833653D01*
X140973000Y-92833653D01*
X140973000Y-93977000D01*
X142116346Y-93977000D01*
X142194853Y-93782965D01*
X142177020Y-93693305D01*
X141975428Y-93253222D01*
X141620768Y-92923784D01*
X141167035Y-92755146D01*
X140973000Y-92833653D01*
X140967000Y-92833653D01*
X140772965Y-92755146D01*
X140319232Y-92923784D01*
X139964572Y-93253222D01*
X139762980Y-93693305D01*
X139745147Y-93782965D01*
X139654853Y-93782965D01*
X139637020Y-93693305D01*
X139435428Y-93253222D01*
X139080768Y-92923784D01*
X138627035Y-92755146D01*
X138433000Y-92833653D01*
X138427000Y-92833653D01*
X138232965Y-92755146D01*
X137779232Y-92923784D01*
X137424572Y-93253222D01*
X137222980Y-93693305D01*
X137205147Y-93782965D01*
X124979528Y-93782965D01*
X125033598Y-93728990D01*
X125136882Y-93480254D01*
X125137117Y-93210927D01*
X125034267Y-92962011D01*
X124843990Y-92771402D01*
X124595254Y-92668118D01*
X124325927Y-92667883D01*
X124077011Y-92770733D01*
X124004618Y-92843000D01*
X122127935Y-92843000D01*
X120591936Y-91307000D01*
X120627062Y-91307000D01*
X121750028Y-92429965D01*
X121750030Y-92429968D01*
X121793465Y-92458990D01*
X121912890Y-92538788D01*
X122104998Y-92577000D01*
X125094995Y-92577000D01*
X125095000Y-92577001D01*
X125287107Y-92538788D01*
X125449968Y-92429968D01*
X125687898Y-92192038D01*
X125687883Y-92209073D01*
X125790733Y-92457989D01*
X125981010Y-92648598D01*
X126229746Y-92751882D01*
X126499073Y-92752117D01*
X126747989Y-92649267D01*
X126938598Y-92458990D01*
X127041882Y-92210254D01*
X127042117Y-91940927D01*
X126939267Y-91692011D01*
X126748990Y-91501402D01*
X126601118Y-91440000D01*
X137165095Y-91440000D01*
X137259530Y-91914757D01*
X137528458Y-92317237D01*
X137930938Y-92586165D01*
X138405695Y-92680600D01*
X138454305Y-92680600D01*
X138929062Y-92586165D01*
X139331542Y-92317237D01*
X139600470Y-91914757D01*
X139694905Y-91440000D01*
X139705095Y-91440000D01*
X139799530Y-91914757D01*
X140068458Y-92317237D01*
X140470938Y-92586165D01*
X140945695Y-92680600D01*
X140994305Y-92680600D01*
X141469062Y-92586165D01*
X141871542Y-92317237D01*
X142140470Y-91914757D01*
X142234905Y-91440000D01*
X142140470Y-90965243D01*
X141871542Y-90562763D01*
X141469062Y-90293835D01*
X140994305Y-90199400D01*
X140945695Y-90199400D01*
X140470938Y-90293835D01*
X140068458Y-90562763D01*
X139799530Y-90965243D01*
X139705095Y-91440000D01*
X139694905Y-91440000D01*
X139600470Y-90965243D01*
X139331542Y-90562763D01*
X138929062Y-90293835D01*
X138454305Y-90199400D01*
X138405695Y-90199400D01*
X137930938Y-90293835D01*
X137528458Y-90562763D01*
X137259530Y-90965243D01*
X137165095Y-91440000D01*
X126601118Y-91440000D01*
X126500254Y-91398118D01*
X126397964Y-91398029D01*
X126232000Y-91232064D01*
X126232000Y-88720463D01*
X126303598Y-88648990D01*
X126406882Y-88400254D01*
X126407117Y-88130927D01*
X126368060Y-88036400D01*
X137182015Y-88036400D01*
X137182015Y-89763600D01*
X137208303Y-89903308D01*
X137290870Y-90031620D01*
X137416853Y-90117701D01*
X137566400Y-90147985D01*
X139293600Y-90147985D01*
X139433308Y-90121697D01*
X139561620Y-90039130D01*
X139647701Y-89913147D01*
X139677985Y-89763600D01*
X139677985Y-88900000D01*
X139705095Y-88900000D01*
X139799530Y-89374757D01*
X140068458Y-89777237D01*
X140470938Y-90046165D01*
X140945695Y-90140600D01*
X140994305Y-90140600D01*
X141469062Y-90046165D01*
X141871542Y-89777237D01*
X142140470Y-89374757D01*
X142234905Y-88900000D01*
X142140470Y-88425243D01*
X141871542Y-88022763D01*
X141469062Y-87753835D01*
X140994305Y-87659400D01*
X140945695Y-87659400D01*
X140470938Y-87753835D01*
X140068458Y-88022763D01*
X139799530Y-88425243D01*
X139705095Y-88900000D01*
X139677985Y-88900000D01*
X139677985Y-88036400D01*
X139651697Y-87896692D01*
X139569130Y-87768380D01*
X139443147Y-87682299D01*
X139293600Y-87652015D01*
X137566400Y-87652015D01*
X137426692Y-87678303D01*
X137298380Y-87760870D01*
X137212299Y-87886853D01*
X137182015Y-88036400D01*
X126368060Y-88036400D01*
X126304267Y-87882011D01*
X126113990Y-87691402D01*
X125865254Y-87588118D01*
X125595927Y-87587883D01*
X125347011Y-87690733D01*
X125156402Y-87881010D01*
X125053118Y-88129746D01*
X125052883Y-88399073D01*
X125155733Y-88647989D01*
X125228000Y-88720382D01*
X125228000Y-91232065D01*
X125137102Y-91322962D01*
X125137117Y-91305927D01*
X125034267Y-91057011D01*
X124843990Y-90866402D01*
X124595254Y-90763118D01*
X124325927Y-90762883D01*
X124077011Y-90865733D01*
X124004618Y-90938000D01*
X123866884Y-90938000D01*
X123867117Y-90670927D01*
X123764267Y-90422011D01*
X123573990Y-90231402D01*
X123325254Y-90128118D01*
X123222964Y-90128029D01*
X122274968Y-89180032D01*
X122112107Y-89071212D01*
X121920000Y-89032999D01*
X121919995Y-89033000D01*
X111760000Y-89033000D01*
X111567892Y-89071212D01*
X111502660Y-89114800D01*
X111405032Y-89180032D01*
X111405030Y-89180035D01*
X110135032Y-90450032D01*
X110082519Y-90528624D01*
X109694757Y-90269530D01*
X109220000Y-90175095D01*
X108745243Y-90269530D01*
X108342763Y-90538458D01*
X108073835Y-90940938D01*
X107979400Y-91415695D01*
X107979400Y-91464305D01*
X108073835Y-91939062D01*
X108342763Y-92341542D01*
X108745243Y-92610470D01*
X109220000Y-92704905D01*
X109694757Y-92610470D01*
X109988000Y-92414532D01*
X109988000Y-92502065D01*
X109758050Y-92732015D01*
X108356400Y-92732015D01*
X108216692Y-92758303D01*
X108088380Y-92840870D01*
X108002299Y-92966853D01*
X107972015Y-93116400D01*
X105862000Y-93116400D01*
X105862000Y-86812000D01*
X144328000Y-86812000D01*
X144328000Y-116388000D01*
X144328000Y-116388000D01*
G37*
X144328000Y-116388000D02*
X105862000Y-116388000D01*
X105862000Y-114497035D01*
X137205147Y-114497035D01*
X137222980Y-114586695D01*
X137424572Y-115026778D01*
X137779232Y-115356216D01*
X138232965Y-115524854D01*
X138427000Y-115446347D01*
X138427000Y-114303000D01*
X138433000Y-114303000D01*
X138433000Y-115446347D01*
X138627035Y-115524854D01*
X139080768Y-115356216D01*
X139435428Y-115026778D01*
X139637020Y-114586695D01*
X139654853Y-114497035D01*
X139745147Y-114497035D01*
X139762980Y-114586695D01*
X139964572Y-115026778D01*
X140319232Y-115356216D01*
X140772965Y-115524854D01*
X140967000Y-115446347D01*
X140967000Y-114303000D01*
X140973000Y-114303000D01*
X140973000Y-115446347D01*
X141167035Y-115524854D01*
X141620768Y-115356216D01*
X141975428Y-115026778D01*
X142177020Y-114586695D01*
X142194853Y-114497035D01*
X142116346Y-114303000D01*
X140973000Y-114303000D01*
X140967000Y-114303000D01*
X139823654Y-114303000D01*
X139745147Y-114497035D01*
X139654853Y-114497035D01*
X139576346Y-114303000D01*
X138433000Y-114303000D01*
X138427000Y-114303000D01*
X137283654Y-114303000D01*
X137205147Y-114497035D01*
X105862000Y-114497035D01*
X105862000Y-114102965D01*
X137205147Y-114102965D01*
X137283654Y-114297000D01*
X138427000Y-114297000D01*
X138427000Y-113153653D01*
X138433000Y-113153653D01*
X138433000Y-114297000D01*
X139576346Y-114297000D01*
X139654853Y-114102965D01*
X139745147Y-114102965D01*
X139823654Y-114297000D01*
X140967000Y-114297000D01*
X140967000Y-113153653D01*
X140973000Y-113153653D01*
X140973000Y-114297000D01*
X142116346Y-114297000D01*
X142194853Y-114102965D01*
X142177020Y-114013305D01*
X141975428Y-113573222D01*
X141620768Y-113243784D01*
X141167035Y-113075146D01*
X140973000Y-113153653D01*
X140967000Y-113153653D01*
X140772965Y-113075146D01*
X140319232Y-113243784D01*
X139964572Y-113573222D01*
X139762980Y-114013305D01*
X139745147Y-114102965D01*
X139654853Y-114102965D01*
X139637020Y-114013305D01*
X139435428Y-113573222D01*
X139080768Y-113243784D01*
X138627035Y-113075146D01*
X138433000Y-113153653D01*
X138427000Y-113153653D01*
X138232965Y-113075146D01*
X137779232Y-113243784D01*
X137424572Y-113573222D01*
X137222980Y-114013305D01*
X137205147Y-114102965D01*
X105862000Y-114102965D01*
X105862000Y-111957035D01*
X107995146Y-111957035D01*
X108163784Y-112410768D01*
X108493222Y-112765428D01*
X108933305Y-112967020D01*
X109022965Y-112984853D01*
X109217000Y-112906346D01*
X109217000Y-111763000D01*
X108073653Y-111763000D01*
X107995146Y-111957035D01*
X105862000Y-111957035D01*
X105862000Y-111562965D01*
X107995146Y-111562965D01*
X108073653Y-111757000D01*
X109217000Y-111757000D01*
X109217000Y-110613654D01*
X109022965Y-110535147D01*
X108933305Y-110552980D01*
X108493222Y-110754572D01*
X108163784Y-111109232D01*
X107995146Y-111562965D01*
X105862000Y-111562965D01*
X105862000Y-109195695D01*
X107979400Y-109195695D01*
X107979400Y-109244305D01*
X108073835Y-109719062D01*
X108342763Y-110121542D01*
X108745243Y-110390470D01*
X109220000Y-110484905D01*
X109682894Y-110392830D01*
X109988000Y-110697935D01*
X109988000Y-110798950D01*
X109946778Y-110754572D01*
X109506695Y-110552980D01*
X109417035Y-110535147D01*
X109223000Y-110613654D01*
X109223000Y-111757000D01*
X109243000Y-111757000D01*
X109243000Y-111763000D01*
X109223000Y-111763000D01*
X109223000Y-112906346D01*
X109417035Y-112984853D01*
X109506695Y-112967020D01*
X109946778Y-112765428D01*
X110062279Y-112641085D01*
X110135032Y-112749968D01*
X110770030Y-113384965D01*
X110770032Y-113384968D01*
X110932893Y-113493788D01*
X111125000Y-113532001D01*
X111125005Y-113532000D01*
X114934995Y-113532000D01*
X114935000Y-113532001D01*
X115127107Y-113493788D01*
X115289968Y-113384968D01*
X117682935Y-110992000D01*
X122347064Y-110992000D01*
X123782971Y-112427906D01*
X123782883Y-112529073D01*
X123885733Y-112777989D01*
X124076010Y-112968598D01*
X124324746Y-113071882D01*
X124594073Y-113072117D01*
X124842989Y-112969267D01*
X125033598Y-112778990D01*
X125136882Y-112530254D01*
X125137117Y-112260927D01*
X125034267Y-112012011D01*
X124843990Y-111821402D01*
X124696118Y-111760000D01*
X137165095Y-111760000D01*
X137259530Y-112234757D01*
X137528458Y-112637237D01*
X137930938Y-112906165D01*
X138405695Y-113000600D01*
X138454305Y-113000600D01*
X138929062Y-112906165D01*
X139331542Y-112637237D01*
X139600470Y-112234757D01*
X139694905Y-111760000D01*
X139705095Y-111760000D01*
X139799530Y-112234757D01*
X140068458Y-112637237D01*
X140470938Y-112906165D01*
X140945695Y-113000600D01*
X140994305Y-113000600D01*
X141469062Y-112906165D01*
X141871542Y-112637237D01*
X142140470Y-112234757D01*
X142234905Y-111760000D01*
X142140470Y-111285243D01*
X141871542Y-110882763D01*
X141469062Y-110613835D01*
X140994305Y-110519400D01*
X140945695Y-110519400D01*
X140470938Y-110613835D01*
X140068458Y-110882763D01*
X139799530Y-111285243D01*
X139705095Y-111760000D01*
X139694905Y-111760000D01*
X139600470Y-111285243D01*
X139331542Y-110882763D01*
X138929062Y-110613835D01*
X138454305Y-110519400D01*
X138405695Y-110519400D01*
X137930938Y-110613835D01*
X137528458Y-110882763D01*
X137259530Y-111285243D01*
X137165095Y-111760000D01*
X124696118Y-111760000D01*
X124595254Y-111718118D01*
X124492964Y-111718029D01*
X123131936Y-110357000D01*
X124004537Y-110357000D01*
X124076010Y-110428598D01*
X124324746Y-110531882D01*
X124594073Y-110532117D01*
X124842989Y-110429267D01*
X125033598Y-110238990D01*
X125136882Y-109990254D01*
X125137117Y-109720927D01*
X125034267Y-109472011D01*
X124843990Y-109281402D01*
X124595254Y-109178118D01*
X124502037Y-109178037D01*
X124502117Y-109085927D01*
X124399267Y-108837011D01*
X124341147Y-108778789D01*
X125762906Y-107357029D01*
X125864073Y-107357117D01*
X126112989Y-107254267D01*
X126185382Y-107182000D01*
X127427064Y-107182000D01*
X128862971Y-108617906D01*
X128862883Y-108719073D01*
X128965733Y-108967989D01*
X129156010Y-109158598D01*
X129404746Y-109261882D01*
X129674073Y-109262117D01*
X129922989Y-109159267D01*
X130113598Y-108968990D01*
X130216882Y-108720254D01*
X130217117Y-108450927D01*
X130178060Y-108356400D01*
X137182015Y-108356400D01*
X137182015Y-110083600D01*
X137208303Y-110223308D01*
X137290870Y-110351620D01*
X137416853Y-110437701D01*
X137566400Y-110467985D01*
X139293600Y-110467985D01*
X139433308Y-110441697D01*
X139561620Y-110359130D01*
X139647701Y-110233147D01*
X139677985Y-110083600D01*
X139677985Y-109220000D01*
X139705095Y-109220000D01*
X139799530Y-109694757D01*
X140068458Y-110097237D01*
X140470938Y-110366165D01*
X140945695Y-110460600D01*
X140994305Y-110460600D01*
X141469062Y-110366165D01*
X141871542Y-110097237D01*
X142140470Y-109694757D01*
X142234905Y-109220000D01*
X142140470Y-108745243D01*
X141871542Y-108342763D01*
X141469062Y-108073835D01*
X140994305Y-107979400D01*
X140945695Y-107979400D01*
X140470938Y-108073835D01*
X140068458Y-108342763D01*
X139799530Y-108745243D01*
X139705095Y-109220000D01*
X139677985Y-109220000D01*
X139677985Y-108356400D01*
X139651697Y-108216692D01*
X139569130Y-108088380D01*
X139443147Y-108002299D01*
X139293600Y-107972015D01*
X137566400Y-107972015D01*
X137426692Y-107998303D01*
X137298380Y-108080870D01*
X137212299Y-108206853D01*
X137182015Y-108356400D01*
X130178060Y-108356400D01*
X130114267Y-108202011D01*
X129923990Y-108011402D01*
X129675254Y-107908118D01*
X129572964Y-107908029D01*
X127989968Y-106325032D01*
X127827107Y-106216212D01*
X127635000Y-106177999D01*
X127634995Y-106178000D01*
X126185463Y-106178000D01*
X126113990Y-106106402D01*
X125865254Y-106003118D01*
X125595927Y-106002883D01*
X125347011Y-106105733D01*
X125156402Y-106296010D01*
X125053118Y-106544746D01*
X125053029Y-106647036D01*
X123617064Y-108083000D01*
X116412935Y-108083000D01*
X115924968Y-107595032D01*
X115762107Y-107486212D01*
X115570000Y-107447999D01*
X115569995Y-107448000D01*
X113030000Y-107448000D01*
X112837892Y-107486212D01*
X112772660Y-107529800D01*
X112675032Y-107595032D01*
X112675030Y-107595035D01*
X112222894Y-108047170D01*
X111760000Y-107955095D01*
X111285243Y-108049530D01*
X110882763Y-108318458D01*
X110613835Y-108720938D01*
X110519400Y-109195695D01*
X110519400Y-109244305D01*
X110613835Y-109719062D01*
X110882763Y-110121542D01*
X111285243Y-110390470D01*
X111760000Y-110484905D01*
X112234757Y-110390470D01*
X112637237Y-110121542D01*
X112906165Y-109719062D01*
X113000600Y-109244305D01*
X113000600Y-109195695D01*
X112916590Y-108773346D01*
X113052015Y-108637920D01*
X113052015Y-109988000D01*
X113030000Y-109988000D01*
X112837892Y-110026212D01*
X112806621Y-110047107D01*
X112675032Y-110135032D01*
X112675030Y-110135035D01*
X112222894Y-110587170D01*
X111760000Y-110495095D01*
X111285243Y-110589530D01*
X110992000Y-110785468D01*
X110992000Y-110490000D01*
X110979787Y-110428598D01*
X110953788Y-110297892D01*
X110903952Y-110223308D01*
X110844968Y-110135032D01*
X110844965Y-110135030D01*
X110376590Y-109666654D01*
X110460600Y-109244305D01*
X110460600Y-109195695D01*
X110366165Y-108720938D01*
X110097237Y-108318458D01*
X109694757Y-108049530D01*
X109220000Y-107955095D01*
X108745243Y-108049530D01*
X108342763Y-108318458D01*
X108073835Y-108720938D01*
X107979400Y-109195695D01*
X105862000Y-109195695D01*
X105862000Y-104140000D01*
X107955095Y-104140000D01*
X108049530Y-104614757D01*
X108318458Y-105017237D01*
X108720938Y-105286165D01*
X109195695Y-105380600D01*
X109244305Y-105380600D01*
X109719062Y-105286165D01*
X110121542Y-105017237D01*
X110390470Y-104614757D01*
X110484905Y-104140000D01*
X110390470Y-103665243D01*
X110130654Y-103276400D01*
X110512015Y-103276400D01*
X110512015Y-105003600D01*
X110538303Y-105143308D01*
X110620870Y-105271620D01*
X110746853Y-105357701D01*
X110896400Y-105387985D01*
X112623600Y-105387985D01*
X112763308Y-105361697D01*
X112891620Y-105279130D01*
X112977701Y-105153147D01*
X113007985Y-105003600D01*
X113007985Y-103276400D01*
X112981697Y-103136692D01*
X112899130Y-103008380D01*
X112773147Y-102922299D01*
X112623600Y-102892015D01*
X110896400Y-102892015D01*
X110756692Y-102918303D01*
X110628380Y-103000870D01*
X110542299Y-103126853D01*
X110512015Y-103276400D01*
X110130654Y-103276400D01*
X110121542Y-103262763D01*
X109719062Y-102993835D01*
X109244305Y-102899400D01*
X109195695Y-102899400D01*
X108720938Y-102993835D01*
X108318458Y-103262763D01*
X108049530Y-103665243D01*
X107955095Y-104140000D01*
X105862000Y-104140000D01*
X105862000Y-101600000D01*
X107955095Y-101600000D01*
X108049530Y-102074757D01*
X108318458Y-102477237D01*
X108720938Y-102746165D01*
X109195695Y-102840600D01*
X109244305Y-102840600D01*
X109719062Y-102746165D01*
X110121542Y-102477237D01*
X110390470Y-102074757D01*
X110484905Y-101600000D01*
X110495095Y-101600000D01*
X110589530Y-102074757D01*
X110858458Y-102477237D01*
X111260938Y-102746165D01*
X111735695Y-102840600D01*
X111784305Y-102840600D01*
X112259062Y-102746165D01*
X112661542Y-102477237D01*
X112930470Y-102074757D01*
X113024905Y-101600000D01*
X112930470Y-101125243D01*
X112661542Y-100722763D01*
X112274385Y-100464073D01*
X134577883Y-100464073D01*
X134680733Y-100712989D01*
X134753000Y-100785382D01*
X134753000Y-104774995D01*
X134752999Y-104775000D01*
X134791212Y-104967107D01*
X134900032Y-105129968D01*
X136805030Y-107034965D01*
X136805032Y-107034968D01*
X136848467Y-107063990D01*
X136967893Y-107143788D01*
X137160000Y-107182001D01*
X137160005Y-107182000D01*
X137339537Y-107182000D01*
X137411010Y-107253598D01*
X137659746Y-107356882D01*
X137929073Y-107357117D01*
X138177989Y-107254267D01*
X138368598Y-107063990D01*
X138471882Y-106815254D01*
X138472117Y-106545927D01*
X138369267Y-106297011D01*
X138178990Y-106106402D01*
X137930254Y-106003118D01*
X137660927Y-106002883D01*
X137412011Y-106105733D01*
X137353789Y-106163854D01*
X136007038Y-104817102D01*
X136024073Y-104817117D01*
X136272989Y-104714267D01*
X136463598Y-104523990D01*
X136541228Y-104337035D01*
X137205147Y-104337035D01*
X137222980Y-104426695D01*
X137424572Y-104866778D01*
X137779232Y-105196216D01*
X138232965Y-105364854D01*
X138427000Y-105286347D01*
X138427000Y-104143000D01*
X138433000Y-104143000D01*
X138433000Y-105286347D01*
X138627035Y-105364854D01*
X139080768Y-105196216D01*
X139435428Y-104866778D01*
X139637020Y-104426695D01*
X139654853Y-104337035D01*
X139745147Y-104337035D01*
X139762980Y-104426695D01*
X139964572Y-104866778D01*
X140319232Y-105196216D01*
X140772965Y-105364854D01*
X140967000Y-105286347D01*
X140967000Y-104143000D01*
X140973000Y-104143000D01*
X140973000Y-105286347D01*
X141167035Y-105364854D01*
X141620768Y-105196216D01*
X141975428Y-104866778D01*
X142177020Y-104426695D01*
X142194853Y-104337035D01*
X142116346Y-104143000D01*
X140973000Y-104143000D01*
X140967000Y-104143000D01*
X139823654Y-104143000D01*
X139745147Y-104337035D01*
X139654853Y-104337035D01*
X139576346Y-104143000D01*
X138433000Y-104143000D01*
X138427000Y-104143000D01*
X137283654Y-104143000D01*
X137205147Y-104337035D01*
X136541228Y-104337035D01*
X136566882Y-104275254D01*
X136566963Y-104182037D01*
X136659073Y-104182117D01*
X136907989Y-104079267D01*
X137044528Y-103942965D01*
X137205147Y-103942965D01*
X137283654Y-104137000D01*
X138427000Y-104137000D01*
X138427000Y-102993653D01*
X138433000Y-102993653D01*
X138433000Y-104137000D01*
X139576346Y-104137000D01*
X139654853Y-103942965D01*
X139745147Y-103942965D01*
X139823654Y-104137000D01*
X140967000Y-104137000D01*
X140967000Y-102993653D01*
X140973000Y-102993653D01*
X140973000Y-104137000D01*
X142116346Y-104137000D01*
X142194853Y-103942965D01*
X142177020Y-103853305D01*
X141975428Y-103413222D01*
X141620768Y-103083784D01*
X141167035Y-102915146D01*
X140973000Y-102993653D01*
X140967000Y-102993653D01*
X140772965Y-102915146D01*
X140319232Y-103083784D01*
X139964572Y-103413222D01*
X139762980Y-103853305D01*
X139745147Y-103942965D01*
X139654853Y-103942965D01*
X139637020Y-103853305D01*
X139435428Y-103413222D01*
X139080768Y-103083784D01*
X138627035Y-102915146D01*
X138433000Y-102993653D01*
X138427000Y-102993653D01*
X138232965Y-102915146D01*
X137779232Y-103083784D01*
X137424572Y-103413222D01*
X137222980Y-103853305D01*
X137205147Y-103942965D01*
X137044528Y-103942965D01*
X137098598Y-103888990D01*
X137201882Y-103640254D01*
X137202117Y-103370927D01*
X137099267Y-103122011D01*
X137027000Y-103049618D01*
X137027000Y-101600000D01*
X137165095Y-101600000D01*
X137259530Y-102074757D01*
X137528458Y-102477237D01*
X137930938Y-102746165D01*
X138405695Y-102840600D01*
X138454305Y-102840600D01*
X138929062Y-102746165D01*
X139331542Y-102477237D01*
X139600470Y-102074757D01*
X139694905Y-101600000D01*
X139705095Y-101600000D01*
X139799530Y-102074757D01*
X140068458Y-102477237D01*
X140470938Y-102746165D01*
X140945695Y-102840600D01*
X140994305Y-102840600D01*
X141469062Y-102746165D01*
X141871542Y-102477237D01*
X142140470Y-102074757D01*
X142234905Y-101600000D01*
X142140470Y-101125243D01*
X141871542Y-100722763D01*
X141469062Y-100453835D01*
X140994305Y-100359400D01*
X140945695Y-100359400D01*
X140470938Y-100453835D01*
X140068458Y-100722763D01*
X139799530Y-101125243D01*
X139705095Y-101600000D01*
X139694905Y-101600000D01*
X139600470Y-101125243D01*
X139331542Y-100722763D01*
X138929062Y-100453835D01*
X138454305Y-100359400D01*
X138405695Y-100359400D01*
X137930938Y-100453835D01*
X137528458Y-100722763D01*
X137259530Y-101125243D01*
X137165095Y-101600000D01*
X137027000Y-101600000D01*
X137027000Y-101172936D01*
X137891950Y-100307985D01*
X139293600Y-100307985D01*
X139433308Y-100281697D01*
X139561620Y-100199130D01*
X139647701Y-100073147D01*
X139677985Y-99923600D01*
X139677985Y-99060000D01*
X139705095Y-99060000D01*
X139799530Y-99534757D01*
X140068458Y-99937237D01*
X140470938Y-100206165D01*
X140945695Y-100300600D01*
X140994305Y-100300600D01*
X141469062Y-100206165D01*
X141871542Y-99937237D01*
X142140470Y-99534757D01*
X142234905Y-99060000D01*
X142140470Y-98585243D01*
X141871542Y-98182763D01*
X141469062Y-97913835D01*
X140994305Y-97819400D01*
X140945695Y-97819400D01*
X140470938Y-97913835D01*
X140068458Y-98182763D01*
X139799530Y-98585243D01*
X139705095Y-99060000D01*
X139677985Y-99060000D01*
X139677985Y-98196400D01*
X139651697Y-98056692D01*
X139569130Y-97928380D01*
X139443147Y-97842299D01*
X139293600Y-97812015D01*
X137977724Y-97812015D01*
X138177989Y-97729267D01*
X138368598Y-97538990D01*
X138471882Y-97290254D01*
X138472117Y-97020927D01*
X138369267Y-96772011D01*
X138178990Y-96581402D01*
X137930254Y-96478118D01*
X137827964Y-96478029D01*
X137202029Y-95852093D01*
X137202117Y-95750927D01*
X137099267Y-95502011D01*
X136908990Y-95311402D01*
X136660254Y-95208118D01*
X136390927Y-95207883D01*
X136142011Y-95310733D01*
X135951402Y-95501010D01*
X135848118Y-95749746D01*
X135847883Y-96019073D01*
X135950733Y-96267989D01*
X136141010Y-96458598D01*
X136389746Y-96561882D01*
X136492036Y-96561971D01*
X137117971Y-97187907D01*
X137117883Y-97289073D01*
X137220733Y-97537989D01*
X137411010Y-97728598D01*
X137611901Y-97812015D01*
X137566400Y-97812015D01*
X137426692Y-97838303D01*
X137298380Y-97920870D01*
X137212299Y-98046853D01*
X137182015Y-98196400D01*
X137182015Y-99598050D01*
X136331276Y-100448788D01*
X136273990Y-100391402D01*
X136025254Y-100288118D01*
X135932037Y-100288037D01*
X135932117Y-100195927D01*
X135829267Y-99947011D01*
X135638990Y-99756402D01*
X135390254Y-99653118D01*
X135120927Y-99652883D01*
X134872011Y-99755733D01*
X134681402Y-99946010D01*
X134578118Y-100194746D01*
X134577883Y-100464073D01*
X112274385Y-100464073D01*
X112259062Y-100453835D01*
X111784305Y-100359400D01*
X111735695Y-100359400D01*
X111260938Y-100453835D01*
X110858458Y-100722763D01*
X110589530Y-101125243D01*
X110495095Y-101600000D01*
X110484905Y-101600000D01*
X110390470Y-101125243D01*
X110121542Y-100722763D01*
X109719062Y-100453835D01*
X109244305Y-100359400D01*
X109195695Y-100359400D01*
X108720938Y-100453835D01*
X108318458Y-100722763D01*
X108049530Y-101125243D01*
X107955095Y-101600000D01*
X105862000Y-101600000D01*
X105862000Y-99257035D01*
X107995147Y-99257035D01*
X108012980Y-99346695D01*
X108214572Y-99786778D01*
X108569232Y-100116216D01*
X109022965Y-100284854D01*
X109217000Y-100206347D01*
X109217000Y-99063000D01*
X109223000Y-99063000D01*
X109223000Y-100206347D01*
X109417035Y-100284854D01*
X109870768Y-100116216D01*
X110225428Y-99786778D01*
X110427020Y-99346695D01*
X110444853Y-99257035D01*
X110535147Y-99257035D01*
X110552980Y-99346695D01*
X110754572Y-99786778D01*
X111109232Y-100116216D01*
X111562965Y-100284854D01*
X111757000Y-100206347D01*
X111757000Y-99063000D01*
X111763000Y-99063000D01*
X111763000Y-100206347D01*
X111957035Y-100284854D01*
X112410768Y-100116216D01*
X112765428Y-99786778D01*
X112967020Y-99346695D01*
X112984853Y-99257035D01*
X112906346Y-99063000D01*
X111763000Y-99063000D01*
X111757000Y-99063000D01*
X110613654Y-99063000D01*
X110535147Y-99257035D01*
X110444853Y-99257035D01*
X110366346Y-99063000D01*
X109223000Y-99063000D01*
X109217000Y-99063000D01*
X108073654Y-99063000D01*
X107995147Y-99257035D01*
X105862000Y-99257035D01*
X105862000Y-98862965D01*
X107995147Y-98862965D01*
X108073654Y-99057000D01*
X109217000Y-99057000D01*
X109217000Y-97913653D01*
X109223000Y-97913653D01*
X109223000Y-99057000D01*
X110366346Y-99057000D01*
X110444853Y-98862965D01*
X110535147Y-98862965D01*
X110613654Y-99057000D01*
X111757000Y-99057000D01*
X111757000Y-97913653D01*
X111763000Y-97913653D01*
X111763000Y-99057000D01*
X112906346Y-99057000D01*
X112984853Y-98862965D01*
X112967020Y-98773305D01*
X112765428Y-98333222D01*
X112410768Y-98003784D01*
X111957035Y-97835146D01*
X111763000Y-97913653D01*
X111757000Y-97913653D01*
X111562965Y-97835146D01*
X111109232Y-98003784D01*
X110754572Y-98333222D01*
X110552980Y-98773305D01*
X110535147Y-98862965D01*
X110444853Y-98862965D01*
X110427020Y-98773305D01*
X110225428Y-98333222D01*
X109870768Y-98003784D01*
X109417035Y-97835146D01*
X109223000Y-97913653D01*
X109217000Y-97913653D01*
X109022965Y-97835146D01*
X108569232Y-98003784D01*
X108214572Y-98333222D01*
X108012980Y-98773305D01*
X107995147Y-98862965D01*
X105862000Y-98862965D01*
X105862000Y-97289073D01*
X114257883Y-97289073D01*
X114360733Y-97537989D01*
X114551010Y-97728598D01*
X114799746Y-97831882D01*
X115069073Y-97832117D01*
X115317989Y-97729267D01*
X115390382Y-97657000D01*
X118924537Y-97657000D01*
X118996010Y-97728598D01*
X119244746Y-97831882D01*
X119514073Y-97832117D01*
X119762989Y-97729267D01*
X119953598Y-97538990D01*
X120056882Y-97290254D01*
X120057117Y-97020927D01*
X119954267Y-96772011D01*
X119763990Y-96581402D01*
X119515254Y-96478118D01*
X119245927Y-96477883D01*
X118997011Y-96580733D01*
X118924618Y-96653000D01*
X115390463Y-96653000D01*
X115318990Y-96581402D01*
X115070254Y-96478118D01*
X114800927Y-96477883D01*
X114552011Y-96580733D01*
X114361402Y-96771010D01*
X114258118Y-97019746D01*
X114257883Y-97289073D01*
X105862000Y-97289073D01*
X105862000Y-93116400D01*
X107972015Y-93116400D01*
X107972015Y-94843600D01*
X107998303Y-94983308D01*
X108080870Y-95111620D01*
X108206853Y-95197701D01*
X108356400Y-95227985D01*
X110083600Y-95227985D01*
X110223308Y-95201697D01*
X110351620Y-95119130D01*
X110437701Y-94993147D01*
X110467985Y-94843600D01*
X110467985Y-93441950D01*
X110844965Y-93064970D01*
X110844968Y-93064968D01*
X110939304Y-92923784D01*
X110953788Y-92902108D01*
X110992000Y-92710000D01*
X110992000Y-92414532D01*
X111285243Y-92610470D01*
X111760000Y-92704905D01*
X112234757Y-92610470D01*
X112637237Y-92341542D01*
X112906165Y-91939062D01*
X113000600Y-91464305D01*
X113000600Y-91415695D01*
X112916590Y-90993346D01*
X113237935Y-90672000D01*
X113352679Y-90672000D01*
X113243784Y-90789232D01*
X113075146Y-91242965D01*
X113153653Y-91437000D01*
X114297000Y-91437000D01*
X114297000Y-91417000D01*
X114303000Y-91417000D01*
X114303000Y-91437000D01*
X114323000Y-91437000D01*
X114323000Y-91443000D01*
X114303000Y-91443000D01*
X114303000Y-91463000D01*
X114297000Y-91463000D01*
X114297000Y-91443000D01*
X113153653Y-91443000D01*
X113075146Y-91637035D01*
X113243784Y-92090768D01*
X113352679Y-92208000D01*
X113030000Y-92208000D01*
X112837892Y-92246212D01*
X112772660Y-92289800D01*
X112675032Y-92355032D01*
X112675030Y-92355035D01*
X112222894Y-92807170D01*
X111760000Y-92715095D01*
X111285243Y-92809530D01*
X110882763Y-93078458D01*
X110613835Y-93480938D01*
X110519400Y-93955695D01*
X110519400Y-94004305D01*
X110613835Y-94479062D01*
X110882763Y-94881542D01*
X111285243Y-95150470D01*
X111760000Y-95244905D01*
X112234757Y-95150470D01*
X112637237Y-94881542D01*
X112906165Y-94479062D01*
X113000600Y-94004305D01*
X113000600Y-93955695D01*
X112916590Y-93533346D01*
X113237935Y-93212000D01*
X113333533Y-93212000D01*
X113153835Y-93480938D01*
X113059400Y-93955695D01*
X113059400Y-94004305D01*
X113153835Y-94479062D01*
X113422763Y-94881542D01*
X113825243Y-95150470D01*
X114300000Y-95244905D01*
X114774757Y-95150470D01*
X115177237Y-94881542D01*
X115446165Y-94479062D01*
X115506241Y-94177035D01*
X137205147Y-94177035D01*
X137222980Y-94266695D01*
X137424572Y-94706778D01*
X137779232Y-95036216D01*
X138232965Y-95204854D01*
X138427000Y-95126347D01*
X138427000Y-93983000D01*
X138433000Y-93983000D01*
X138433000Y-95126347D01*
X138627035Y-95204854D01*
X139080768Y-95036216D01*
X139435428Y-94706778D01*
X139637020Y-94266695D01*
X139654853Y-94177035D01*
X139745147Y-94177035D01*
X139762980Y-94266695D01*
X139964572Y-94706778D01*
X140319232Y-95036216D01*
X140772965Y-95204854D01*
X140967000Y-95126347D01*
X140967000Y-93983000D01*
X140973000Y-93983000D01*
X140973000Y-95126347D01*
X141167035Y-95204854D01*
X141620768Y-95036216D01*
X141975428Y-94706778D01*
X142177020Y-94266695D01*
X142194853Y-94177035D01*
X142116346Y-93983000D01*
X140973000Y-93983000D01*
X140967000Y-93983000D01*
X139823654Y-93983000D01*
X139745147Y-94177035D01*
X139654853Y-94177035D01*
X139576346Y-93983000D01*
X138433000Y-93983000D01*
X138427000Y-93983000D01*
X137283654Y-93983000D01*
X137205147Y-94177035D01*
X115506241Y-94177035D01*
X115520728Y-94104208D01*
X117682935Y-91942000D01*
X119807064Y-91942000D01*
X121565030Y-93699965D01*
X121565032Y-93699968D01*
X121727893Y-93808788D01*
X121920000Y-93847001D01*
X121920005Y-93847000D01*
X124004537Y-93847000D01*
X124076010Y-93918598D01*
X124324746Y-94021882D01*
X124594073Y-94022117D01*
X124842989Y-93919267D01*
X124979528Y-93782965D01*
X137205147Y-93782965D01*
X137283654Y-93977000D01*
X138427000Y-93977000D01*
X138427000Y-92833653D01*
X138433000Y-92833653D01*
X138433000Y-93977000D01*
X139576346Y-93977000D01*
X139654853Y-93782965D01*
X139745147Y-93782965D01*
X139823654Y-93977000D01*
X140967000Y-93977000D01*
X140967000Y-92833653D01*
X140973000Y-92833653D01*
X140973000Y-93977000D01*
X142116346Y-93977000D01*
X142194853Y-93782965D01*
X142177020Y-93693305D01*
X141975428Y-93253222D01*
X141620768Y-92923784D01*
X141167035Y-92755146D01*
X140973000Y-92833653D01*
X140967000Y-92833653D01*
X140772965Y-92755146D01*
X140319232Y-92923784D01*
X139964572Y-93253222D01*
X139762980Y-93693305D01*
X139745147Y-93782965D01*
X139654853Y-93782965D01*
X139637020Y-93693305D01*
X139435428Y-93253222D01*
X139080768Y-92923784D01*
X138627035Y-92755146D01*
X138433000Y-92833653D01*
X138427000Y-92833653D01*
X138232965Y-92755146D01*
X137779232Y-92923784D01*
X137424572Y-93253222D01*
X137222980Y-93693305D01*
X137205147Y-93782965D01*
X124979528Y-93782965D01*
X125033598Y-93728990D01*
X125136882Y-93480254D01*
X125137117Y-93210927D01*
X125034267Y-92962011D01*
X124843990Y-92771402D01*
X124595254Y-92668118D01*
X124325927Y-92667883D01*
X124077011Y-92770733D01*
X124004618Y-92843000D01*
X122127935Y-92843000D01*
X120591936Y-91307000D01*
X120627062Y-91307000D01*
X121750028Y-92429965D01*
X121750030Y-92429968D01*
X121793465Y-92458990D01*
X121912890Y-92538788D01*
X122104998Y-92577000D01*
X125094995Y-92577000D01*
X125095000Y-92577001D01*
X125287107Y-92538788D01*
X125449968Y-92429968D01*
X125687898Y-92192038D01*
X125687883Y-92209073D01*
X125790733Y-92457989D01*
X125981010Y-92648598D01*
X126229746Y-92751882D01*
X126499073Y-92752117D01*
X126747989Y-92649267D01*
X126938598Y-92458990D01*
X127041882Y-92210254D01*
X127042117Y-91940927D01*
X126939267Y-91692011D01*
X126748990Y-91501402D01*
X126601118Y-91440000D01*
X137165095Y-91440000D01*
X137259530Y-91914757D01*
X137528458Y-92317237D01*
X137930938Y-92586165D01*
X138405695Y-92680600D01*
X138454305Y-92680600D01*
X138929062Y-92586165D01*
X139331542Y-92317237D01*
X139600470Y-91914757D01*
X139694905Y-91440000D01*
X139705095Y-91440000D01*
X139799530Y-91914757D01*
X140068458Y-92317237D01*
X140470938Y-92586165D01*
X140945695Y-92680600D01*
X140994305Y-92680600D01*
X141469062Y-92586165D01*
X141871542Y-92317237D01*
X142140470Y-91914757D01*
X142234905Y-91440000D01*
X142140470Y-90965243D01*
X141871542Y-90562763D01*
X141469062Y-90293835D01*
X140994305Y-90199400D01*
X140945695Y-90199400D01*
X140470938Y-90293835D01*
X140068458Y-90562763D01*
X139799530Y-90965243D01*
X139705095Y-91440000D01*
X139694905Y-91440000D01*
X139600470Y-90965243D01*
X139331542Y-90562763D01*
X138929062Y-90293835D01*
X138454305Y-90199400D01*
X138405695Y-90199400D01*
X137930938Y-90293835D01*
X137528458Y-90562763D01*
X137259530Y-90965243D01*
X137165095Y-91440000D01*
X126601118Y-91440000D01*
X126500254Y-91398118D01*
X126397964Y-91398029D01*
X126232000Y-91232064D01*
X126232000Y-88720463D01*
X126303598Y-88648990D01*
X126406882Y-88400254D01*
X126407117Y-88130927D01*
X126368060Y-88036400D01*
X137182015Y-88036400D01*
X137182015Y-89763600D01*
X137208303Y-89903308D01*
X137290870Y-90031620D01*
X137416853Y-90117701D01*
X137566400Y-90147985D01*
X139293600Y-90147985D01*
X139433308Y-90121697D01*
X139561620Y-90039130D01*
X139647701Y-89913147D01*
X139677985Y-89763600D01*
X139677985Y-88900000D01*
X139705095Y-88900000D01*
X139799530Y-89374757D01*
X140068458Y-89777237D01*
X140470938Y-90046165D01*
X140945695Y-90140600D01*
X140994305Y-90140600D01*
X141469062Y-90046165D01*
X141871542Y-89777237D01*
X142140470Y-89374757D01*
X142234905Y-88900000D01*
X142140470Y-88425243D01*
X141871542Y-88022763D01*
X141469062Y-87753835D01*
X140994305Y-87659400D01*
X140945695Y-87659400D01*
X140470938Y-87753835D01*
X140068458Y-88022763D01*
X139799530Y-88425243D01*
X139705095Y-88900000D01*
X139677985Y-88900000D01*
X139677985Y-88036400D01*
X139651697Y-87896692D01*
X139569130Y-87768380D01*
X139443147Y-87682299D01*
X139293600Y-87652015D01*
X137566400Y-87652015D01*
X137426692Y-87678303D01*
X137298380Y-87760870D01*
X137212299Y-87886853D01*
X137182015Y-88036400D01*
X126368060Y-88036400D01*
X126304267Y-87882011D01*
X126113990Y-87691402D01*
X125865254Y-87588118D01*
X125595927Y-87587883D01*
X125347011Y-87690733D01*
X125156402Y-87881010D01*
X125053118Y-88129746D01*
X125052883Y-88399073D01*
X125155733Y-88647989D01*
X125228000Y-88720382D01*
X125228000Y-91232065D01*
X125137102Y-91322962D01*
X125137117Y-91305927D01*
X125034267Y-91057011D01*
X124843990Y-90866402D01*
X124595254Y-90763118D01*
X124325927Y-90762883D01*
X124077011Y-90865733D01*
X124004618Y-90938000D01*
X123866884Y-90938000D01*
X123867117Y-90670927D01*
X123764267Y-90422011D01*
X123573990Y-90231402D01*
X123325254Y-90128118D01*
X123222964Y-90128029D01*
X122274968Y-89180032D01*
X122112107Y-89071212D01*
X121920000Y-89032999D01*
X121919995Y-89033000D01*
X111760000Y-89033000D01*
X111567892Y-89071212D01*
X111502660Y-89114800D01*
X111405032Y-89180032D01*
X111405030Y-89180035D01*
X110135032Y-90450032D01*
X110082519Y-90528624D01*
X109694757Y-90269530D01*
X109220000Y-90175095D01*
X108745243Y-90269530D01*
X108342763Y-90538458D01*
X108073835Y-90940938D01*
X107979400Y-91415695D01*
X107979400Y-91464305D01*
X108073835Y-91939062D01*
X108342763Y-92341542D01*
X108745243Y-92610470D01*
X109220000Y-92704905D01*
X109694757Y-92610470D01*
X109988000Y-92414532D01*
X109988000Y-92502065D01*
X109758050Y-92732015D01*
X108356400Y-92732015D01*
X108216692Y-92758303D01*
X108088380Y-92840870D01*
X108002299Y-92966853D01*
X107972015Y-93116400D01*
X105862000Y-93116400D01*
X105862000Y-86812000D01*
X144328000Y-86812000D01*
X144328000Y-116388000D01*
M02*
