G04 #@! TF.FileFunction,Soldermask,Top*
%FSLAX46Y46*%
G04 Gerber Fmt 4.6, Leading zero omitted, Abs format (unit mm)*
G04 Created by KiCad (PCBNEW 4.0.2-stable) date 4/28/2016 9:51:21 AM*
%MOMM*%
G01*
G04 APERTURE LIST*
%ADD10C,0.100000*%
%ADD11R,1.600000X1.150000*%
%ADD12R,2.000000X2.400000*%
%ADD13R,3.999180X2.000200*%
%ADD14R,1.650000X1.900000*%
%ADD15R,2.127200X2.127200*%
%ADD16O,2.127200X2.127200*%
%ADD17R,1.600000X1.300000*%
%ADD18R,1.000000X1.950000*%
G04 APERTURE END LIST*
D10*
D11*
X119065000Y-89535000D03*
X120965000Y-89535000D03*
X119065000Y-107950000D03*
X120965000Y-107950000D03*
D12*
X115570000Y-103600000D03*
X115570000Y-99600000D03*
X133350000Y-103600000D03*
X133350000Y-99600000D03*
D13*
X129115820Y-101600000D03*
X123614180Y-101600000D03*
D14*
X119380000Y-102850000D03*
X119380000Y-100350000D03*
D15*
X111760000Y-104140000D03*
D16*
X109220000Y-104140000D03*
X111760000Y-101600000D03*
X109220000Y-101600000D03*
X111760000Y-99060000D03*
X109220000Y-99060000D03*
D15*
X138430000Y-88900000D03*
D16*
X140970000Y-88900000D03*
X138430000Y-91440000D03*
X140970000Y-91440000D03*
X138430000Y-93980000D03*
X140970000Y-93980000D03*
D15*
X138430000Y-99060000D03*
D16*
X140970000Y-99060000D03*
X138430000Y-101600000D03*
X140970000Y-101600000D03*
X138430000Y-104140000D03*
X140970000Y-104140000D03*
D15*
X138430000Y-109220000D03*
D16*
X140970000Y-109220000D03*
X138430000Y-111760000D03*
X140970000Y-111760000D03*
X138430000Y-114300000D03*
X140970000Y-114300000D03*
D15*
X109220000Y-93980000D03*
D16*
X109220000Y-91440000D03*
X111760000Y-93980000D03*
X111760000Y-91440000D03*
X114300000Y-93980000D03*
X114300000Y-91440000D03*
D15*
X114300000Y-109220000D03*
D16*
X114300000Y-111760000D03*
X111760000Y-109220000D03*
X111760000Y-111760000D03*
X109220000Y-109220000D03*
X109220000Y-111760000D03*
D17*
X118915000Y-113030000D03*
X121115000Y-113030000D03*
X132250000Y-107950000D03*
X134450000Y-107950000D03*
X132250000Y-110490000D03*
X134450000Y-110490000D03*
X132250000Y-113030000D03*
X134450000Y-113030000D03*
X134450000Y-90170000D03*
X132250000Y-90170000D03*
X134450000Y-92710000D03*
X132250000Y-92710000D03*
X134450000Y-95250000D03*
X132250000Y-95250000D03*
X121115000Y-94615000D03*
X118915000Y-94615000D03*
D18*
X124460000Y-94775000D03*
X125730000Y-94775000D03*
X127000000Y-94775000D03*
X128270000Y-94775000D03*
X128270000Y-89375000D03*
X127000000Y-89375000D03*
X125730000Y-89375000D03*
X124460000Y-89375000D03*
X124460000Y-113190000D03*
X125730000Y-113190000D03*
X127000000Y-113190000D03*
X128270000Y-113190000D03*
X128270000Y-107790000D03*
X127000000Y-107790000D03*
X125730000Y-107790000D03*
X124460000Y-107790000D03*
M02*
