G04 #@! TF.FileFunction,Copper,L1,Top,Signal*
%FSLAX46Y46*%
G04 Gerber Fmt 4.6, Leading zero omitted, Abs format (unit mm)*
G04 Created by KiCad (PCBNEW 4.0.2-stable) date 4/28/2016 9:51:21 AM*
%MOMM*%
G01*
G04 APERTURE LIST*
%ADD10C,0.100000*%
%ADD11R,1.200000X0.750000*%
%ADD12R,1.600000X2.000000*%
%ADD13R,3.599180X1.600200*%
%ADD14R,1.250000X1.500000*%
%ADD15R,1.727200X1.727200*%
%ADD16O,1.727200X1.727200*%
%ADD17R,1.200000X0.900000*%
%ADD18R,0.600000X1.550000*%
%ADD19C,0.600000*%
%ADD20C,0.550000*%
%ADD21C,0.600000*%
%ADD22C,0.250000*%
%ADD23C,0.254000*%
G04 APERTURE END LIST*
D10*
D11*
X119065000Y-89535000D03*
X120965000Y-89535000D03*
X119065000Y-107950000D03*
X120965000Y-107950000D03*
D12*
X115570000Y-103600000D03*
X115570000Y-99600000D03*
X133350000Y-103600000D03*
X133350000Y-99600000D03*
D13*
X129115820Y-101600000D03*
X123614180Y-101600000D03*
D14*
X119380000Y-102850000D03*
X119380000Y-100350000D03*
D15*
X111760000Y-104140000D03*
D16*
X109220000Y-104140000D03*
X111760000Y-101600000D03*
X109220000Y-101600000D03*
X111760000Y-99060000D03*
X109220000Y-99060000D03*
D15*
X138430000Y-88900000D03*
D16*
X140970000Y-88900000D03*
X138430000Y-91440000D03*
X140970000Y-91440000D03*
X138430000Y-93980000D03*
X140970000Y-93980000D03*
D15*
X138430000Y-99060000D03*
D16*
X140970000Y-99060000D03*
X138430000Y-101600000D03*
X140970000Y-101600000D03*
X138430000Y-104140000D03*
X140970000Y-104140000D03*
D15*
X138430000Y-109220000D03*
D16*
X140970000Y-109220000D03*
X138430000Y-111760000D03*
X140970000Y-111760000D03*
X138430000Y-114300000D03*
X140970000Y-114300000D03*
D15*
X109220000Y-93980000D03*
D16*
X109220000Y-91440000D03*
X111760000Y-93980000D03*
X111760000Y-91440000D03*
X114300000Y-93980000D03*
X114300000Y-91440000D03*
D15*
X114300000Y-109220000D03*
D16*
X114300000Y-111760000D03*
X111760000Y-109220000D03*
X111760000Y-111760000D03*
X109220000Y-109220000D03*
X109220000Y-111760000D03*
D17*
X118915000Y-113030000D03*
X121115000Y-113030000D03*
X132250000Y-107950000D03*
X134450000Y-107950000D03*
X132250000Y-110490000D03*
X134450000Y-110490000D03*
X132250000Y-113030000D03*
X134450000Y-113030000D03*
X134450000Y-90170000D03*
X132250000Y-90170000D03*
X134450000Y-92710000D03*
X132250000Y-92710000D03*
X134450000Y-95250000D03*
X132250000Y-95250000D03*
X121115000Y-94615000D03*
X118915000Y-94615000D03*
D18*
X124460000Y-94775000D03*
X125730000Y-94775000D03*
X127000000Y-94775000D03*
X128270000Y-94775000D03*
X128270000Y-89375000D03*
X127000000Y-89375000D03*
X125730000Y-89375000D03*
X124460000Y-89375000D03*
X124460000Y-113190000D03*
X125730000Y-113190000D03*
X127000000Y-113190000D03*
X128270000Y-113190000D03*
X128270000Y-107790000D03*
X127000000Y-107790000D03*
X125730000Y-107790000D03*
X124460000Y-107790000D03*
D19*
X123190000Y-89535000D03*
X128270000Y-93345000D03*
X116840000Y-94615000D03*
X118745000Y-93345000D03*
X116840000Y-99695000D03*
X115570000Y-101600000D03*
X134620000Y-97790000D03*
X126365000Y-101600000D03*
X121285000Y-101600000D03*
X122555000Y-107950000D03*
X128270000Y-111760000D03*
X118745000Y-111760000D03*
X114935000Y-97155000D03*
X119380000Y-97155000D03*
X135890000Y-100965000D03*
X135890000Y-104140000D03*
X136525000Y-103505000D03*
X136525000Y-95885000D03*
X137795000Y-97155000D03*
X137795000Y-106680000D03*
X135255000Y-100330000D03*
X123190000Y-90805000D03*
X126365000Y-92075000D03*
X125730000Y-88265000D03*
X124460000Y-91440000D03*
X124460000Y-93345000D03*
X123825000Y-109220000D03*
X129540000Y-108585000D03*
X125730000Y-106680000D03*
X124460000Y-109855000D03*
X124460000Y-112395000D03*
D20*
X119065000Y-89535000D02*
X111125000Y-89535000D01*
X111125000Y-89535000D02*
X109220000Y-91440000D01*
X119065000Y-107950000D02*
X118110000Y-107950000D01*
X118110000Y-107950000D02*
X114300000Y-111760000D01*
X119065000Y-89535000D02*
X120335000Y-88265000D01*
X123350000Y-88265000D02*
X124460000Y-89375000D01*
X120335000Y-88265000D02*
X123350000Y-88265000D01*
X120015000Y-93345000D02*
X120015000Y-90485000D01*
X120015000Y-95250000D02*
X120015000Y-93345000D01*
D21*
X119380000Y-102850000D02*
X118110000Y-101580000D01*
D20*
X118110000Y-97155000D02*
X118110000Y-101580000D01*
X118110000Y-97155000D02*
X120015000Y-95250000D01*
X120015000Y-90485000D02*
X119065000Y-89535000D01*
D21*
X124460000Y-107790000D02*
X123350000Y-106680000D01*
X123350000Y-106680000D02*
X119380000Y-106680000D01*
X119065000Y-107950000D02*
X119380000Y-107635000D01*
X119380000Y-107635000D02*
X119380000Y-106680000D01*
X119380000Y-106680000D02*
X119380000Y-102850000D01*
X119380000Y-102850000D02*
X118630000Y-103600000D01*
X118630000Y-103600000D02*
X115570000Y-103600000D01*
D22*
X120965000Y-89535000D02*
X123190000Y-89535000D01*
X128270000Y-94775000D02*
X128270000Y-93345000D01*
X118915000Y-94615000D02*
X116840000Y-94615000D01*
X118915000Y-94615000D02*
X118915000Y-93515000D01*
X118915000Y-93515000D02*
X118745000Y-93345000D01*
X115570000Y-99600000D02*
X116745000Y-99600000D01*
X116745000Y-99600000D02*
X116840000Y-99695000D01*
X115570000Y-99600000D02*
X115570000Y-101600000D01*
X133350000Y-99600000D02*
X134620000Y-97790000D01*
X133350000Y-99600000D02*
X132810000Y-99600000D01*
X132810000Y-99600000D02*
X132715000Y-99695000D01*
X123614180Y-101600000D02*
X126365000Y-101600000D01*
X123614180Y-101600000D02*
X121285000Y-101600000D01*
X120965000Y-107950000D02*
X122555000Y-107950000D01*
X128270000Y-113190000D02*
X128270000Y-111760000D01*
X118915000Y-113030000D02*
X118915000Y-111930000D01*
X118915000Y-111930000D02*
X118745000Y-111760000D01*
D20*
X129115820Y-101600000D02*
X127210820Y-99695000D01*
X120035000Y-99695000D02*
X119380000Y-100350000D01*
X127210820Y-99695000D02*
X120035000Y-99695000D01*
X133350000Y-103600000D02*
X131350000Y-101600000D01*
X131350000Y-101600000D02*
X129115820Y-101600000D01*
X138430000Y-101600000D02*
X137795000Y-102235000D01*
X134715000Y-102235000D02*
X133350000Y-103600000D01*
X137795000Y-102235000D02*
X134715000Y-102235000D01*
D22*
X121115000Y-113030000D02*
X121285000Y-113030000D01*
X121285000Y-113030000D02*
X123190000Y-114935000D01*
X125730000Y-114300000D02*
X125730000Y-113190000D01*
X125095000Y-114935000D02*
X125730000Y-114300000D01*
X123190000Y-114935000D02*
X125095000Y-114935000D01*
X111760000Y-104140000D02*
X111760000Y-106680000D01*
X119845000Y-114300000D02*
X121115000Y-113030000D01*
X114935000Y-114300000D02*
X119845000Y-114300000D01*
X113030000Y-112395000D02*
X114935000Y-114300000D01*
X113030000Y-107950000D02*
X113030000Y-112395000D01*
X111760000Y-106680000D02*
X113030000Y-107950000D01*
X121115000Y-94615000D02*
X121115000Y-95420000D01*
X110490000Y-102870000D02*
X109220000Y-104140000D01*
X112395000Y-102870000D02*
X110490000Y-102870000D01*
X113665000Y-101600000D02*
X112395000Y-102870000D01*
X113665000Y-98425000D02*
X113665000Y-101600000D01*
X114935000Y-97155000D02*
X113665000Y-98425000D01*
X114935000Y-97155000D02*
X114935000Y-97155000D01*
X121115000Y-95420000D02*
X119380000Y-97155000D01*
X121115000Y-94615000D02*
X123020000Y-96520000D01*
X125730000Y-95885000D02*
X125730000Y-94775000D01*
X125095000Y-96520000D02*
X125730000Y-95885000D01*
X123020000Y-96520000D02*
X125095000Y-96520000D01*
X134450000Y-107950000D02*
X135890000Y-106510000D01*
X137160000Y-90170000D02*
X138430000Y-88900000D01*
X137160000Y-97155000D02*
X137160000Y-90170000D01*
X137160000Y-99695000D02*
X137160000Y-97155000D01*
X135890000Y-100965000D02*
X137160000Y-99695000D01*
X135890000Y-106510000D02*
X135890000Y-104140000D01*
X134450000Y-90170000D02*
X136990000Y-87630000D01*
X139700000Y-87630000D02*
X140970000Y-88900000D01*
X136990000Y-87630000D02*
X139700000Y-87630000D01*
X134450000Y-110490000D02*
X135255000Y-110490000D01*
X136525000Y-109220000D02*
X136525000Y-103505000D01*
X135255000Y-110490000D02*
X136525000Y-109220000D01*
X140970000Y-99060000D02*
X139065000Y-97155000D01*
X136525000Y-94785000D02*
X134450000Y-92710000D01*
X136525000Y-95885000D02*
X136525000Y-94785000D01*
X139065000Y-97155000D02*
X137795000Y-97155000D01*
X134450000Y-113030000D02*
X134620000Y-113030000D01*
X134620000Y-113030000D02*
X138430000Y-109220000D01*
X134450000Y-95250000D02*
X135255000Y-96055000D01*
X138430000Y-106680000D02*
X140970000Y-109220000D01*
X137795000Y-106680000D02*
X138430000Y-106680000D01*
X135255000Y-96055000D02*
X135255000Y-100330000D01*
X127000000Y-89375000D02*
X127000000Y-88900000D01*
X127000000Y-88900000D02*
X127635000Y-88265000D01*
X133350000Y-91610000D02*
X132250000Y-92710000D01*
X133350000Y-89535000D02*
X133350000Y-91610000D01*
X132080000Y-88265000D02*
X133350000Y-89535000D01*
X127635000Y-88265000D02*
X132080000Y-88265000D01*
X127000000Y-89375000D02*
X127000000Y-90170000D01*
X126365000Y-90805000D02*
X123190000Y-90805000D01*
X127000000Y-90170000D02*
X126365000Y-90805000D01*
X129075000Y-92075000D02*
X132250000Y-95250000D01*
X126365000Y-92075000D02*
X129075000Y-92075000D01*
X125730000Y-89375000D02*
X125730000Y-88265000D01*
X128270000Y-89375000D02*
X131455000Y-89375000D01*
X131455000Y-89375000D02*
X132250000Y-90170000D01*
X128270000Y-89375000D02*
X128270000Y-90170000D01*
X127000000Y-91440000D02*
X124460000Y-91440000D01*
X128270000Y-90170000D02*
X127000000Y-91440000D01*
X124460000Y-93345000D02*
X124460000Y-94775000D01*
X127000000Y-107790000D02*
X127000000Y-107315000D01*
X127000000Y-107315000D02*
X127635000Y-106680000D01*
X133350000Y-109390000D02*
X132250000Y-110490000D01*
X133350000Y-107315000D02*
X133350000Y-109390000D01*
X132715000Y-106680000D02*
X133350000Y-107315000D01*
X127635000Y-106680000D02*
X132715000Y-106680000D01*
X127000000Y-107790000D02*
X127000000Y-108585000D01*
X126365000Y-109220000D02*
X123825000Y-109220000D01*
X127000000Y-108585000D02*
X126365000Y-109220000D01*
X130810000Y-111590000D02*
X132250000Y-113030000D01*
X130810000Y-109855000D02*
X130810000Y-111590000D01*
X129540000Y-108585000D02*
X130810000Y-109855000D01*
X125730000Y-107790000D02*
X125730000Y-106680000D01*
X128270000Y-107790000D02*
X128270000Y-108585000D01*
X127000000Y-109855000D02*
X124460000Y-109855000D01*
X128270000Y-108585000D02*
X127000000Y-109855000D01*
X128270000Y-107790000D02*
X128430000Y-107950000D01*
X128430000Y-107950000D02*
X132250000Y-107950000D01*
X124460000Y-112395000D02*
X124460000Y-113190000D01*
D23*
G36*
X144328000Y-87253000D02*
X140021995Y-87253000D01*
X139892107Y-87166212D01*
X139700000Y-87127999D01*
X139699995Y-87128000D01*
X136990000Y-87128000D01*
X136797893Y-87166212D01*
X136635032Y-87275032D01*
X136635030Y-87275035D01*
X134574449Y-89335615D01*
X133850000Y-89335615D01*
X133813513Y-89342481D01*
X133770200Y-89277660D01*
X133704968Y-89180032D01*
X133704965Y-89180030D01*
X132434968Y-87910032D01*
X132272107Y-87801212D01*
X132080000Y-87762999D01*
X132079995Y-87763000D01*
X127635005Y-87763000D01*
X127635000Y-87762999D01*
X127442893Y-87801212D01*
X127280032Y-87910032D01*
X127280030Y-87910035D01*
X126974450Y-88215615D01*
X126700000Y-88215615D01*
X126560292Y-88241903D01*
X126431980Y-88324470D01*
X126406916Y-88361152D01*
X126407117Y-88130927D01*
X126304267Y-87882011D01*
X126113990Y-87691402D01*
X125865254Y-87588118D01*
X125595927Y-87587883D01*
X125347011Y-87690733D01*
X125156402Y-87881010D01*
X125053118Y-88129746D01*
X125052918Y-88359002D01*
X125035530Y-88331980D01*
X124909547Y-88245899D01*
X124760000Y-88215615D01*
X124222683Y-88215615D01*
X123811034Y-87803966D01*
X123757775Y-87768380D01*
X123599510Y-87662631D01*
X123546140Y-87652015D01*
X123350000Y-87612999D01*
X123349995Y-87613000D01*
X120335000Y-87613000D01*
X120085490Y-87662631D01*
X119873966Y-87803966D01*
X119873964Y-87803969D01*
X118902317Y-88775615D01*
X118465000Y-88775615D01*
X118325292Y-88801903D01*
X118199264Y-88883000D01*
X111125005Y-88883000D01*
X111125000Y-88882999D01*
X110875491Y-88932630D01*
X110663966Y-89073966D01*
X109505957Y-90231975D01*
X109220000Y-90175095D01*
X108745243Y-90269530D01*
X108342763Y-90538458D01*
X108073835Y-90940938D01*
X107979400Y-91415695D01*
X107979400Y-91464305D01*
X108073835Y-91939062D01*
X108342763Y-92341542D01*
X108745243Y-92610470D01*
X109220000Y-92704905D01*
X109694757Y-92610470D01*
X110097237Y-92341542D01*
X110366165Y-91939062D01*
X110460600Y-91464305D01*
X110460600Y-91415695D01*
X110411785Y-91170283D01*
X110607058Y-90975010D01*
X110519400Y-91415695D01*
X110519400Y-91464305D01*
X110613835Y-91939062D01*
X110882763Y-92341542D01*
X111285243Y-92610470D01*
X111760000Y-92704905D01*
X112234757Y-92610470D01*
X112637237Y-92341542D01*
X112906165Y-91939062D01*
X112966241Y-91637035D01*
X113075146Y-91637035D01*
X113243784Y-92090768D01*
X113573222Y-92445428D01*
X114013305Y-92647020D01*
X114102965Y-92664853D01*
X114297000Y-92586346D01*
X114297000Y-91443000D01*
X114303000Y-91443000D01*
X114303000Y-92586346D01*
X114497035Y-92664853D01*
X114586695Y-92647020D01*
X115026778Y-92445428D01*
X115356216Y-92090768D01*
X115524854Y-91637035D01*
X115446347Y-91443000D01*
X114303000Y-91443000D01*
X114297000Y-91443000D01*
X113153653Y-91443000D01*
X113075146Y-91637035D01*
X112966241Y-91637035D01*
X113000600Y-91464305D01*
X113000600Y-91415695D01*
X112966242Y-91242965D01*
X113075146Y-91242965D01*
X113153653Y-91437000D01*
X114297000Y-91437000D01*
X114297000Y-90293654D01*
X114303000Y-90293654D01*
X114303000Y-91437000D01*
X115446347Y-91437000D01*
X115524854Y-91242965D01*
X115356216Y-90789232D01*
X115026778Y-90434572D01*
X114586695Y-90232980D01*
X114497035Y-90215147D01*
X114303000Y-90293654D01*
X114297000Y-90293654D01*
X114102965Y-90215147D01*
X114013305Y-90232980D01*
X113573222Y-90434572D01*
X113243784Y-90789232D01*
X113075146Y-91242965D01*
X112966242Y-91242965D01*
X112906165Y-90940938D01*
X112637237Y-90538458D01*
X112234757Y-90269530D01*
X111819851Y-90187000D01*
X118202613Y-90187000D01*
X118315453Y-90264101D01*
X118465000Y-90294385D01*
X118902317Y-90294385D01*
X119363000Y-90755068D01*
X119363000Y-93788000D01*
X119012250Y-93788000D01*
X118918000Y-93882250D01*
X118918000Y-94612000D01*
X118938000Y-94612000D01*
X118938000Y-94618000D01*
X118918000Y-94618000D01*
X118918000Y-94638000D01*
X118912000Y-94638000D01*
X118912000Y-94618000D01*
X118032250Y-94618000D01*
X117938000Y-94712250D01*
X117938000Y-95139990D01*
X117995395Y-95278553D01*
X118101447Y-95384605D01*
X118240010Y-95442000D01*
X118817750Y-95442000D01*
X118911998Y-95347752D01*
X118911998Y-95430934D01*
X117648966Y-96693966D01*
X117507631Y-96905490D01*
X117507631Y-96905491D01*
X117457999Y-97155000D01*
X117458000Y-97155005D01*
X117458000Y-101454318D01*
X117433000Y-101580000D01*
X117484534Y-101839076D01*
X117631289Y-102058711D01*
X118370615Y-102798037D01*
X118370615Y-102901963D01*
X118349578Y-102923000D01*
X116754385Y-102923000D01*
X116754385Y-102600000D01*
X116728097Y-102460292D01*
X116645530Y-102331980D01*
X116519547Y-102245899D01*
X116370000Y-102215615D01*
X114770000Y-102215615D01*
X114630292Y-102241903D01*
X114501980Y-102324470D01*
X114415899Y-102450453D01*
X114385615Y-102600000D01*
X114385615Y-104600000D01*
X114411903Y-104739708D01*
X114494470Y-104868020D01*
X114620453Y-104954101D01*
X114770000Y-104984385D01*
X116370000Y-104984385D01*
X116509708Y-104958097D01*
X116638020Y-104875530D01*
X116724101Y-104749547D01*
X116754385Y-104600000D01*
X116754385Y-104277000D01*
X118630000Y-104277000D01*
X118703000Y-104262479D01*
X118703000Y-107190615D01*
X118465000Y-107190615D01*
X118325292Y-107216903D01*
X118199264Y-107298000D01*
X118110005Y-107298000D01*
X118110000Y-107297999D01*
X117860491Y-107347630D01*
X117818146Y-107375924D01*
X117648966Y-107488966D01*
X117648964Y-107488969D01*
X115547985Y-109589947D01*
X115547985Y-108356400D01*
X115521697Y-108216692D01*
X115439130Y-108088380D01*
X115313147Y-108002299D01*
X115163600Y-107972015D01*
X113532000Y-107972015D01*
X113532000Y-107950000D01*
X113505545Y-107817001D01*
X113493788Y-107757892D01*
X113449041Y-107690924D01*
X113384968Y-107595032D01*
X113384965Y-107595030D01*
X112262000Y-106472064D01*
X112262000Y-105387985D01*
X112623600Y-105387985D01*
X112763308Y-105361697D01*
X112891620Y-105279130D01*
X112977701Y-105153147D01*
X113007985Y-105003600D01*
X113007985Y-103276400D01*
X112981697Y-103136692D01*
X112925530Y-103049406D01*
X114019965Y-101954970D01*
X114019968Y-101954968D01*
X114090433Y-101849509D01*
X114128788Y-101792108D01*
X114167000Y-101600000D01*
X114167000Y-99697250D01*
X114393000Y-99697250D01*
X114393000Y-100674990D01*
X114450395Y-100813553D01*
X114556447Y-100919605D01*
X114695010Y-100977000D01*
X115472750Y-100977000D01*
X115567000Y-100882750D01*
X115567000Y-99603000D01*
X115573000Y-99603000D01*
X115573000Y-100882750D01*
X115667250Y-100977000D01*
X116444990Y-100977000D01*
X116583553Y-100919605D01*
X116689605Y-100813553D01*
X116747000Y-100674990D01*
X116747000Y-99697250D01*
X116652750Y-99603000D01*
X115573000Y-99603000D01*
X115567000Y-99603000D01*
X114487250Y-99603000D01*
X114393000Y-99697250D01*
X114167000Y-99697250D01*
X114167000Y-98632936D01*
X114274926Y-98525010D01*
X114393000Y-98525010D01*
X114393000Y-99502750D01*
X114487250Y-99597000D01*
X115567000Y-99597000D01*
X115567000Y-98317250D01*
X115573000Y-98317250D01*
X115573000Y-99597000D01*
X116652750Y-99597000D01*
X116747000Y-99502750D01*
X116747000Y-98525010D01*
X116689605Y-98386447D01*
X116583553Y-98280395D01*
X116444990Y-98223000D01*
X115667250Y-98223000D01*
X115573000Y-98317250D01*
X115567000Y-98317250D01*
X115472750Y-98223000D01*
X114695010Y-98223000D01*
X114556447Y-98280395D01*
X114450395Y-98386447D01*
X114393000Y-98525010D01*
X114274926Y-98525010D01*
X114967907Y-97832029D01*
X115069073Y-97832117D01*
X115317989Y-97729267D01*
X115508598Y-97538990D01*
X115611882Y-97290254D01*
X115612117Y-97020927D01*
X115509267Y-96772011D01*
X115318990Y-96581402D01*
X115070254Y-96478118D01*
X114800927Y-96477883D01*
X114552011Y-96580733D01*
X114361402Y-96771010D01*
X114258118Y-97019746D01*
X114258029Y-97122036D01*
X113310032Y-98070032D01*
X113201212Y-98232893D01*
X113162999Y-98425000D01*
X113163000Y-98425005D01*
X113163000Y-101392065D01*
X113013318Y-101541747D01*
X112930470Y-101125243D01*
X112661542Y-100722763D01*
X112259062Y-100453835D01*
X111784305Y-100359400D01*
X111735695Y-100359400D01*
X111260938Y-100453835D01*
X110858458Y-100722763D01*
X110589530Y-101125243D01*
X110495095Y-101600000D01*
X110589530Y-102074757D01*
X110785468Y-102368000D01*
X110490000Y-102368000D01*
X110297892Y-102406212D01*
X110232660Y-102449800D01*
X110135032Y-102515032D01*
X110135030Y-102515035D01*
X109666654Y-102983410D01*
X109244305Y-102899400D01*
X109195695Y-102899400D01*
X108720938Y-102993835D01*
X108318458Y-103262763D01*
X108049530Y-103665243D01*
X107955095Y-104140000D01*
X108049530Y-104614757D01*
X108318458Y-105017237D01*
X108720938Y-105286165D01*
X109195695Y-105380600D01*
X109244305Y-105380600D01*
X109719062Y-105286165D01*
X110121542Y-105017237D01*
X110390470Y-104614757D01*
X110484905Y-104140000D01*
X110392830Y-103677106D01*
X110512015Y-103557920D01*
X110512015Y-105003600D01*
X110538303Y-105143308D01*
X110620870Y-105271620D01*
X110746853Y-105357701D01*
X110896400Y-105387985D01*
X111258000Y-105387985D01*
X111258000Y-106679995D01*
X111257999Y-106680000D01*
X111296212Y-106872107D01*
X111405032Y-107034968D01*
X112528000Y-108157935D01*
X112528000Y-108245468D01*
X112234757Y-108049530D01*
X111760000Y-107955095D01*
X111285243Y-108049530D01*
X110882763Y-108318458D01*
X110613835Y-108720938D01*
X110519400Y-109195695D01*
X110519400Y-109244305D01*
X110613835Y-109719062D01*
X110882763Y-110121542D01*
X111285243Y-110390470D01*
X111760000Y-110484905D01*
X112234757Y-110390470D01*
X112528000Y-110194532D01*
X112528000Y-110785468D01*
X112234757Y-110589530D01*
X111760000Y-110495095D01*
X111285243Y-110589530D01*
X110882763Y-110858458D01*
X110613835Y-111260938D01*
X110519400Y-111735695D01*
X110519400Y-111784305D01*
X110613835Y-112259062D01*
X110882763Y-112661542D01*
X111285243Y-112930470D01*
X111760000Y-113024905D01*
X112234757Y-112930470D01*
X112622519Y-112671376D01*
X112675032Y-112749968D01*
X114580030Y-114654965D01*
X114580032Y-114654968D01*
X114742893Y-114763788D01*
X114935000Y-114802001D01*
X114935005Y-114802000D01*
X119844995Y-114802000D01*
X119845000Y-114802001D01*
X120037107Y-114763788D01*
X120199968Y-114654968D01*
X120990550Y-113864385D01*
X121409449Y-113864385D01*
X122835030Y-115289965D01*
X122835032Y-115289968D01*
X122997893Y-115398788D01*
X123190000Y-115437001D01*
X123190005Y-115437000D01*
X125094995Y-115437000D01*
X125095000Y-115437001D01*
X125287107Y-115398788D01*
X125449968Y-115289968D01*
X126084965Y-114654970D01*
X126084968Y-114654968D01*
X126193788Y-114492107D01*
X126205545Y-114433000D01*
X126232001Y-114300000D01*
X126232000Y-114299995D01*
X126232000Y-114283013D01*
X126298020Y-114240530D01*
X126365630Y-114141580D01*
X126424470Y-114233020D01*
X126550453Y-114319101D01*
X126700000Y-114349385D01*
X127300000Y-114349385D01*
X127439708Y-114323097D01*
X127568020Y-114240530D01*
X127635288Y-114142081D01*
X127650395Y-114178553D01*
X127756447Y-114284605D01*
X127895010Y-114342000D01*
X128172750Y-114342000D01*
X128267000Y-114247750D01*
X128267000Y-113193000D01*
X128273000Y-113193000D01*
X128273000Y-114247750D01*
X128367250Y-114342000D01*
X128644990Y-114342000D01*
X128783553Y-114284605D01*
X128889605Y-114178553D01*
X128947000Y-114039990D01*
X128947000Y-113287250D01*
X128852750Y-113193000D01*
X128273000Y-113193000D01*
X128267000Y-113193000D01*
X128247000Y-113193000D01*
X128247000Y-113187000D01*
X128267000Y-113187000D01*
X128267000Y-112132250D01*
X128273000Y-112132250D01*
X128273000Y-113187000D01*
X128852750Y-113187000D01*
X128947000Y-113092750D01*
X128947000Y-112340010D01*
X128889605Y-112201447D01*
X128783553Y-112095395D01*
X128644990Y-112038000D01*
X128367250Y-112038000D01*
X128273000Y-112132250D01*
X128267000Y-112132250D01*
X128172750Y-112038000D01*
X127895010Y-112038000D01*
X127756447Y-112095395D01*
X127650395Y-112201447D01*
X127634802Y-112239091D01*
X127575530Y-112146980D01*
X127449547Y-112060899D01*
X127300000Y-112030615D01*
X126700000Y-112030615D01*
X126560292Y-112056903D01*
X126431980Y-112139470D01*
X126364370Y-112238420D01*
X126305530Y-112146980D01*
X126179547Y-112060899D01*
X126030000Y-112030615D01*
X125430000Y-112030615D01*
X125290292Y-112056903D01*
X125161980Y-112139470D01*
X125115213Y-112207915D01*
X125034267Y-112012011D01*
X124843990Y-111821402D01*
X124595254Y-111718118D01*
X124325927Y-111717883D01*
X124077011Y-111820733D01*
X123886402Y-112011010D01*
X123783118Y-112259746D01*
X123783014Y-112378461D01*
X123775615Y-112415000D01*
X123775615Y-113965000D01*
X123801903Y-114104708D01*
X123884470Y-114233020D01*
X124010453Y-114319101D01*
X124160000Y-114349385D01*
X124760000Y-114349385D01*
X124899708Y-114323097D01*
X125028020Y-114240530D01*
X125095630Y-114141580D01*
X125128070Y-114191994D01*
X124887064Y-114433000D01*
X123397935Y-114433000D01*
X122099385Y-113134449D01*
X122099385Y-112580000D01*
X122073097Y-112440292D01*
X121990530Y-112311980D01*
X121864547Y-112225899D01*
X121715000Y-112195615D01*
X120515000Y-112195615D01*
X120375292Y-112221903D01*
X120246980Y-112304470D01*
X120160899Y-112430453D01*
X120130615Y-112580000D01*
X120130615Y-113304450D01*
X119892000Y-113543064D01*
X119892000Y-113127250D01*
X119797750Y-113033000D01*
X118918000Y-113033000D01*
X118918000Y-113053000D01*
X118912000Y-113053000D01*
X118912000Y-113033000D01*
X118032250Y-113033000D01*
X117938000Y-113127250D01*
X117938000Y-113554990D01*
X117995395Y-113693553D01*
X118099842Y-113798000D01*
X115142935Y-113798000D01*
X114358253Y-113013318D01*
X114774757Y-112930470D01*
X115177237Y-112661542D01*
X115281828Y-112505010D01*
X117938000Y-112505010D01*
X117938000Y-112932750D01*
X118032250Y-113027000D01*
X118912000Y-113027000D01*
X118912000Y-112297250D01*
X118918000Y-112297250D01*
X118918000Y-113027000D01*
X119797750Y-113027000D01*
X119892000Y-112932750D01*
X119892000Y-112505010D01*
X119834605Y-112366447D01*
X119728553Y-112260395D01*
X119589990Y-112203000D01*
X119012250Y-112203000D01*
X118918000Y-112297250D01*
X118912000Y-112297250D01*
X118817750Y-112203000D01*
X118240010Y-112203000D01*
X118101447Y-112260395D01*
X117995395Y-112366447D01*
X117938000Y-112505010D01*
X115281828Y-112505010D01*
X115446165Y-112259062D01*
X115540600Y-111784305D01*
X115540600Y-111735695D01*
X115491785Y-111490283D01*
X118308035Y-108674032D01*
X118315453Y-108679101D01*
X118465000Y-108709385D01*
X119665000Y-108709385D01*
X119804708Y-108683097D01*
X119933020Y-108600530D01*
X120018965Y-108474746D01*
X120045395Y-108538553D01*
X120151447Y-108644605D01*
X120290010Y-108702000D01*
X120867750Y-108702000D01*
X120962000Y-108607750D01*
X120962000Y-107953000D01*
X120968000Y-107953000D01*
X120968000Y-108607750D01*
X121062250Y-108702000D01*
X121639990Y-108702000D01*
X121778553Y-108644605D01*
X121884605Y-108538553D01*
X121942000Y-108399990D01*
X121942000Y-108047250D01*
X121847750Y-107953000D01*
X120968000Y-107953000D01*
X120962000Y-107953000D01*
X120942000Y-107953000D01*
X120942000Y-107947000D01*
X120962000Y-107947000D01*
X120962000Y-107927000D01*
X120968000Y-107927000D01*
X120968000Y-107947000D01*
X121847750Y-107947000D01*
X121942000Y-107852750D01*
X121942000Y-107500010D01*
X121884605Y-107361447D01*
X121880158Y-107357000D01*
X123069578Y-107357000D01*
X123775615Y-108063037D01*
X123775615Y-108542957D01*
X123690927Y-108542883D01*
X123442011Y-108645733D01*
X123251402Y-108836010D01*
X123148118Y-109084746D01*
X123147883Y-109354073D01*
X123250733Y-109602989D01*
X123441010Y-109793598D01*
X123689746Y-109896882D01*
X123782963Y-109896963D01*
X123782883Y-109989073D01*
X123885733Y-110237989D01*
X124076010Y-110428598D01*
X124324746Y-110531882D01*
X124594073Y-110532117D01*
X124842989Y-110429267D01*
X124915382Y-110357000D01*
X126999995Y-110357000D01*
X127000000Y-110357001D01*
X127192107Y-110318788D01*
X127354968Y-110209968D01*
X128624965Y-108939970D01*
X128624968Y-108939968D01*
X128625676Y-108938909D01*
X128709708Y-108923097D01*
X128838020Y-108840530D01*
X128884787Y-108772085D01*
X128965733Y-108967989D01*
X129156010Y-109158598D01*
X129404746Y-109261882D01*
X129507036Y-109261971D01*
X130308000Y-110062935D01*
X130308000Y-111589995D01*
X130307999Y-111590000D01*
X130346212Y-111782107D01*
X130455032Y-111944968D01*
X131265615Y-112755550D01*
X131265615Y-113480000D01*
X131291903Y-113619708D01*
X131374470Y-113748020D01*
X131500453Y-113834101D01*
X131650000Y-113864385D01*
X132850000Y-113864385D01*
X132989708Y-113838097D01*
X133118020Y-113755530D01*
X133204101Y-113629547D01*
X133234385Y-113480000D01*
X133234385Y-112580000D01*
X133208097Y-112440292D01*
X133125530Y-112311980D01*
X132999547Y-112225899D01*
X132850000Y-112195615D01*
X132125550Y-112195615D01*
X131312000Y-111382064D01*
X131312000Y-111110939D01*
X131374470Y-111208020D01*
X131500453Y-111294101D01*
X131650000Y-111324385D01*
X132850000Y-111324385D01*
X132989708Y-111298097D01*
X133118020Y-111215530D01*
X133204101Y-111089547D01*
X133234385Y-110940000D01*
X133234385Y-110215551D01*
X133479753Y-109970183D01*
X133465615Y-110040000D01*
X133465615Y-110940000D01*
X133491903Y-111079708D01*
X133574470Y-111208020D01*
X133700453Y-111294101D01*
X133850000Y-111324385D01*
X135050000Y-111324385D01*
X135189708Y-111298097D01*
X135318020Y-111215530D01*
X135404101Y-111089547D01*
X135430942Y-110957004D01*
X135447107Y-110953788D01*
X135609968Y-110844968D01*
X136783000Y-109671935D01*
X136783000Y-110157065D01*
X134744449Y-112195615D01*
X133850000Y-112195615D01*
X133710292Y-112221903D01*
X133581980Y-112304470D01*
X133495899Y-112430453D01*
X133465615Y-112580000D01*
X133465615Y-113480000D01*
X133491903Y-113619708D01*
X133574470Y-113748020D01*
X133700453Y-113834101D01*
X133850000Y-113864385D01*
X135050000Y-113864385D01*
X135189708Y-113838097D01*
X135318020Y-113755530D01*
X135404101Y-113629547D01*
X135434385Y-113480000D01*
X135434385Y-112925551D01*
X136783000Y-111576936D01*
X136783000Y-116205000D01*
X136808783Y-116342023D01*
X136838368Y-116388000D01*
X105862000Y-116388000D01*
X105862000Y-111957035D01*
X107995146Y-111957035D01*
X108163784Y-112410768D01*
X108493222Y-112765428D01*
X108933305Y-112967020D01*
X109022965Y-112984853D01*
X109217000Y-112906346D01*
X109217000Y-111763000D01*
X109223000Y-111763000D01*
X109223000Y-112906346D01*
X109417035Y-112984853D01*
X109506695Y-112967020D01*
X109946778Y-112765428D01*
X110276216Y-112410768D01*
X110444854Y-111957035D01*
X110366347Y-111763000D01*
X109223000Y-111763000D01*
X109217000Y-111763000D01*
X108073653Y-111763000D01*
X107995146Y-111957035D01*
X105862000Y-111957035D01*
X105862000Y-111562965D01*
X107995146Y-111562965D01*
X108073653Y-111757000D01*
X109217000Y-111757000D01*
X109217000Y-110613654D01*
X109223000Y-110613654D01*
X109223000Y-111757000D01*
X110366347Y-111757000D01*
X110444854Y-111562965D01*
X110276216Y-111109232D01*
X109946778Y-110754572D01*
X109506695Y-110552980D01*
X109417035Y-110535147D01*
X109223000Y-110613654D01*
X109217000Y-110613654D01*
X109022965Y-110535147D01*
X108933305Y-110552980D01*
X108493222Y-110754572D01*
X108163784Y-111109232D01*
X107995146Y-111562965D01*
X105862000Y-111562965D01*
X105862000Y-109195695D01*
X107979400Y-109195695D01*
X107979400Y-109244305D01*
X108073835Y-109719062D01*
X108342763Y-110121542D01*
X108745243Y-110390470D01*
X109220000Y-110484905D01*
X109694757Y-110390470D01*
X110097237Y-110121542D01*
X110366165Y-109719062D01*
X110460600Y-109244305D01*
X110460600Y-109195695D01*
X110366165Y-108720938D01*
X110097237Y-108318458D01*
X109694757Y-108049530D01*
X109220000Y-107955095D01*
X108745243Y-108049530D01*
X108342763Y-108318458D01*
X108073835Y-108720938D01*
X107979400Y-109195695D01*
X105862000Y-109195695D01*
X105862000Y-101600000D01*
X107955095Y-101600000D01*
X108049530Y-102074757D01*
X108318458Y-102477237D01*
X108720938Y-102746165D01*
X109195695Y-102840600D01*
X109244305Y-102840600D01*
X109719062Y-102746165D01*
X110121542Y-102477237D01*
X110390470Y-102074757D01*
X110484905Y-101600000D01*
X110390470Y-101125243D01*
X110121542Y-100722763D01*
X109719062Y-100453835D01*
X109244305Y-100359400D01*
X109195695Y-100359400D01*
X108720938Y-100453835D01*
X108318458Y-100722763D01*
X108049530Y-101125243D01*
X107955095Y-101600000D01*
X105862000Y-101600000D01*
X105862000Y-99257035D01*
X107995147Y-99257035D01*
X108012980Y-99346695D01*
X108214572Y-99786778D01*
X108569232Y-100116216D01*
X109022965Y-100284854D01*
X109217000Y-100206347D01*
X109217000Y-99063000D01*
X109223000Y-99063000D01*
X109223000Y-100206347D01*
X109417035Y-100284854D01*
X109870768Y-100116216D01*
X110225428Y-99786778D01*
X110427020Y-99346695D01*
X110444853Y-99257035D01*
X110535147Y-99257035D01*
X110552980Y-99346695D01*
X110754572Y-99786778D01*
X111109232Y-100116216D01*
X111562965Y-100284854D01*
X111757000Y-100206347D01*
X111757000Y-99063000D01*
X111763000Y-99063000D01*
X111763000Y-100206347D01*
X111957035Y-100284854D01*
X112410768Y-100116216D01*
X112765428Y-99786778D01*
X112967020Y-99346695D01*
X112984853Y-99257035D01*
X112906346Y-99063000D01*
X111763000Y-99063000D01*
X111757000Y-99063000D01*
X110613654Y-99063000D01*
X110535147Y-99257035D01*
X110444853Y-99257035D01*
X110366346Y-99063000D01*
X109223000Y-99063000D01*
X109217000Y-99063000D01*
X108073654Y-99063000D01*
X107995147Y-99257035D01*
X105862000Y-99257035D01*
X105862000Y-98862965D01*
X107995147Y-98862965D01*
X108073654Y-99057000D01*
X109217000Y-99057000D01*
X109217000Y-97913653D01*
X109223000Y-97913653D01*
X109223000Y-99057000D01*
X110366346Y-99057000D01*
X110444853Y-98862965D01*
X110535147Y-98862965D01*
X110613654Y-99057000D01*
X111757000Y-99057000D01*
X111757000Y-97913653D01*
X111763000Y-97913653D01*
X111763000Y-99057000D01*
X112906346Y-99057000D01*
X112984853Y-98862965D01*
X112967020Y-98773305D01*
X112765428Y-98333222D01*
X112410768Y-98003784D01*
X111957035Y-97835146D01*
X111763000Y-97913653D01*
X111757000Y-97913653D01*
X111562965Y-97835146D01*
X111109232Y-98003784D01*
X110754572Y-98333222D01*
X110552980Y-98773305D01*
X110535147Y-98862965D01*
X110444853Y-98862965D01*
X110427020Y-98773305D01*
X110225428Y-98333222D01*
X109870768Y-98003784D01*
X109417035Y-97835146D01*
X109223000Y-97913653D01*
X109217000Y-97913653D01*
X109022965Y-97835146D01*
X108569232Y-98003784D01*
X108214572Y-98333222D01*
X108012980Y-98773305D01*
X107995147Y-98862965D01*
X105862000Y-98862965D01*
X105862000Y-93116400D01*
X107972015Y-93116400D01*
X107972015Y-94843600D01*
X107998303Y-94983308D01*
X108080870Y-95111620D01*
X108206853Y-95197701D01*
X108356400Y-95227985D01*
X110083600Y-95227985D01*
X110223308Y-95201697D01*
X110351620Y-95119130D01*
X110437701Y-94993147D01*
X110467985Y-94843600D01*
X110467985Y-93955695D01*
X110519400Y-93955695D01*
X110519400Y-94004305D01*
X110613835Y-94479062D01*
X110882763Y-94881542D01*
X111285243Y-95150470D01*
X111760000Y-95244905D01*
X112234757Y-95150470D01*
X112637237Y-94881542D01*
X112906165Y-94479062D01*
X113000600Y-94004305D01*
X113000600Y-93955695D01*
X113059400Y-93955695D01*
X113059400Y-94004305D01*
X113153835Y-94479062D01*
X113422763Y-94881542D01*
X113825243Y-95150470D01*
X114300000Y-95244905D01*
X114774757Y-95150470D01*
X115177237Y-94881542D01*
X115446165Y-94479062D01*
X115523552Y-94090010D01*
X117938000Y-94090010D01*
X117938000Y-94517750D01*
X118032250Y-94612000D01*
X118912000Y-94612000D01*
X118912000Y-93882250D01*
X118817750Y-93788000D01*
X118240010Y-93788000D01*
X118101447Y-93845395D01*
X117995395Y-93951447D01*
X117938000Y-94090010D01*
X115523552Y-94090010D01*
X115540600Y-94004305D01*
X115540600Y-93955695D01*
X115446165Y-93480938D01*
X115177237Y-93078458D01*
X114774757Y-92809530D01*
X114300000Y-92715095D01*
X113825243Y-92809530D01*
X113422763Y-93078458D01*
X113153835Y-93480938D01*
X113059400Y-93955695D01*
X113000600Y-93955695D01*
X112906165Y-93480938D01*
X112637237Y-93078458D01*
X112234757Y-92809530D01*
X111760000Y-92715095D01*
X111285243Y-92809530D01*
X110882763Y-93078458D01*
X110613835Y-93480938D01*
X110519400Y-93955695D01*
X110467985Y-93955695D01*
X110467985Y-93116400D01*
X110441697Y-92976692D01*
X110359130Y-92848380D01*
X110233147Y-92762299D01*
X110083600Y-92732015D01*
X108356400Y-92732015D01*
X108216692Y-92758303D01*
X108088380Y-92840870D01*
X108002299Y-92966853D01*
X107972015Y-93116400D01*
X105862000Y-93116400D01*
X105862000Y-86812000D01*
X144328000Y-86812000D01*
X144328000Y-87253000D01*
X144328000Y-87253000D01*
G37*
X144328000Y-87253000D02*
X140021995Y-87253000D01*
X139892107Y-87166212D01*
X139700000Y-87127999D01*
X139699995Y-87128000D01*
X136990000Y-87128000D01*
X136797893Y-87166212D01*
X136635032Y-87275032D01*
X136635030Y-87275035D01*
X134574449Y-89335615D01*
X133850000Y-89335615D01*
X133813513Y-89342481D01*
X133770200Y-89277660D01*
X133704968Y-89180032D01*
X133704965Y-89180030D01*
X132434968Y-87910032D01*
X132272107Y-87801212D01*
X132080000Y-87762999D01*
X132079995Y-87763000D01*
X127635005Y-87763000D01*
X127635000Y-87762999D01*
X127442893Y-87801212D01*
X127280032Y-87910032D01*
X127280030Y-87910035D01*
X126974450Y-88215615D01*
X126700000Y-88215615D01*
X126560292Y-88241903D01*
X126431980Y-88324470D01*
X126406916Y-88361152D01*
X126407117Y-88130927D01*
X126304267Y-87882011D01*
X126113990Y-87691402D01*
X125865254Y-87588118D01*
X125595927Y-87587883D01*
X125347011Y-87690733D01*
X125156402Y-87881010D01*
X125053118Y-88129746D01*
X125052918Y-88359002D01*
X125035530Y-88331980D01*
X124909547Y-88245899D01*
X124760000Y-88215615D01*
X124222683Y-88215615D01*
X123811034Y-87803966D01*
X123757775Y-87768380D01*
X123599510Y-87662631D01*
X123546140Y-87652015D01*
X123350000Y-87612999D01*
X123349995Y-87613000D01*
X120335000Y-87613000D01*
X120085490Y-87662631D01*
X119873966Y-87803966D01*
X119873964Y-87803969D01*
X118902317Y-88775615D01*
X118465000Y-88775615D01*
X118325292Y-88801903D01*
X118199264Y-88883000D01*
X111125005Y-88883000D01*
X111125000Y-88882999D01*
X110875491Y-88932630D01*
X110663966Y-89073966D01*
X109505957Y-90231975D01*
X109220000Y-90175095D01*
X108745243Y-90269530D01*
X108342763Y-90538458D01*
X108073835Y-90940938D01*
X107979400Y-91415695D01*
X107979400Y-91464305D01*
X108073835Y-91939062D01*
X108342763Y-92341542D01*
X108745243Y-92610470D01*
X109220000Y-92704905D01*
X109694757Y-92610470D01*
X110097237Y-92341542D01*
X110366165Y-91939062D01*
X110460600Y-91464305D01*
X110460600Y-91415695D01*
X110411785Y-91170283D01*
X110607058Y-90975010D01*
X110519400Y-91415695D01*
X110519400Y-91464305D01*
X110613835Y-91939062D01*
X110882763Y-92341542D01*
X111285243Y-92610470D01*
X111760000Y-92704905D01*
X112234757Y-92610470D01*
X112637237Y-92341542D01*
X112906165Y-91939062D01*
X112966241Y-91637035D01*
X113075146Y-91637035D01*
X113243784Y-92090768D01*
X113573222Y-92445428D01*
X114013305Y-92647020D01*
X114102965Y-92664853D01*
X114297000Y-92586346D01*
X114297000Y-91443000D01*
X114303000Y-91443000D01*
X114303000Y-92586346D01*
X114497035Y-92664853D01*
X114586695Y-92647020D01*
X115026778Y-92445428D01*
X115356216Y-92090768D01*
X115524854Y-91637035D01*
X115446347Y-91443000D01*
X114303000Y-91443000D01*
X114297000Y-91443000D01*
X113153653Y-91443000D01*
X113075146Y-91637035D01*
X112966241Y-91637035D01*
X113000600Y-91464305D01*
X113000600Y-91415695D01*
X112966242Y-91242965D01*
X113075146Y-91242965D01*
X113153653Y-91437000D01*
X114297000Y-91437000D01*
X114297000Y-90293654D01*
X114303000Y-90293654D01*
X114303000Y-91437000D01*
X115446347Y-91437000D01*
X115524854Y-91242965D01*
X115356216Y-90789232D01*
X115026778Y-90434572D01*
X114586695Y-90232980D01*
X114497035Y-90215147D01*
X114303000Y-90293654D01*
X114297000Y-90293654D01*
X114102965Y-90215147D01*
X114013305Y-90232980D01*
X113573222Y-90434572D01*
X113243784Y-90789232D01*
X113075146Y-91242965D01*
X112966242Y-91242965D01*
X112906165Y-90940938D01*
X112637237Y-90538458D01*
X112234757Y-90269530D01*
X111819851Y-90187000D01*
X118202613Y-90187000D01*
X118315453Y-90264101D01*
X118465000Y-90294385D01*
X118902317Y-90294385D01*
X119363000Y-90755068D01*
X119363000Y-93788000D01*
X119012250Y-93788000D01*
X118918000Y-93882250D01*
X118918000Y-94612000D01*
X118938000Y-94612000D01*
X118938000Y-94618000D01*
X118918000Y-94618000D01*
X118918000Y-94638000D01*
X118912000Y-94638000D01*
X118912000Y-94618000D01*
X118032250Y-94618000D01*
X117938000Y-94712250D01*
X117938000Y-95139990D01*
X117995395Y-95278553D01*
X118101447Y-95384605D01*
X118240010Y-95442000D01*
X118817750Y-95442000D01*
X118911998Y-95347752D01*
X118911998Y-95430934D01*
X117648966Y-96693966D01*
X117507631Y-96905490D01*
X117507631Y-96905491D01*
X117457999Y-97155000D01*
X117458000Y-97155005D01*
X117458000Y-101454318D01*
X117433000Y-101580000D01*
X117484534Y-101839076D01*
X117631289Y-102058711D01*
X118370615Y-102798037D01*
X118370615Y-102901963D01*
X118349578Y-102923000D01*
X116754385Y-102923000D01*
X116754385Y-102600000D01*
X116728097Y-102460292D01*
X116645530Y-102331980D01*
X116519547Y-102245899D01*
X116370000Y-102215615D01*
X114770000Y-102215615D01*
X114630292Y-102241903D01*
X114501980Y-102324470D01*
X114415899Y-102450453D01*
X114385615Y-102600000D01*
X114385615Y-104600000D01*
X114411903Y-104739708D01*
X114494470Y-104868020D01*
X114620453Y-104954101D01*
X114770000Y-104984385D01*
X116370000Y-104984385D01*
X116509708Y-104958097D01*
X116638020Y-104875530D01*
X116724101Y-104749547D01*
X116754385Y-104600000D01*
X116754385Y-104277000D01*
X118630000Y-104277000D01*
X118703000Y-104262479D01*
X118703000Y-107190615D01*
X118465000Y-107190615D01*
X118325292Y-107216903D01*
X118199264Y-107298000D01*
X118110005Y-107298000D01*
X118110000Y-107297999D01*
X117860491Y-107347630D01*
X117818146Y-107375924D01*
X117648966Y-107488966D01*
X117648964Y-107488969D01*
X115547985Y-109589947D01*
X115547985Y-108356400D01*
X115521697Y-108216692D01*
X115439130Y-108088380D01*
X115313147Y-108002299D01*
X115163600Y-107972015D01*
X113532000Y-107972015D01*
X113532000Y-107950000D01*
X113505545Y-107817001D01*
X113493788Y-107757892D01*
X113449041Y-107690924D01*
X113384968Y-107595032D01*
X113384965Y-107595030D01*
X112262000Y-106472064D01*
X112262000Y-105387985D01*
X112623600Y-105387985D01*
X112763308Y-105361697D01*
X112891620Y-105279130D01*
X112977701Y-105153147D01*
X113007985Y-105003600D01*
X113007985Y-103276400D01*
X112981697Y-103136692D01*
X112925530Y-103049406D01*
X114019965Y-101954970D01*
X114019968Y-101954968D01*
X114090433Y-101849509D01*
X114128788Y-101792108D01*
X114167000Y-101600000D01*
X114167000Y-99697250D01*
X114393000Y-99697250D01*
X114393000Y-100674990D01*
X114450395Y-100813553D01*
X114556447Y-100919605D01*
X114695010Y-100977000D01*
X115472750Y-100977000D01*
X115567000Y-100882750D01*
X115567000Y-99603000D01*
X115573000Y-99603000D01*
X115573000Y-100882750D01*
X115667250Y-100977000D01*
X116444990Y-100977000D01*
X116583553Y-100919605D01*
X116689605Y-100813553D01*
X116747000Y-100674990D01*
X116747000Y-99697250D01*
X116652750Y-99603000D01*
X115573000Y-99603000D01*
X115567000Y-99603000D01*
X114487250Y-99603000D01*
X114393000Y-99697250D01*
X114167000Y-99697250D01*
X114167000Y-98632936D01*
X114274926Y-98525010D01*
X114393000Y-98525010D01*
X114393000Y-99502750D01*
X114487250Y-99597000D01*
X115567000Y-99597000D01*
X115567000Y-98317250D01*
X115573000Y-98317250D01*
X115573000Y-99597000D01*
X116652750Y-99597000D01*
X116747000Y-99502750D01*
X116747000Y-98525010D01*
X116689605Y-98386447D01*
X116583553Y-98280395D01*
X116444990Y-98223000D01*
X115667250Y-98223000D01*
X115573000Y-98317250D01*
X115567000Y-98317250D01*
X115472750Y-98223000D01*
X114695010Y-98223000D01*
X114556447Y-98280395D01*
X114450395Y-98386447D01*
X114393000Y-98525010D01*
X114274926Y-98525010D01*
X114967907Y-97832029D01*
X115069073Y-97832117D01*
X115317989Y-97729267D01*
X115508598Y-97538990D01*
X115611882Y-97290254D01*
X115612117Y-97020927D01*
X115509267Y-96772011D01*
X115318990Y-96581402D01*
X115070254Y-96478118D01*
X114800927Y-96477883D01*
X114552011Y-96580733D01*
X114361402Y-96771010D01*
X114258118Y-97019746D01*
X114258029Y-97122036D01*
X113310032Y-98070032D01*
X113201212Y-98232893D01*
X113162999Y-98425000D01*
X113163000Y-98425005D01*
X113163000Y-101392065D01*
X113013318Y-101541747D01*
X112930470Y-101125243D01*
X112661542Y-100722763D01*
X112259062Y-100453835D01*
X111784305Y-100359400D01*
X111735695Y-100359400D01*
X111260938Y-100453835D01*
X110858458Y-100722763D01*
X110589530Y-101125243D01*
X110495095Y-101600000D01*
X110589530Y-102074757D01*
X110785468Y-102368000D01*
X110490000Y-102368000D01*
X110297892Y-102406212D01*
X110232660Y-102449800D01*
X110135032Y-102515032D01*
X110135030Y-102515035D01*
X109666654Y-102983410D01*
X109244305Y-102899400D01*
X109195695Y-102899400D01*
X108720938Y-102993835D01*
X108318458Y-103262763D01*
X108049530Y-103665243D01*
X107955095Y-104140000D01*
X108049530Y-104614757D01*
X108318458Y-105017237D01*
X108720938Y-105286165D01*
X109195695Y-105380600D01*
X109244305Y-105380600D01*
X109719062Y-105286165D01*
X110121542Y-105017237D01*
X110390470Y-104614757D01*
X110484905Y-104140000D01*
X110392830Y-103677106D01*
X110512015Y-103557920D01*
X110512015Y-105003600D01*
X110538303Y-105143308D01*
X110620870Y-105271620D01*
X110746853Y-105357701D01*
X110896400Y-105387985D01*
X111258000Y-105387985D01*
X111258000Y-106679995D01*
X111257999Y-106680000D01*
X111296212Y-106872107D01*
X111405032Y-107034968D01*
X112528000Y-108157935D01*
X112528000Y-108245468D01*
X112234757Y-108049530D01*
X111760000Y-107955095D01*
X111285243Y-108049530D01*
X110882763Y-108318458D01*
X110613835Y-108720938D01*
X110519400Y-109195695D01*
X110519400Y-109244305D01*
X110613835Y-109719062D01*
X110882763Y-110121542D01*
X111285243Y-110390470D01*
X111760000Y-110484905D01*
X112234757Y-110390470D01*
X112528000Y-110194532D01*
X112528000Y-110785468D01*
X112234757Y-110589530D01*
X111760000Y-110495095D01*
X111285243Y-110589530D01*
X110882763Y-110858458D01*
X110613835Y-111260938D01*
X110519400Y-111735695D01*
X110519400Y-111784305D01*
X110613835Y-112259062D01*
X110882763Y-112661542D01*
X111285243Y-112930470D01*
X111760000Y-113024905D01*
X112234757Y-112930470D01*
X112622519Y-112671376D01*
X112675032Y-112749968D01*
X114580030Y-114654965D01*
X114580032Y-114654968D01*
X114742893Y-114763788D01*
X114935000Y-114802001D01*
X114935005Y-114802000D01*
X119844995Y-114802000D01*
X119845000Y-114802001D01*
X120037107Y-114763788D01*
X120199968Y-114654968D01*
X120990550Y-113864385D01*
X121409449Y-113864385D01*
X122835030Y-115289965D01*
X122835032Y-115289968D01*
X122997893Y-115398788D01*
X123190000Y-115437001D01*
X123190005Y-115437000D01*
X125094995Y-115437000D01*
X125095000Y-115437001D01*
X125287107Y-115398788D01*
X125449968Y-115289968D01*
X126084965Y-114654970D01*
X126084968Y-114654968D01*
X126193788Y-114492107D01*
X126205545Y-114433000D01*
X126232001Y-114300000D01*
X126232000Y-114299995D01*
X126232000Y-114283013D01*
X126298020Y-114240530D01*
X126365630Y-114141580D01*
X126424470Y-114233020D01*
X126550453Y-114319101D01*
X126700000Y-114349385D01*
X127300000Y-114349385D01*
X127439708Y-114323097D01*
X127568020Y-114240530D01*
X127635288Y-114142081D01*
X127650395Y-114178553D01*
X127756447Y-114284605D01*
X127895010Y-114342000D01*
X128172750Y-114342000D01*
X128267000Y-114247750D01*
X128267000Y-113193000D01*
X128273000Y-113193000D01*
X128273000Y-114247750D01*
X128367250Y-114342000D01*
X128644990Y-114342000D01*
X128783553Y-114284605D01*
X128889605Y-114178553D01*
X128947000Y-114039990D01*
X128947000Y-113287250D01*
X128852750Y-113193000D01*
X128273000Y-113193000D01*
X128267000Y-113193000D01*
X128247000Y-113193000D01*
X128247000Y-113187000D01*
X128267000Y-113187000D01*
X128267000Y-112132250D01*
X128273000Y-112132250D01*
X128273000Y-113187000D01*
X128852750Y-113187000D01*
X128947000Y-113092750D01*
X128947000Y-112340010D01*
X128889605Y-112201447D01*
X128783553Y-112095395D01*
X128644990Y-112038000D01*
X128367250Y-112038000D01*
X128273000Y-112132250D01*
X128267000Y-112132250D01*
X128172750Y-112038000D01*
X127895010Y-112038000D01*
X127756447Y-112095395D01*
X127650395Y-112201447D01*
X127634802Y-112239091D01*
X127575530Y-112146980D01*
X127449547Y-112060899D01*
X127300000Y-112030615D01*
X126700000Y-112030615D01*
X126560292Y-112056903D01*
X126431980Y-112139470D01*
X126364370Y-112238420D01*
X126305530Y-112146980D01*
X126179547Y-112060899D01*
X126030000Y-112030615D01*
X125430000Y-112030615D01*
X125290292Y-112056903D01*
X125161980Y-112139470D01*
X125115213Y-112207915D01*
X125034267Y-112012011D01*
X124843990Y-111821402D01*
X124595254Y-111718118D01*
X124325927Y-111717883D01*
X124077011Y-111820733D01*
X123886402Y-112011010D01*
X123783118Y-112259746D01*
X123783014Y-112378461D01*
X123775615Y-112415000D01*
X123775615Y-113965000D01*
X123801903Y-114104708D01*
X123884470Y-114233020D01*
X124010453Y-114319101D01*
X124160000Y-114349385D01*
X124760000Y-114349385D01*
X124899708Y-114323097D01*
X125028020Y-114240530D01*
X125095630Y-114141580D01*
X125128070Y-114191994D01*
X124887064Y-114433000D01*
X123397935Y-114433000D01*
X122099385Y-113134449D01*
X122099385Y-112580000D01*
X122073097Y-112440292D01*
X121990530Y-112311980D01*
X121864547Y-112225899D01*
X121715000Y-112195615D01*
X120515000Y-112195615D01*
X120375292Y-112221903D01*
X120246980Y-112304470D01*
X120160899Y-112430453D01*
X120130615Y-112580000D01*
X120130615Y-113304450D01*
X119892000Y-113543064D01*
X119892000Y-113127250D01*
X119797750Y-113033000D01*
X118918000Y-113033000D01*
X118918000Y-113053000D01*
X118912000Y-113053000D01*
X118912000Y-113033000D01*
X118032250Y-113033000D01*
X117938000Y-113127250D01*
X117938000Y-113554990D01*
X117995395Y-113693553D01*
X118099842Y-113798000D01*
X115142935Y-113798000D01*
X114358253Y-113013318D01*
X114774757Y-112930470D01*
X115177237Y-112661542D01*
X115281828Y-112505010D01*
X117938000Y-112505010D01*
X117938000Y-112932750D01*
X118032250Y-113027000D01*
X118912000Y-113027000D01*
X118912000Y-112297250D01*
X118918000Y-112297250D01*
X118918000Y-113027000D01*
X119797750Y-113027000D01*
X119892000Y-112932750D01*
X119892000Y-112505010D01*
X119834605Y-112366447D01*
X119728553Y-112260395D01*
X119589990Y-112203000D01*
X119012250Y-112203000D01*
X118918000Y-112297250D01*
X118912000Y-112297250D01*
X118817750Y-112203000D01*
X118240010Y-112203000D01*
X118101447Y-112260395D01*
X117995395Y-112366447D01*
X117938000Y-112505010D01*
X115281828Y-112505010D01*
X115446165Y-112259062D01*
X115540600Y-111784305D01*
X115540600Y-111735695D01*
X115491785Y-111490283D01*
X118308035Y-108674032D01*
X118315453Y-108679101D01*
X118465000Y-108709385D01*
X119665000Y-108709385D01*
X119804708Y-108683097D01*
X119933020Y-108600530D01*
X120018965Y-108474746D01*
X120045395Y-108538553D01*
X120151447Y-108644605D01*
X120290010Y-108702000D01*
X120867750Y-108702000D01*
X120962000Y-108607750D01*
X120962000Y-107953000D01*
X120968000Y-107953000D01*
X120968000Y-108607750D01*
X121062250Y-108702000D01*
X121639990Y-108702000D01*
X121778553Y-108644605D01*
X121884605Y-108538553D01*
X121942000Y-108399990D01*
X121942000Y-108047250D01*
X121847750Y-107953000D01*
X120968000Y-107953000D01*
X120962000Y-107953000D01*
X120942000Y-107953000D01*
X120942000Y-107947000D01*
X120962000Y-107947000D01*
X120962000Y-107927000D01*
X120968000Y-107927000D01*
X120968000Y-107947000D01*
X121847750Y-107947000D01*
X121942000Y-107852750D01*
X121942000Y-107500010D01*
X121884605Y-107361447D01*
X121880158Y-107357000D01*
X123069578Y-107357000D01*
X123775615Y-108063037D01*
X123775615Y-108542957D01*
X123690927Y-108542883D01*
X123442011Y-108645733D01*
X123251402Y-108836010D01*
X123148118Y-109084746D01*
X123147883Y-109354073D01*
X123250733Y-109602989D01*
X123441010Y-109793598D01*
X123689746Y-109896882D01*
X123782963Y-109896963D01*
X123782883Y-109989073D01*
X123885733Y-110237989D01*
X124076010Y-110428598D01*
X124324746Y-110531882D01*
X124594073Y-110532117D01*
X124842989Y-110429267D01*
X124915382Y-110357000D01*
X126999995Y-110357000D01*
X127000000Y-110357001D01*
X127192107Y-110318788D01*
X127354968Y-110209968D01*
X128624965Y-108939970D01*
X128624968Y-108939968D01*
X128625676Y-108938909D01*
X128709708Y-108923097D01*
X128838020Y-108840530D01*
X128884787Y-108772085D01*
X128965733Y-108967989D01*
X129156010Y-109158598D01*
X129404746Y-109261882D01*
X129507036Y-109261971D01*
X130308000Y-110062935D01*
X130308000Y-111589995D01*
X130307999Y-111590000D01*
X130346212Y-111782107D01*
X130455032Y-111944968D01*
X131265615Y-112755550D01*
X131265615Y-113480000D01*
X131291903Y-113619708D01*
X131374470Y-113748020D01*
X131500453Y-113834101D01*
X131650000Y-113864385D01*
X132850000Y-113864385D01*
X132989708Y-113838097D01*
X133118020Y-113755530D01*
X133204101Y-113629547D01*
X133234385Y-113480000D01*
X133234385Y-112580000D01*
X133208097Y-112440292D01*
X133125530Y-112311980D01*
X132999547Y-112225899D01*
X132850000Y-112195615D01*
X132125550Y-112195615D01*
X131312000Y-111382064D01*
X131312000Y-111110939D01*
X131374470Y-111208020D01*
X131500453Y-111294101D01*
X131650000Y-111324385D01*
X132850000Y-111324385D01*
X132989708Y-111298097D01*
X133118020Y-111215530D01*
X133204101Y-111089547D01*
X133234385Y-110940000D01*
X133234385Y-110215551D01*
X133479753Y-109970183D01*
X133465615Y-110040000D01*
X133465615Y-110940000D01*
X133491903Y-111079708D01*
X133574470Y-111208020D01*
X133700453Y-111294101D01*
X133850000Y-111324385D01*
X135050000Y-111324385D01*
X135189708Y-111298097D01*
X135318020Y-111215530D01*
X135404101Y-111089547D01*
X135430942Y-110957004D01*
X135447107Y-110953788D01*
X135609968Y-110844968D01*
X136783000Y-109671935D01*
X136783000Y-110157065D01*
X134744449Y-112195615D01*
X133850000Y-112195615D01*
X133710292Y-112221903D01*
X133581980Y-112304470D01*
X133495899Y-112430453D01*
X133465615Y-112580000D01*
X133465615Y-113480000D01*
X133491903Y-113619708D01*
X133574470Y-113748020D01*
X133700453Y-113834101D01*
X133850000Y-113864385D01*
X135050000Y-113864385D01*
X135189708Y-113838097D01*
X135318020Y-113755530D01*
X135404101Y-113629547D01*
X135434385Y-113480000D01*
X135434385Y-112925551D01*
X136783000Y-111576936D01*
X136783000Y-116205000D01*
X136808783Y-116342023D01*
X136838368Y-116388000D01*
X105862000Y-116388000D01*
X105862000Y-111957035D01*
X107995146Y-111957035D01*
X108163784Y-112410768D01*
X108493222Y-112765428D01*
X108933305Y-112967020D01*
X109022965Y-112984853D01*
X109217000Y-112906346D01*
X109217000Y-111763000D01*
X109223000Y-111763000D01*
X109223000Y-112906346D01*
X109417035Y-112984853D01*
X109506695Y-112967020D01*
X109946778Y-112765428D01*
X110276216Y-112410768D01*
X110444854Y-111957035D01*
X110366347Y-111763000D01*
X109223000Y-111763000D01*
X109217000Y-111763000D01*
X108073653Y-111763000D01*
X107995146Y-111957035D01*
X105862000Y-111957035D01*
X105862000Y-111562965D01*
X107995146Y-111562965D01*
X108073653Y-111757000D01*
X109217000Y-111757000D01*
X109217000Y-110613654D01*
X109223000Y-110613654D01*
X109223000Y-111757000D01*
X110366347Y-111757000D01*
X110444854Y-111562965D01*
X110276216Y-111109232D01*
X109946778Y-110754572D01*
X109506695Y-110552980D01*
X109417035Y-110535147D01*
X109223000Y-110613654D01*
X109217000Y-110613654D01*
X109022965Y-110535147D01*
X108933305Y-110552980D01*
X108493222Y-110754572D01*
X108163784Y-111109232D01*
X107995146Y-111562965D01*
X105862000Y-111562965D01*
X105862000Y-109195695D01*
X107979400Y-109195695D01*
X107979400Y-109244305D01*
X108073835Y-109719062D01*
X108342763Y-110121542D01*
X108745243Y-110390470D01*
X109220000Y-110484905D01*
X109694757Y-110390470D01*
X110097237Y-110121542D01*
X110366165Y-109719062D01*
X110460600Y-109244305D01*
X110460600Y-109195695D01*
X110366165Y-108720938D01*
X110097237Y-108318458D01*
X109694757Y-108049530D01*
X109220000Y-107955095D01*
X108745243Y-108049530D01*
X108342763Y-108318458D01*
X108073835Y-108720938D01*
X107979400Y-109195695D01*
X105862000Y-109195695D01*
X105862000Y-101600000D01*
X107955095Y-101600000D01*
X108049530Y-102074757D01*
X108318458Y-102477237D01*
X108720938Y-102746165D01*
X109195695Y-102840600D01*
X109244305Y-102840600D01*
X109719062Y-102746165D01*
X110121542Y-102477237D01*
X110390470Y-102074757D01*
X110484905Y-101600000D01*
X110390470Y-101125243D01*
X110121542Y-100722763D01*
X109719062Y-100453835D01*
X109244305Y-100359400D01*
X109195695Y-100359400D01*
X108720938Y-100453835D01*
X108318458Y-100722763D01*
X108049530Y-101125243D01*
X107955095Y-101600000D01*
X105862000Y-101600000D01*
X105862000Y-99257035D01*
X107995147Y-99257035D01*
X108012980Y-99346695D01*
X108214572Y-99786778D01*
X108569232Y-100116216D01*
X109022965Y-100284854D01*
X109217000Y-100206347D01*
X109217000Y-99063000D01*
X109223000Y-99063000D01*
X109223000Y-100206347D01*
X109417035Y-100284854D01*
X109870768Y-100116216D01*
X110225428Y-99786778D01*
X110427020Y-99346695D01*
X110444853Y-99257035D01*
X110535147Y-99257035D01*
X110552980Y-99346695D01*
X110754572Y-99786778D01*
X111109232Y-100116216D01*
X111562965Y-100284854D01*
X111757000Y-100206347D01*
X111757000Y-99063000D01*
X111763000Y-99063000D01*
X111763000Y-100206347D01*
X111957035Y-100284854D01*
X112410768Y-100116216D01*
X112765428Y-99786778D01*
X112967020Y-99346695D01*
X112984853Y-99257035D01*
X112906346Y-99063000D01*
X111763000Y-99063000D01*
X111757000Y-99063000D01*
X110613654Y-99063000D01*
X110535147Y-99257035D01*
X110444853Y-99257035D01*
X110366346Y-99063000D01*
X109223000Y-99063000D01*
X109217000Y-99063000D01*
X108073654Y-99063000D01*
X107995147Y-99257035D01*
X105862000Y-99257035D01*
X105862000Y-98862965D01*
X107995147Y-98862965D01*
X108073654Y-99057000D01*
X109217000Y-99057000D01*
X109217000Y-97913653D01*
X109223000Y-97913653D01*
X109223000Y-99057000D01*
X110366346Y-99057000D01*
X110444853Y-98862965D01*
X110535147Y-98862965D01*
X110613654Y-99057000D01*
X111757000Y-99057000D01*
X111757000Y-97913653D01*
X111763000Y-97913653D01*
X111763000Y-99057000D01*
X112906346Y-99057000D01*
X112984853Y-98862965D01*
X112967020Y-98773305D01*
X112765428Y-98333222D01*
X112410768Y-98003784D01*
X111957035Y-97835146D01*
X111763000Y-97913653D01*
X111757000Y-97913653D01*
X111562965Y-97835146D01*
X111109232Y-98003784D01*
X110754572Y-98333222D01*
X110552980Y-98773305D01*
X110535147Y-98862965D01*
X110444853Y-98862965D01*
X110427020Y-98773305D01*
X110225428Y-98333222D01*
X109870768Y-98003784D01*
X109417035Y-97835146D01*
X109223000Y-97913653D01*
X109217000Y-97913653D01*
X109022965Y-97835146D01*
X108569232Y-98003784D01*
X108214572Y-98333222D01*
X108012980Y-98773305D01*
X107995147Y-98862965D01*
X105862000Y-98862965D01*
X105862000Y-93116400D01*
X107972015Y-93116400D01*
X107972015Y-94843600D01*
X107998303Y-94983308D01*
X108080870Y-95111620D01*
X108206853Y-95197701D01*
X108356400Y-95227985D01*
X110083600Y-95227985D01*
X110223308Y-95201697D01*
X110351620Y-95119130D01*
X110437701Y-94993147D01*
X110467985Y-94843600D01*
X110467985Y-93955695D01*
X110519400Y-93955695D01*
X110519400Y-94004305D01*
X110613835Y-94479062D01*
X110882763Y-94881542D01*
X111285243Y-95150470D01*
X111760000Y-95244905D01*
X112234757Y-95150470D01*
X112637237Y-94881542D01*
X112906165Y-94479062D01*
X113000600Y-94004305D01*
X113000600Y-93955695D01*
X113059400Y-93955695D01*
X113059400Y-94004305D01*
X113153835Y-94479062D01*
X113422763Y-94881542D01*
X113825243Y-95150470D01*
X114300000Y-95244905D01*
X114774757Y-95150470D01*
X115177237Y-94881542D01*
X115446165Y-94479062D01*
X115523552Y-94090010D01*
X117938000Y-94090010D01*
X117938000Y-94517750D01*
X118032250Y-94612000D01*
X118912000Y-94612000D01*
X118912000Y-93882250D01*
X118817750Y-93788000D01*
X118240010Y-93788000D01*
X118101447Y-93845395D01*
X117995395Y-93951447D01*
X117938000Y-94090010D01*
X115523552Y-94090010D01*
X115540600Y-94004305D01*
X115540600Y-93955695D01*
X115446165Y-93480938D01*
X115177237Y-93078458D01*
X114774757Y-92809530D01*
X114300000Y-92715095D01*
X113825243Y-92809530D01*
X113422763Y-93078458D01*
X113153835Y-93480938D01*
X113059400Y-93955695D01*
X113000600Y-93955695D01*
X112906165Y-93480938D01*
X112637237Y-93078458D01*
X112234757Y-92809530D01*
X111760000Y-92715095D01*
X111285243Y-92809530D01*
X110882763Y-93078458D01*
X110613835Y-93480938D01*
X110519400Y-93955695D01*
X110467985Y-93955695D01*
X110467985Y-93116400D01*
X110441697Y-92976692D01*
X110359130Y-92848380D01*
X110233147Y-92762299D01*
X110083600Y-92732015D01*
X108356400Y-92732015D01*
X108216692Y-92758303D01*
X108088380Y-92840870D01*
X108002299Y-92966853D01*
X107972015Y-93116400D01*
X105862000Y-93116400D01*
X105862000Y-86812000D01*
X144328000Y-86812000D01*
X144328000Y-87253000D01*
G36*
X127090749Y-100496997D02*
X127048210Y-100524370D01*
X126962129Y-100650353D01*
X126931845Y-100799900D01*
X126931845Y-102400100D01*
X126958133Y-102539808D01*
X127040700Y-102668120D01*
X127166683Y-102754201D01*
X127316230Y-102784485D01*
X130915410Y-102784485D01*
X131055118Y-102758197D01*
X131183430Y-102675630D01*
X131269511Y-102549647D01*
X131287710Y-102459778D01*
X132165615Y-103337683D01*
X132165615Y-104600000D01*
X132191903Y-104739708D01*
X132274470Y-104868020D01*
X132400453Y-104954101D01*
X132550000Y-104984385D01*
X134150000Y-104984385D01*
X134289708Y-104958097D01*
X134418020Y-104875530D01*
X134504101Y-104749547D01*
X134534385Y-104600000D01*
X134534385Y-103337682D01*
X134985067Y-102887000D01*
X136247853Y-102887000D01*
X136142011Y-102930733D01*
X135951402Y-103121010D01*
X135848118Y-103369746D01*
X135848037Y-103462963D01*
X135755927Y-103462883D01*
X135507011Y-103565733D01*
X135316402Y-103756010D01*
X135213118Y-104004746D01*
X135212883Y-104274073D01*
X135315733Y-104522989D01*
X135388000Y-104595382D01*
X135388000Y-106302065D01*
X134574449Y-107115615D01*
X133850000Y-107115615D01*
X133813512Y-107122481D01*
X133774430Y-107063990D01*
X133704968Y-106960032D01*
X133704965Y-106960030D01*
X133069968Y-106325032D01*
X132907107Y-106216212D01*
X132715000Y-106177999D01*
X132714995Y-106178000D01*
X127635005Y-106178000D01*
X127635000Y-106177999D01*
X127442893Y-106216212D01*
X127280032Y-106325032D01*
X127280030Y-106325035D01*
X126974450Y-106630615D01*
X126700000Y-106630615D01*
X126560292Y-106656903D01*
X126431980Y-106739470D01*
X126406916Y-106776152D01*
X126407117Y-106545927D01*
X126304267Y-106297011D01*
X126113990Y-106106402D01*
X125865254Y-106003118D01*
X125595927Y-106002883D01*
X125347011Y-106105733D01*
X125156402Y-106296010D01*
X125053118Y-106544746D01*
X125052918Y-106774002D01*
X125035530Y-106746980D01*
X124909547Y-106660899D01*
X124760000Y-106630615D01*
X124258037Y-106630615D01*
X123828711Y-106201289D01*
X123609077Y-106054534D01*
X123350000Y-106003000D01*
X120057000Y-106003000D01*
X120057000Y-103974600D01*
X120144708Y-103958097D01*
X120273020Y-103875530D01*
X120359101Y-103749547D01*
X120389385Y-103600000D01*
X120389385Y-102100000D01*
X120363097Y-101960292D01*
X120280530Y-101831980D01*
X120154547Y-101745899D01*
X120005000Y-101715615D01*
X119203037Y-101715615D01*
X119184672Y-101697250D01*
X121437590Y-101697250D01*
X121437590Y-102475090D01*
X121494985Y-102613653D01*
X121601037Y-102719705D01*
X121739600Y-102777100D01*
X123516930Y-102777100D01*
X123611180Y-102682850D01*
X123611180Y-101603000D01*
X123617180Y-101603000D01*
X123617180Y-102682850D01*
X123711430Y-102777100D01*
X125488760Y-102777100D01*
X125627323Y-102719705D01*
X125733375Y-102613653D01*
X125790770Y-102475090D01*
X125790770Y-101697250D01*
X125696520Y-101603000D01*
X123617180Y-101603000D01*
X123611180Y-101603000D01*
X121531840Y-101603000D01*
X121437590Y-101697250D01*
X119184672Y-101697250D01*
X118971807Y-101484385D01*
X120005000Y-101484385D01*
X120144708Y-101458097D01*
X120273020Y-101375530D01*
X120359101Y-101249547D01*
X120389385Y-101100000D01*
X120389385Y-100724910D01*
X121437590Y-100724910D01*
X121437590Y-101502750D01*
X121531840Y-101597000D01*
X123611180Y-101597000D01*
X123611180Y-100517150D01*
X123617180Y-100517150D01*
X123617180Y-101597000D01*
X125696520Y-101597000D01*
X125790770Y-101502750D01*
X125790770Y-100724910D01*
X125733375Y-100586347D01*
X125627323Y-100480295D01*
X125488760Y-100422900D01*
X123711430Y-100422900D01*
X123617180Y-100517150D01*
X123611180Y-100517150D01*
X123516930Y-100422900D01*
X121739600Y-100422900D01*
X121601037Y-100480295D01*
X121494985Y-100586347D01*
X121437590Y-100724910D01*
X120389385Y-100724910D01*
X120389385Y-100347000D01*
X126940752Y-100347000D01*
X127090749Y-100496997D01*
X127090749Y-100496997D01*
G37*
X127090749Y-100496997D02*
X127048210Y-100524370D01*
X126962129Y-100650353D01*
X126931845Y-100799900D01*
X126931845Y-102400100D01*
X126958133Y-102539808D01*
X127040700Y-102668120D01*
X127166683Y-102754201D01*
X127316230Y-102784485D01*
X130915410Y-102784485D01*
X131055118Y-102758197D01*
X131183430Y-102675630D01*
X131269511Y-102549647D01*
X131287710Y-102459778D01*
X132165615Y-103337683D01*
X132165615Y-104600000D01*
X132191903Y-104739708D01*
X132274470Y-104868020D01*
X132400453Y-104954101D01*
X132550000Y-104984385D01*
X134150000Y-104984385D01*
X134289708Y-104958097D01*
X134418020Y-104875530D01*
X134504101Y-104749547D01*
X134534385Y-104600000D01*
X134534385Y-103337682D01*
X134985067Y-102887000D01*
X136247853Y-102887000D01*
X136142011Y-102930733D01*
X135951402Y-103121010D01*
X135848118Y-103369746D01*
X135848037Y-103462963D01*
X135755927Y-103462883D01*
X135507011Y-103565733D01*
X135316402Y-103756010D01*
X135213118Y-104004746D01*
X135212883Y-104274073D01*
X135315733Y-104522989D01*
X135388000Y-104595382D01*
X135388000Y-106302065D01*
X134574449Y-107115615D01*
X133850000Y-107115615D01*
X133813512Y-107122481D01*
X133774430Y-107063990D01*
X133704968Y-106960032D01*
X133704965Y-106960030D01*
X133069968Y-106325032D01*
X132907107Y-106216212D01*
X132715000Y-106177999D01*
X132714995Y-106178000D01*
X127635005Y-106178000D01*
X127635000Y-106177999D01*
X127442893Y-106216212D01*
X127280032Y-106325032D01*
X127280030Y-106325035D01*
X126974450Y-106630615D01*
X126700000Y-106630615D01*
X126560292Y-106656903D01*
X126431980Y-106739470D01*
X126406916Y-106776152D01*
X126407117Y-106545927D01*
X126304267Y-106297011D01*
X126113990Y-106106402D01*
X125865254Y-106003118D01*
X125595927Y-106002883D01*
X125347011Y-106105733D01*
X125156402Y-106296010D01*
X125053118Y-106544746D01*
X125052918Y-106774002D01*
X125035530Y-106746980D01*
X124909547Y-106660899D01*
X124760000Y-106630615D01*
X124258037Y-106630615D01*
X123828711Y-106201289D01*
X123609077Y-106054534D01*
X123350000Y-106003000D01*
X120057000Y-106003000D01*
X120057000Y-103974600D01*
X120144708Y-103958097D01*
X120273020Y-103875530D01*
X120359101Y-103749547D01*
X120389385Y-103600000D01*
X120389385Y-102100000D01*
X120363097Y-101960292D01*
X120280530Y-101831980D01*
X120154547Y-101745899D01*
X120005000Y-101715615D01*
X119203037Y-101715615D01*
X119184672Y-101697250D01*
X121437590Y-101697250D01*
X121437590Y-102475090D01*
X121494985Y-102613653D01*
X121601037Y-102719705D01*
X121739600Y-102777100D01*
X123516930Y-102777100D01*
X123611180Y-102682850D01*
X123611180Y-101603000D01*
X123617180Y-101603000D01*
X123617180Y-102682850D01*
X123711430Y-102777100D01*
X125488760Y-102777100D01*
X125627323Y-102719705D01*
X125733375Y-102613653D01*
X125790770Y-102475090D01*
X125790770Y-101697250D01*
X125696520Y-101603000D01*
X123617180Y-101603000D01*
X123611180Y-101603000D01*
X121531840Y-101603000D01*
X121437590Y-101697250D01*
X119184672Y-101697250D01*
X118971807Y-101484385D01*
X120005000Y-101484385D01*
X120144708Y-101458097D01*
X120273020Y-101375530D01*
X120359101Y-101249547D01*
X120389385Y-101100000D01*
X120389385Y-100724910D01*
X121437590Y-100724910D01*
X121437590Y-101502750D01*
X121531840Y-101597000D01*
X123611180Y-101597000D01*
X123611180Y-100517150D01*
X123617180Y-100517150D01*
X123617180Y-101597000D01*
X125696520Y-101597000D01*
X125790770Y-101502750D01*
X125790770Y-100724910D01*
X125733375Y-100586347D01*
X125627323Y-100480295D01*
X125488760Y-100422900D01*
X123711430Y-100422900D01*
X123617180Y-100517150D01*
X123611180Y-100517150D01*
X123516930Y-100422900D01*
X121739600Y-100422900D01*
X121601037Y-100480295D01*
X121494985Y-100586347D01*
X121437590Y-100724910D01*
X120389385Y-100724910D01*
X120389385Y-100347000D01*
X126940752Y-100347000D01*
X127090749Y-100496997D01*
G36*
X123775615Y-89612683D02*
X123775615Y-90150000D01*
X123801903Y-90289708D01*
X123810456Y-90303000D01*
X123645463Y-90303000D01*
X123573990Y-90231402D01*
X123325254Y-90128118D01*
X123055927Y-90127883D01*
X122807011Y-90230733D01*
X122616402Y-90421010D01*
X122513118Y-90669746D01*
X122512883Y-90939073D01*
X122615733Y-91187989D01*
X122806010Y-91378598D01*
X123054746Y-91481882D01*
X123324073Y-91482117D01*
X123572989Y-91379267D01*
X123645382Y-91307000D01*
X123783116Y-91307000D01*
X123782883Y-91574073D01*
X123885733Y-91822989D01*
X124076010Y-92013598D01*
X124324746Y-92116882D01*
X124594073Y-92117117D01*
X124842989Y-92014267D01*
X124915382Y-91942000D01*
X125688116Y-91942000D01*
X125687883Y-92209073D01*
X125790733Y-92457989D01*
X125981010Y-92648598D01*
X126229746Y-92751882D01*
X126499073Y-92752117D01*
X126747989Y-92649267D01*
X126820382Y-92577000D01*
X128867064Y-92577000D01*
X131265615Y-94975551D01*
X131265615Y-95700000D01*
X131291903Y-95839708D01*
X131374470Y-95968020D01*
X131500453Y-96054101D01*
X131650000Y-96084385D01*
X132850000Y-96084385D01*
X132989708Y-96058097D01*
X133118020Y-95975530D01*
X133204101Y-95849547D01*
X133234385Y-95700000D01*
X133234385Y-94800000D01*
X133208097Y-94660292D01*
X133125530Y-94531980D01*
X132999547Y-94445899D01*
X132850000Y-94415615D01*
X132125551Y-94415615D01*
X129429968Y-91720032D01*
X129267107Y-91611212D01*
X129075000Y-91572999D01*
X129074995Y-91573000D01*
X127576936Y-91573000D01*
X128624965Y-90524970D01*
X128624968Y-90524968D01*
X128625676Y-90523909D01*
X128709708Y-90508097D01*
X128838020Y-90425530D01*
X128924101Y-90299547D01*
X128954385Y-90150000D01*
X128954385Y-89877000D01*
X131247064Y-89877000D01*
X131265615Y-89895551D01*
X131265615Y-90620000D01*
X131291903Y-90759708D01*
X131374470Y-90888020D01*
X131500453Y-90974101D01*
X131650000Y-91004385D01*
X132848000Y-91004385D01*
X132848000Y-91402064D01*
X132374449Y-91875615D01*
X131650000Y-91875615D01*
X131510292Y-91901903D01*
X131381980Y-91984470D01*
X131295899Y-92110453D01*
X131265615Y-92260000D01*
X131265615Y-93160000D01*
X131291903Y-93299708D01*
X131374470Y-93428020D01*
X131500453Y-93514101D01*
X131650000Y-93544385D01*
X132850000Y-93544385D01*
X132989708Y-93518097D01*
X133118020Y-93435530D01*
X133204101Y-93309547D01*
X133234385Y-93160000D01*
X133234385Y-92435551D01*
X133479753Y-92190183D01*
X133465615Y-92260000D01*
X133465615Y-93160000D01*
X133491903Y-93299708D01*
X133574470Y-93428020D01*
X133700453Y-93514101D01*
X133850000Y-93544385D01*
X134574449Y-93544385D01*
X136023000Y-94992936D01*
X136023000Y-95429537D01*
X135951402Y-95501010D01*
X135848118Y-95749746D01*
X135847883Y-96019073D01*
X135950733Y-96267989D01*
X136141010Y-96458598D01*
X136389746Y-96561882D01*
X136658000Y-96562116D01*
X136658000Y-99487065D01*
X135932102Y-100212962D01*
X135932117Y-100195927D01*
X135829267Y-99947011D01*
X135757000Y-99874618D01*
X135757000Y-96055005D01*
X135757001Y-96055000D01*
X135718788Y-95862893D01*
X135609968Y-95700032D01*
X135434385Y-95524449D01*
X135434385Y-94800000D01*
X135408097Y-94660292D01*
X135325530Y-94531980D01*
X135199547Y-94445899D01*
X135050000Y-94415615D01*
X133850000Y-94415615D01*
X133710292Y-94441903D01*
X133581980Y-94524470D01*
X133495899Y-94650453D01*
X133465615Y-94800000D01*
X133465615Y-95700000D01*
X133491903Y-95839708D01*
X133574470Y-95968020D01*
X133700453Y-96054101D01*
X133850000Y-96084385D01*
X134574449Y-96084385D01*
X134753000Y-96262936D01*
X134753000Y-99874537D01*
X134681402Y-99946010D01*
X134578118Y-100194746D01*
X134577883Y-100464073D01*
X134680733Y-100712989D01*
X134871010Y-100903598D01*
X135119746Y-101006882D01*
X135212963Y-101006963D01*
X135212883Y-101099073D01*
X135315733Y-101347989D01*
X135506010Y-101538598D01*
X135612942Y-101583000D01*
X134715005Y-101583000D01*
X134715000Y-101582999D01*
X134465491Y-101632630D01*
X134451293Y-101642117D01*
X134253966Y-101773966D01*
X134253964Y-101773969D01*
X133812318Y-102215615D01*
X132887683Y-102215615D01*
X131811034Y-101138966D01*
X131752717Y-101100000D01*
X131599510Y-100997631D01*
X131558113Y-100989396D01*
X131350000Y-100947999D01*
X131349995Y-100948000D01*
X131299795Y-100948000D01*
X131299795Y-100799900D01*
X131273507Y-100660192D01*
X131190940Y-100531880D01*
X131064957Y-100445799D01*
X130915410Y-100415515D01*
X128853403Y-100415515D01*
X128135138Y-99697250D01*
X132173000Y-99697250D01*
X132173000Y-100674990D01*
X132230395Y-100813553D01*
X132336447Y-100919605D01*
X132475010Y-100977000D01*
X133252750Y-100977000D01*
X133347000Y-100882750D01*
X133347000Y-99603000D01*
X133353000Y-99603000D01*
X133353000Y-100882750D01*
X133447250Y-100977000D01*
X134224990Y-100977000D01*
X134363553Y-100919605D01*
X134469605Y-100813553D01*
X134527000Y-100674990D01*
X134527000Y-99697250D01*
X134432750Y-99603000D01*
X133353000Y-99603000D01*
X133347000Y-99603000D01*
X132267250Y-99603000D01*
X132173000Y-99697250D01*
X128135138Y-99697250D01*
X127671854Y-99233966D01*
X127667732Y-99231212D01*
X127460330Y-99092631D01*
X127418933Y-99084396D01*
X127210820Y-99042999D01*
X127210815Y-99043000D01*
X120035005Y-99043000D01*
X120035000Y-99042999D01*
X119785491Y-99092630D01*
X119601430Y-99215615D01*
X118762000Y-99215615D01*
X118762000Y-98525010D01*
X132173000Y-98525010D01*
X132173000Y-99502750D01*
X132267250Y-99597000D01*
X133347000Y-99597000D01*
X133347000Y-98317250D01*
X133353000Y-98317250D01*
X133353000Y-99597000D01*
X134432750Y-99597000D01*
X134527000Y-99502750D01*
X134527000Y-98525010D01*
X134469605Y-98386447D01*
X134363553Y-98280395D01*
X134224990Y-98223000D01*
X133447250Y-98223000D01*
X133353000Y-98317250D01*
X133347000Y-98317250D01*
X133252750Y-98223000D01*
X132475010Y-98223000D01*
X132336447Y-98280395D01*
X132230395Y-98386447D01*
X132173000Y-98525010D01*
X118762000Y-98525010D01*
X118762000Y-97432147D01*
X118805733Y-97537989D01*
X118996010Y-97728598D01*
X119244746Y-97831882D01*
X119514073Y-97832117D01*
X119762989Y-97729267D01*
X119953598Y-97538990D01*
X120056882Y-97290254D01*
X120056971Y-97187965D01*
X121469965Y-95774970D01*
X121469968Y-95774968D01*
X121508045Y-95717981D01*
X122665030Y-96874965D01*
X122665032Y-96874968D01*
X122827893Y-96983788D01*
X123020000Y-97022001D01*
X123020005Y-97022000D01*
X125094995Y-97022000D01*
X125095000Y-97022001D01*
X125287107Y-96983788D01*
X125449968Y-96874968D01*
X126084965Y-96239970D01*
X126084968Y-96239968D01*
X126193788Y-96077107D01*
X126213993Y-95975530D01*
X126232001Y-95885000D01*
X126232000Y-95884995D01*
X126232000Y-95868013D01*
X126298020Y-95825530D01*
X126365630Y-95726580D01*
X126424470Y-95818020D01*
X126550453Y-95904101D01*
X126700000Y-95934385D01*
X127300000Y-95934385D01*
X127439708Y-95908097D01*
X127568020Y-95825530D01*
X127635288Y-95727081D01*
X127650395Y-95763553D01*
X127756447Y-95869605D01*
X127895010Y-95927000D01*
X128172750Y-95927000D01*
X128267000Y-95832750D01*
X128267000Y-94778000D01*
X128273000Y-94778000D01*
X128273000Y-95832750D01*
X128367250Y-95927000D01*
X128644990Y-95927000D01*
X128783553Y-95869605D01*
X128889605Y-95763553D01*
X128947000Y-95624990D01*
X128947000Y-94872250D01*
X128852750Y-94778000D01*
X128273000Y-94778000D01*
X128267000Y-94778000D01*
X128247000Y-94778000D01*
X128247000Y-94772000D01*
X128267000Y-94772000D01*
X128267000Y-93717250D01*
X128273000Y-93717250D01*
X128273000Y-94772000D01*
X128852750Y-94772000D01*
X128947000Y-94677750D01*
X128947000Y-93925010D01*
X128889605Y-93786447D01*
X128783553Y-93680395D01*
X128644990Y-93623000D01*
X128367250Y-93623000D01*
X128273000Y-93717250D01*
X128267000Y-93717250D01*
X128172750Y-93623000D01*
X127895010Y-93623000D01*
X127756447Y-93680395D01*
X127650395Y-93786447D01*
X127634802Y-93824091D01*
X127575530Y-93731980D01*
X127449547Y-93645899D01*
X127300000Y-93615615D01*
X126700000Y-93615615D01*
X126560292Y-93641903D01*
X126431980Y-93724470D01*
X126364370Y-93823420D01*
X126305530Y-93731980D01*
X126179547Y-93645899D01*
X126030000Y-93615615D01*
X125430000Y-93615615D01*
X125290292Y-93641903D01*
X125161980Y-93724470D01*
X125094370Y-93823420D01*
X125035530Y-93731980D01*
X125032605Y-93729981D01*
X125033598Y-93728990D01*
X125136882Y-93480254D01*
X125137117Y-93210927D01*
X125034267Y-92962011D01*
X124843990Y-92771402D01*
X124595254Y-92668118D01*
X124325927Y-92667883D01*
X124077011Y-92770733D01*
X123886402Y-92961010D01*
X123783118Y-93209746D01*
X123782883Y-93479073D01*
X123885733Y-93727989D01*
X123888014Y-93730274D01*
X123805899Y-93850453D01*
X123775615Y-94000000D01*
X123775615Y-95550000D01*
X123801903Y-95689708D01*
X123884470Y-95818020D01*
X124010453Y-95904101D01*
X124160000Y-95934385D01*
X124760000Y-95934385D01*
X124899708Y-95908097D01*
X125028020Y-95825530D01*
X125095630Y-95726580D01*
X125128070Y-95776994D01*
X124887064Y-96018000D01*
X123227935Y-96018000D01*
X122099385Y-94889449D01*
X122099385Y-94165000D01*
X122073097Y-94025292D01*
X121990530Y-93896980D01*
X121864547Y-93810899D01*
X121715000Y-93780615D01*
X120667000Y-93780615D01*
X120667000Y-90485005D01*
X120667001Y-90485000D01*
X120627615Y-90287000D01*
X120867750Y-90287000D01*
X120962000Y-90192750D01*
X120962000Y-89538000D01*
X120968000Y-89538000D01*
X120968000Y-90192750D01*
X121062250Y-90287000D01*
X121639990Y-90287000D01*
X121778553Y-90229605D01*
X121884605Y-90123553D01*
X121942000Y-89984990D01*
X121942000Y-89632250D01*
X121847750Y-89538000D01*
X120968000Y-89538000D01*
X120962000Y-89538000D01*
X120942000Y-89538000D01*
X120942000Y-89532000D01*
X120962000Y-89532000D01*
X120962000Y-89512000D01*
X120968000Y-89512000D01*
X120968000Y-89532000D01*
X121847750Y-89532000D01*
X121942000Y-89437750D01*
X121942000Y-89085010D01*
X121884605Y-88946447D01*
X121855158Y-88917000D01*
X123079932Y-88917000D01*
X123775615Y-89612683D01*
X123775615Y-89612683D01*
G37*
X123775615Y-89612683D02*
X123775615Y-90150000D01*
X123801903Y-90289708D01*
X123810456Y-90303000D01*
X123645463Y-90303000D01*
X123573990Y-90231402D01*
X123325254Y-90128118D01*
X123055927Y-90127883D01*
X122807011Y-90230733D01*
X122616402Y-90421010D01*
X122513118Y-90669746D01*
X122512883Y-90939073D01*
X122615733Y-91187989D01*
X122806010Y-91378598D01*
X123054746Y-91481882D01*
X123324073Y-91482117D01*
X123572989Y-91379267D01*
X123645382Y-91307000D01*
X123783116Y-91307000D01*
X123782883Y-91574073D01*
X123885733Y-91822989D01*
X124076010Y-92013598D01*
X124324746Y-92116882D01*
X124594073Y-92117117D01*
X124842989Y-92014267D01*
X124915382Y-91942000D01*
X125688116Y-91942000D01*
X125687883Y-92209073D01*
X125790733Y-92457989D01*
X125981010Y-92648598D01*
X126229746Y-92751882D01*
X126499073Y-92752117D01*
X126747989Y-92649267D01*
X126820382Y-92577000D01*
X128867064Y-92577000D01*
X131265615Y-94975551D01*
X131265615Y-95700000D01*
X131291903Y-95839708D01*
X131374470Y-95968020D01*
X131500453Y-96054101D01*
X131650000Y-96084385D01*
X132850000Y-96084385D01*
X132989708Y-96058097D01*
X133118020Y-95975530D01*
X133204101Y-95849547D01*
X133234385Y-95700000D01*
X133234385Y-94800000D01*
X133208097Y-94660292D01*
X133125530Y-94531980D01*
X132999547Y-94445899D01*
X132850000Y-94415615D01*
X132125551Y-94415615D01*
X129429968Y-91720032D01*
X129267107Y-91611212D01*
X129075000Y-91572999D01*
X129074995Y-91573000D01*
X127576936Y-91573000D01*
X128624965Y-90524970D01*
X128624968Y-90524968D01*
X128625676Y-90523909D01*
X128709708Y-90508097D01*
X128838020Y-90425530D01*
X128924101Y-90299547D01*
X128954385Y-90150000D01*
X128954385Y-89877000D01*
X131247064Y-89877000D01*
X131265615Y-89895551D01*
X131265615Y-90620000D01*
X131291903Y-90759708D01*
X131374470Y-90888020D01*
X131500453Y-90974101D01*
X131650000Y-91004385D01*
X132848000Y-91004385D01*
X132848000Y-91402064D01*
X132374449Y-91875615D01*
X131650000Y-91875615D01*
X131510292Y-91901903D01*
X131381980Y-91984470D01*
X131295899Y-92110453D01*
X131265615Y-92260000D01*
X131265615Y-93160000D01*
X131291903Y-93299708D01*
X131374470Y-93428020D01*
X131500453Y-93514101D01*
X131650000Y-93544385D01*
X132850000Y-93544385D01*
X132989708Y-93518097D01*
X133118020Y-93435530D01*
X133204101Y-93309547D01*
X133234385Y-93160000D01*
X133234385Y-92435551D01*
X133479753Y-92190183D01*
X133465615Y-92260000D01*
X133465615Y-93160000D01*
X133491903Y-93299708D01*
X133574470Y-93428020D01*
X133700453Y-93514101D01*
X133850000Y-93544385D01*
X134574449Y-93544385D01*
X136023000Y-94992936D01*
X136023000Y-95429537D01*
X135951402Y-95501010D01*
X135848118Y-95749746D01*
X135847883Y-96019073D01*
X135950733Y-96267989D01*
X136141010Y-96458598D01*
X136389746Y-96561882D01*
X136658000Y-96562116D01*
X136658000Y-99487065D01*
X135932102Y-100212962D01*
X135932117Y-100195927D01*
X135829267Y-99947011D01*
X135757000Y-99874618D01*
X135757000Y-96055005D01*
X135757001Y-96055000D01*
X135718788Y-95862893D01*
X135609968Y-95700032D01*
X135434385Y-95524449D01*
X135434385Y-94800000D01*
X135408097Y-94660292D01*
X135325530Y-94531980D01*
X135199547Y-94445899D01*
X135050000Y-94415615D01*
X133850000Y-94415615D01*
X133710292Y-94441903D01*
X133581980Y-94524470D01*
X133495899Y-94650453D01*
X133465615Y-94800000D01*
X133465615Y-95700000D01*
X133491903Y-95839708D01*
X133574470Y-95968020D01*
X133700453Y-96054101D01*
X133850000Y-96084385D01*
X134574449Y-96084385D01*
X134753000Y-96262936D01*
X134753000Y-99874537D01*
X134681402Y-99946010D01*
X134578118Y-100194746D01*
X134577883Y-100464073D01*
X134680733Y-100712989D01*
X134871010Y-100903598D01*
X135119746Y-101006882D01*
X135212963Y-101006963D01*
X135212883Y-101099073D01*
X135315733Y-101347989D01*
X135506010Y-101538598D01*
X135612942Y-101583000D01*
X134715005Y-101583000D01*
X134715000Y-101582999D01*
X134465491Y-101632630D01*
X134451293Y-101642117D01*
X134253966Y-101773966D01*
X134253964Y-101773969D01*
X133812318Y-102215615D01*
X132887683Y-102215615D01*
X131811034Y-101138966D01*
X131752717Y-101100000D01*
X131599510Y-100997631D01*
X131558113Y-100989396D01*
X131350000Y-100947999D01*
X131349995Y-100948000D01*
X131299795Y-100948000D01*
X131299795Y-100799900D01*
X131273507Y-100660192D01*
X131190940Y-100531880D01*
X131064957Y-100445799D01*
X130915410Y-100415515D01*
X128853403Y-100415515D01*
X128135138Y-99697250D01*
X132173000Y-99697250D01*
X132173000Y-100674990D01*
X132230395Y-100813553D01*
X132336447Y-100919605D01*
X132475010Y-100977000D01*
X133252750Y-100977000D01*
X133347000Y-100882750D01*
X133347000Y-99603000D01*
X133353000Y-99603000D01*
X133353000Y-100882750D01*
X133447250Y-100977000D01*
X134224990Y-100977000D01*
X134363553Y-100919605D01*
X134469605Y-100813553D01*
X134527000Y-100674990D01*
X134527000Y-99697250D01*
X134432750Y-99603000D01*
X133353000Y-99603000D01*
X133347000Y-99603000D01*
X132267250Y-99603000D01*
X132173000Y-99697250D01*
X128135138Y-99697250D01*
X127671854Y-99233966D01*
X127667732Y-99231212D01*
X127460330Y-99092631D01*
X127418933Y-99084396D01*
X127210820Y-99042999D01*
X127210815Y-99043000D01*
X120035005Y-99043000D01*
X120035000Y-99042999D01*
X119785491Y-99092630D01*
X119601430Y-99215615D01*
X118762000Y-99215615D01*
X118762000Y-98525010D01*
X132173000Y-98525010D01*
X132173000Y-99502750D01*
X132267250Y-99597000D01*
X133347000Y-99597000D01*
X133347000Y-98317250D01*
X133353000Y-98317250D01*
X133353000Y-99597000D01*
X134432750Y-99597000D01*
X134527000Y-99502750D01*
X134527000Y-98525010D01*
X134469605Y-98386447D01*
X134363553Y-98280395D01*
X134224990Y-98223000D01*
X133447250Y-98223000D01*
X133353000Y-98317250D01*
X133347000Y-98317250D01*
X133252750Y-98223000D01*
X132475010Y-98223000D01*
X132336447Y-98280395D01*
X132230395Y-98386447D01*
X132173000Y-98525010D01*
X118762000Y-98525010D01*
X118762000Y-97432147D01*
X118805733Y-97537989D01*
X118996010Y-97728598D01*
X119244746Y-97831882D01*
X119514073Y-97832117D01*
X119762989Y-97729267D01*
X119953598Y-97538990D01*
X120056882Y-97290254D01*
X120056971Y-97187965D01*
X121469965Y-95774970D01*
X121469968Y-95774968D01*
X121508045Y-95717981D01*
X122665030Y-96874965D01*
X122665032Y-96874968D01*
X122827893Y-96983788D01*
X123020000Y-97022001D01*
X123020005Y-97022000D01*
X125094995Y-97022000D01*
X125095000Y-97022001D01*
X125287107Y-96983788D01*
X125449968Y-96874968D01*
X126084965Y-96239970D01*
X126084968Y-96239968D01*
X126193788Y-96077107D01*
X126213993Y-95975530D01*
X126232001Y-95885000D01*
X126232000Y-95884995D01*
X126232000Y-95868013D01*
X126298020Y-95825530D01*
X126365630Y-95726580D01*
X126424470Y-95818020D01*
X126550453Y-95904101D01*
X126700000Y-95934385D01*
X127300000Y-95934385D01*
X127439708Y-95908097D01*
X127568020Y-95825530D01*
X127635288Y-95727081D01*
X127650395Y-95763553D01*
X127756447Y-95869605D01*
X127895010Y-95927000D01*
X128172750Y-95927000D01*
X128267000Y-95832750D01*
X128267000Y-94778000D01*
X128273000Y-94778000D01*
X128273000Y-95832750D01*
X128367250Y-95927000D01*
X128644990Y-95927000D01*
X128783553Y-95869605D01*
X128889605Y-95763553D01*
X128947000Y-95624990D01*
X128947000Y-94872250D01*
X128852750Y-94778000D01*
X128273000Y-94778000D01*
X128267000Y-94778000D01*
X128247000Y-94778000D01*
X128247000Y-94772000D01*
X128267000Y-94772000D01*
X128267000Y-93717250D01*
X128273000Y-93717250D01*
X128273000Y-94772000D01*
X128852750Y-94772000D01*
X128947000Y-94677750D01*
X128947000Y-93925010D01*
X128889605Y-93786447D01*
X128783553Y-93680395D01*
X128644990Y-93623000D01*
X128367250Y-93623000D01*
X128273000Y-93717250D01*
X128267000Y-93717250D01*
X128172750Y-93623000D01*
X127895010Y-93623000D01*
X127756447Y-93680395D01*
X127650395Y-93786447D01*
X127634802Y-93824091D01*
X127575530Y-93731980D01*
X127449547Y-93645899D01*
X127300000Y-93615615D01*
X126700000Y-93615615D01*
X126560292Y-93641903D01*
X126431980Y-93724470D01*
X126364370Y-93823420D01*
X126305530Y-93731980D01*
X126179547Y-93645899D01*
X126030000Y-93615615D01*
X125430000Y-93615615D01*
X125290292Y-93641903D01*
X125161980Y-93724470D01*
X125094370Y-93823420D01*
X125035530Y-93731980D01*
X125032605Y-93729981D01*
X125033598Y-93728990D01*
X125136882Y-93480254D01*
X125137117Y-93210927D01*
X125034267Y-92962011D01*
X124843990Y-92771402D01*
X124595254Y-92668118D01*
X124325927Y-92667883D01*
X124077011Y-92770733D01*
X123886402Y-92961010D01*
X123783118Y-93209746D01*
X123782883Y-93479073D01*
X123885733Y-93727989D01*
X123888014Y-93730274D01*
X123805899Y-93850453D01*
X123775615Y-94000000D01*
X123775615Y-95550000D01*
X123801903Y-95689708D01*
X123884470Y-95818020D01*
X124010453Y-95904101D01*
X124160000Y-95934385D01*
X124760000Y-95934385D01*
X124899708Y-95908097D01*
X125028020Y-95825530D01*
X125095630Y-95726580D01*
X125128070Y-95776994D01*
X124887064Y-96018000D01*
X123227935Y-96018000D01*
X122099385Y-94889449D01*
X122099385Y-94165000D01*
X122073097Y-94025292D01*
X121990530Y-93896980D01*
X121864547Y-93810899D01*
X121715000Y-93780615D01*
X120667000Y-93780615D01*
X120667000Y-90485005D01*
X120667001Y-90485000D01*
X120627615Y-90287000D01*
X120867750Y-90287000D01*
X120962000Y-90192750D01*
X120962000Y-89538000D01*
X120968000Y-89538000D01*
X120968000Y-90192750D01*
X121062250Y-90287000D01*
X121639990Y-90287000D01*
X121778553Y-90229605D01*
X121884605Y-90123553D01*
X121942000Y-89984990D01*
X121942000Y-89632250D01*
X121847750Y-89538000D01*
X120968000Y-89538000D01*
X120962000Y-89538000D01*
X120942000Y-89538000D01*
X120942000Y-89532000D01*
X120962000Y-89532000D01*
X120962000Y-89512000D01*
X120968000Y-89512000D01*
X120968000Y-89532000D01*
X121847750Y-89532000D01*
X121942000Y-89437750D01*
X121942000Y-89085010D01*
X121884605Y-88946447D01*
X121855158Y-88917000D01*
X123079932Y-88917000D01*
X123775615Y-89612683D01*
D22*
G36*
X144330000Y-116080000D02*
X137285000Y-116080000D01*
X137285000Y-114809286D01*
X137529912Y-115175822D01*
X137931742Y-115444317D01*
X138405734Y-115538600D01*
X138454266Y-115538600D01*
X138928258Y-115444317D01*
X139330088Y-115175822D01*
X139598583Y-114773992D01*
X139692866Y-114300000D01*
X139707134Y-114300000D01*
X139801417Y-114773992D01*
X140069912Y-115175822D01*
X140471742Y-115444317D01*
X140945734Y-115538600D01*
X140994266Y-115538600D01*
X141468258Y-115444317D01*
X141870088Y-115175822D01*
X142138583Y-114773992D01*
X142232866Y-114300000D01*
X142138583Y-113826008D01*
X141870088Y-113424178D01*
X141468258Y-113155683D01*
X140994266Y-113061400D01*
X140945734Y-113061400D01*
X140471742Y-113155683D01*
X140069912Y-113424178D01*
X139801417Y-113826008D01*
X139707134Y-114300000D01*
X139692866Y-114300000D01*
X139598583Y-113826008D01*
X139330088Y-113424178D01*
X138928258Y-113155683D01*
X138454266Y-113061400D01*
X138405734Y-113061400D01*
X137931742Y-113155683D01*
X137529912Y-113424178D01*
X137285000Y-113790714D01*
X137285000Y-112177000D01*
X137425020Y-112483980D01*
X137778575Y-112813459D01*
X138231303Y-112982559D01*
X138425000Y-112904840D01*
X138425000Y-111765000D01*
X138435000Y-111765000D01*
X138435000Y-112904840D01*
X138628697Y-112982559D01*
X139081425Y-112813459D01*
X139434980Y-112483980D01*
X139635536Y-112044281D01*
X139652559Y-111958697D01*
X139747441Y-111958697D01*
X139764464Y-112044281D01*
X139965020Y-112483980D01*
X140318575Y-112813459D01*
X140771303Y-112982559D01*
X140965000Y-112904840D01*
X140965000Y-111765000D01*
X140975000Y-111765000D01*
X140975000Y-112904840D01*
X141168697Y-112982559D01*
X141621425Y-112813459D01*
X141974980Y-112483980D01*
X142175536Y-112044281D01*
X142192559Y-111958697D01*
X142114839Y-111765000D01*
X140975000Y-111765000D01*
X140965000Y-111765000D01*
X139825161Y-111765000D01*
X139747441Y-111958697D01*
X139652559Y-111958697D01*
X139574839Y-111765000D01*
X138435000Y-111765000D01*
X138425000Y-111765000D01*
X138405000Y-111765000D01*
X138405000Y-111755000D01*
X138425000Y-111755000D01*
X138425000Y-110615160D01*
X138435000Y-110615160D01*
X138435000Y-111755000D01*
X139574839Y-111755000D01*
X139652559Y-111561303D01*
X139747441Y-111561303D01*
X139825161Y-111755000D01*
X140965000Y-111755000D01*
X140965000Y-110615160D01*
X140975000Y-110615160D01*
X140975000Y-111755000D01*
X142114839Y-111755000D01*
X142192559Y-111561303D01*
X142175536Y-111475719D01*
X141974980Y-111036020D01*
X141621425Y-110706541D01*
X141168697Y-110537441D01*
X140975000Y-110615160D01*
X140965000Y-110615160D01*
X140771303Y-110537441D01*
X140318575Y-110706541D01*
X139965020Y-111036020D01*
X139764464Y-111475719D01*
X139747441Y-111561303D01*
X139652559Y-111561303D01*
X139635536Y-111475719D01*
X139434980Y-111036020D01*
X139081425Y-110706541D01*
X138628697Y-110537441D01*
X138435000Y-110615160D01*
X138425000Y-110615160D01*
X138231303Y-110537441D01*
X137778575Y-110706541D01*
X137425020Y-111036020D01*
X137285000Y-111343000D01*
X137285000Y-111072107D01*
X137891161Y-110465946D01*
X139293600Y-110465946D01*
X139432566Y-110439798D01*
X139560199Y-110357669D01*
X139645823Y-110232354D01*
X139675946Y-110083600D01*
X139675946Y-108633053D01*
X139799341Y-108756447D01*
X139707134Y-109220000D01*
X139801417Y-109693992D01*
X140069912Y-110095822D01*
X140471742Y-110364317D01*
X140945734Y-110458600D01*
X140994266Y-110458600D01*
X141468258Y-110364317D01*
X141870088Y-110095822D01*
X142138583Y-109693992D01*
X142232866Y-109220000D01*
X142138583Y-108746008D01*
X141870088Y-108344178D01*
X141468258Y-108075683D01*
X140994266Y-107981400D01*
X140945734Y-107981400D01*
X140522661Y-108065555D01*
X138783553Y-106326447D01*
X138621342Y-106218060D01*
X138430000Y-106180000D01*
X138249634Y-106180000D01*
X138177856Y-106108097D01*
X137929855Y-106005117D01*
X137661323Y-106004883D01*
X137413143Y-106107429D01*
X137285000Y-106235349D01*
X137285000Y-104649286D01*
X137529912Y-105015822D01*
X137931742Y-105284317D01*
X138405734Y-105378600D01*
X138454266Y-105378600D01*
X138928258Y-105284317D01*
X139330088Y-105015822D01*
X139598583Y-104613992D01*
X139692866Y-104140000D01*
X139707134Y-104140000D01*
X139801417Y-104613992D01*
X140069912Y-105015822D01*
X140471742Y-105284317D01*
X140945734Y-105378600D01*
X140994266Y-105378600D01*
X141468258Y-105284317D01*
X141870088Y-105015822D01*
X142138583Y-104613992D01*
X142232866Y-104140000D01*
X142138583Y-103666008D01*
X141870088Y-103264178D01*
X141468258Y-102995683D01*
X140994266Y-102901400D01*
X140945734Y-102901400D01*
X140471742Y-102995683D01*
X140069912Y-103264178D01*
X139801417Y-103666008D01*
X139707134Y-104140000D01*
X139692866Y-104140000D01*
X139598583Y-103666008D01*
X139330088Y-103264178D01*
X138928258Y-102995683D01*
X138454266Y-102901400D01*
X138405734Y-102901400D01*
X137931742Y-102995683D01*
X137529912Y-103264178D01*
X137285000Y-103630714D01*
X137285000Y-102017000D01*
X137425020Y-102323980D01*
X137778575Y-102653459D01*
X138231303Y-102822559D01*
X138425000Y-102744840D01*
X138425000Y-101605000D01*
X138435000Y-101605000D01*
X138435000Y-102744840D01*
X138628697Y-102822559D01*
X139081425Y-102653459D01*
X139434980Y-102323980D01*
X139635536Y-101884281D01*
X139652559Y-101798697D01*
X139747441Y-101798697D01*
X139764464Y-101884281D01*
X139965020Y-102323980D01*
X140318575Y-102653459D01*
X140771303Y-102822559D01*
X140965000Y-102744840D01*
X140965000Y-101605000D01*
X140975000Y-101605000D01*
X140975000Y-102744840D01*
X141168697Y-102822559D01*
X141621425Y-102653459D01*
X141974980Y-102323980D01*
X142175536Y-101884281D01*
X142192559Y-101798697D01*
X142114839Y-101605000D01*
X140975000Y-101605000D01*
X140965000Y-101605000D01*
X139825161Y-101605000D01*
X139747441Y-101798697D01*
X139652559Y-101798697D01*
X139574839Y-101605000D01*
X138435000Y-101605000D01*
X138425000Y-101605000D01*
X138405000Y-101605000D01*
X138405000Y-101595000D01*
X138425000Y-101595000D01*
X138425000Y-100455160D01*
X138435000Y-100455160D01*
X138435000Y-101595000D01*
X139574839Y-101595000D01*
X139652559Y-101401303D01*
X139747441Y-101401303D01*
X139825161Y-101595000D01*
X140965000Y-101595000D01*
X140965000Y-100455160D01*
X140975000Y-100455160D01*
X140975000Y-101595000D01*
X142114839Y-101595000D01*
X142192559Y-101401303D01*
X142175536Y-101315719D01*
X141974980Y-100876020D01*
X141621425Y-100546541D01*
X141168697Y-100377441D01*
X140975000Y-100455160D01*
X140965000Y-100455160D01*
X140771303Y-100377441D01*
X140318575Y-100546541D01*
X139965020Y-100876020D01*
X139764464Y-101315719D01*
X139747441Y-101401303D01*
X139652559Y-101401303D01*
X139635536Y-101315719D01*
X139434980Y-100876020D01*
X139081425Y-100546541D01*
X138628697Y-100377441D01*
X138435000Y-100455160D01*
X138425000Y-100455160D01*
X138231303Y-100377441D01*
X137778575Y-100546541D01*
X137425020Y-100876020D01*
X137285000Y-101183000D01*
X137285000Y-100277107D01*
X137339606Y-100222501D01*
X137417646Y-100275823D01*
X137566400Y-100305946D01*
X139293600Y-100305946D01*
X139432566Y-100279798D01*
X139560199Y-100197669D01*
X139645823Y-100072354D01*
X139675946Y-99923600D01*
X139675946Y-98473053D01*
X139799341Y-98596447D01*
X139707134Y-99060000D01*
X139801417Y-99533992D01*
X140069912Y-99935822D01*
X140471742Y-100204317D01*
X140945734Y-100298600D01*
X140994266Y-100298600D01*
X141468258Y-100204317D01*
X141870088Y-99935822D01*
X142138583Y-99533992D01*
X142232866Y-99060000D01*
X142138583Y-98586008D01*
X141870088Y-98184178D01*
X141468258Y-97915683D01*
X140994266Y-97821400D01*
X140945734Y-97821400D01*
X140522661Y-97905555D01*
X139418553Y-96801447D01*
X139256342Y-96693060D01*
X139065000Y-96655000D01*
X138249634Y-96655000D01*
X138177856Y-96583097D01*
X137929855Y-96480117D01*
X137661323Y-96479883D01*
X137660000Y-96480430D01*
X137660000Y-94942744D01*
X137931742Y-95124317D01*
X138405734Y-95218600D01*
X138454266Y-95218600D01*
X138928258Y-95124317D01*
X139330088Y-94855822D01*
X139598583Y-94453992D01*
X139692866Y-93980000D01*
X139707134Y-93980000D01*
X139801417Y-94453992D01*
X140069912Y-94855822D01*
X140471742Y-95124317D01*
X140945734Y-95218600D01*
X140994266Y-95218600D01*
X141468258Y-95124317D01*
X141870088Y-94855822D01*
X142138583Y-94453992D01*
X142232866Y-93980000D01*
X142138583Y-93506008D01*
X141870088Y-93104178D01*
X141468258Y-92835683D01*
X140994266Y-92741400D01*
X140945734Y-92741400D01*
X140471742Y-92835683D01*
X140069912Y-93104178D01*
X139801417Y-93506008D01*
X139707134Y-93980000D01*
X139692866Y-93980000D01*
X139598583Y-93506008D01*
X139330088Y-93104178D01*
X138928258Y-92835683D01*
X138454266Y-92741400D01*
X138405734Y-92741400D01*
X137931742Y-92835683D01*
X137660000Y-93017256D01*
X137660000Y-92382959D01*
X137778575Y-92493459D01*
X138231303Y-92662559D01*
X138425000Y-92584840D01*
X138425000Y-91445000D01*
X138435000Y-91445000D01*
X138435000Y-92584840D01*
X138628697Y-92662559D01*
X139081425Y-92493459D01*
X139434980Y-92163980D01*
X139635536Y-91724281D01*
X139652559Y-91638697D01*
X139747441Y-91638697D01*
X139764464Y-91724281D01*
X139965020Y-92163980D01*
X140318575Y-92493459D01*
X140771303Y-92662559D01*
X140965000Y-92584840D01*
X140965000Y-91445000D01*
X140975000Y-91445000D01*
X140975000Y-92584840D01*
X141168697Y-92662559D01*
X141621425Y-92493459D01*
X141974980Y-92163980D01*
X142175536Y-91724281D01*
X142192559Y-91638697D01*
X142114839Y-91445000D01*
X140975000Y-91445000D01*
X140965000Y-91445000D01*
X139825161Y-91445000D01*
X139747441Y-91638697D01*
X139652559Y-91638697D01*
X139574839Y-91445000D01*
X138435000Y-91445000D01*
X138425000Y-91445000D01*
X138405000Y-91445000D01*
X138405000Y-91435000D01*
X138425000Y-91435000D01*
X138425000Y-90295160D01*
X138435000Y-90295160D01*
X138435000Y-91435000D01*
X139574839Y-91435000D01*
X139652559Y-91241303D01*
X139747441Y-91241303D01*
X139825161Y-91435000D01*
X140965000Y-91435000D01*
X140965000Y-90295160D01*
X140975000Y-90295160D01*
X140975000Y-91435000D01*
X142114839Y-91435000D01*
X142192559Y-91241303D01*
X142175536Y-91155719D01*
X141974980Y-90716020D01*
X141621425Y-90386541D01*
X141168697Y-90217441D01*
X140975000Y-90295160D01*
X140965000Y-90295160D01*
X140771303Y-90217441D01*
X140318575Y-90386541D01*
X139965020Y-90716020D01*
X139764464Y-91155719D01*
X139747441Y-91241303D01*
X139652559Y-91241303D01*
X139635536Y-91155719D01*
X139434980Y-90716020D01*
X139081425Y-90386541D01*
X138628697Y-90217441D01*
X138435000Y-90295160D01*
X138425000Y-90295160D01*
X138231303Y-90217441D01*
X137778575Y-90386541D01*
X137660000Y-90497041D01*
X137660000Y-90377106D01*
X137891160Y-90145946D01*
X139293600Y-90145946D01*
X139432566Y-90119798D01*
X139560199Y-90037669D01*
X139645823Y-89912354D01*
X139675946Y-89763600D01*
X139675946Y-88313052D01*
X139799341Y-88436447D01*
X139707134Y-88900000D01*
X139801417Y-89373992D01*
X140069912Y-89775822D01*
X140471742Y-90044317D01*
X140945734Y-90138600D01*
X140994266Y-90138600D01*
X141468258Y-90044317D01*
X141870088Y-89775822D01*
X142138583Y-89373992D01*
X142232866Y-88900000D01*
X142138583Y-88426008D01*
X141870088Y-88024178D01*
X141468258Y-87755683D01*
X141464824Y-87755000D01*
X144330000Y-87755000D01*
X144330000Y-116080000D01*
X144330000Y-116080000D01*
G37*
X144330000Y-116080000D02*
X137285000Y-116080000D01*
X137285000Y-114809286D01*
X137529912Y-115175822D01*
X137931742Y-115444317D01*
X138405734Y-115538600D01*
X138454266Y-115538600D01*
X138928258Y-115444317D01*
X139330088Y-115175822D01*
X139598583Y-114773992D01*
X139692866Y-114300000D01*
X139707134Y-114300000D01*
X139801417Y-114773992D01*
X140069912Y-115175822D01*
X140471742Y-115444317D01*
X140945734Y-115538600D01*
X140994266Y-115538600D01*
X141468258Y-115444317D01*
X141870088Y-115175822D01*
X142138583Y-114773992D01*
X142232866Y-114300000D01*
X142138583Y-113826008D01*
X141870088Y-113424178D01*
X141468258Y-113155683D01*
X140994266Y-113061400D01*
X140945734Y-113061400D01*
X140471742Y-113155683D01*
X140069912Y-113424178D01*
X139801417Y-113826008D01*
X139707134Y-114300000D01*
X139692866Y-114300000D01*
X139598583Y-113826008D01*
X139330088Y-113424178D01*
X138928258Y-113155683D01*
X138454266Y-113061400D01*
X138405734Y-113061400D01*
X137931742Y-113155683D01*
X137529912Y-113424178D01*
X137285000Y-113790714D01*
X137285000Y-112177000D01*
X137425020Y-112483980D01*
X137778575Y-112813459D01*
X138231303Y-112982559D01*
X138425000Y-112904840D01*
X138425000Y-111765000D01*
X138435000Y-111765000D01*
X138435000Y-112904840D01*
X138628697Y-112982559D01*
X139081425Y-112813459D01*
X139434980Y-112483980D01*
X139635536Y-112044281D01*
X139652559Y-111958697D01*
X139747441Y-111958697D01*
X139764464Y-112044281D01*
X139965020Y-112483980D01*
X140318575Y-112813459D01*
X140771303Y-112982559D01*
X140965000Y-112904840D01*
X140965000Y-111765000D01*
X140975000Y-111765000D01*
X140975000Y-112904840D01*
X141168697Y-112982559D01*
X141621425Y-112813459D01*
X141974980Y-112483980D01*
X142175536Y-112044281D01*
X142192559Y-111958697D01*
X142114839Y-111765000D01*
X140975000Y-111765000D01*
X140965000Y-111765000D01*
X139825161Y-111765000D01*
X139747441Y-111958697D01*
X139652559Y-111958697D01*
X139574839Y-111765000D01*
X138435000Y-111765000D01*
X138425000Y-111765000D01*
X138405000Y-111765000D01*
X138405000Y-111755000D01*
X138425000Y-111755000D01*
X138425000Y-110615160D01*
X138435000Y-110615160D01*
X138435000Y-111755000D01*
X139574839Y-111755000D01*
X139652559Y-111561303D01*
X139747441Y-111561303D01*
X139825161Y-111755000D01*
X140965000Y-111755000D01*
X140965000Y-110615160D01*
X140975000Y-110615160D01*
X140975000Y-111755000D01*
X142114839Y-111755000D01*
X142192559Y-111561303D01*
X142175536Y-111475719D01*
X141974980Y-111036020D01*
X141621425Y-110706541D01*
X141168697Y-110537441D01*
X140975000Y-110615160D01*
X140965000Y-110615160D01*
X140771303Y-110537441D01*
X140318575Y-110706541D01*
X139965020Y-111036020D01*
X139764464Y-111475719D01*
X139747441Y-111561303D01*
X139652559Y-111561303D01*
X139635536Y-111475719D01*
X139434980Y-111036020D01*
X139081425Y-110706541D01*
X138628697Y-110537441D01*
X138435000Y-110615160D01*
X138425000Y-110615160D01*
X138231303Y-110537441D01*
X137778575Y-110706541D01*
X137425020Y-111036020D01*
X137285000Y-111343000D01*
X137285000Y-111072107D01*
X137891161Y-110465946D01*
X139293600Y-110465946D01*
X139432566Y-110439798D01*
X139560199Y-110357669D01*
X139645823Y-110232354D01*
X139675946Y-110083600D01*
X139675946Y-108633053D01*
X139799341Y-108756447D01*
X139707134Y-109220000D01*
X139801417Y-109693992D01*
X140069912Y-110095822D01*
X140471742Y-110364317D01*
X140945734Y-110458600D01*
X140994266Y-110458600D01*
X141468258Y-110364317D01*
X141870088Y-110095822D01*
X142138583Y-109693992D01*
X142232866Y-109220000D01*
X142138583Y-108746008D01*
X141870088Y-108344178D01*
X141468258Y-108075683D01*
X140994266Y-107981400D01*
X140945734Y-107981400D01*
X140522661Y-108065555D01*
X138783553Y-106326447D01*
X138621342Y-106218060D01*
X138430000Y-106180000D01*
X138249634Y-106180000D01*
X138177856Y-106108097D01*
X137929855Y-106005117D01*
X137661323Y-106004883D01*
X137413143Y-106107429D01*
X137285000Y-106235349D01*
X137285000Y-104649286D01*
X137529912Y-105015822D01*
X137931742Y-105284317D01*
X138405734Y-105378600D01*
X138454266Y-105378600D01*
X138928258Y-105284317D01*
X139330088Y-105015822D01*
X139598583Y-104613992D01*
X139692866Y-104140000D01*
X139707134Y-104140000D01*
X139801417Y-104613992D01*
X140069912Y-105015822D01*
X140471742Y-105284317D01*
X140945734Y-105378600D01*
X140994266Y-105378600D01*
X141468258Y-105284317D01*
X141870088Y-105015822D01*
X142138583Y-104613992D01*
X142232866Y-104140000D01*
X142138583Y-103666008D01*
X141870088Y-103264178D01*
X141468258Y-102995683D01*
X140994266Y-102901400D01*
X140945734Y-102901400D01*
X140471742Y-102995683D01*
X140069912Y-103264178D01*
X139801417Y-103666008D01*
X139707134Y-104140000D01*
X139692866Y-104140000D01*
X139598583Y-103666008D01*
X139330088Y-103264178D01*
X138928258Y-102995683D01*
X138454266Y-102901400D01*
X138405734Y-102901400D01*
X137931742Y-102995683D01*
X137529912Y-103264178D01*
X137285000Y-103630714D01*
X137285000Y-102017000D01*
X137425020Y-102323980D01*
X137778575Y-102653459D01*
X138231303Y-102822559D01*
X138425000Y-102744840D01*
X138425000Y-101605000D01*
X138435000Y-101605000D01*
X138435000Y-102744840D01*
X138628697Y-102822559D01*
X139081425Y-102653459D01*
X139434980Y-102323980D01*
X139635536Y-101884281D01*
X139652559Y-101798697D01*
X139747441Y-101798697D01*
X139764464Y-101884281D01*
X139965020Y-102323980D01*
X140318575Y-102653459D01*
X140771303Y-102822559D01*
X140965000Y-102744840D01*
X140965000Y-101605000D01*
X140975000Y-101605000D01*
X140975000Y-102744840D01*
X141168697Y-102822559D01*
X141621425Y-102653459D01*
X141974980Y-102323980D01*
X142175536Y-101884281D01*
X142192559Y-101798697D01*
X142114839Y-101605000D01*
X140975000Y-101605000D01*
X140965000Y-101605000D01*
X139825161Y-101605000D01*
X139747441Y-101798697D01*
X139652559Y-101798697D01*
X139574839Y-101605000D01*
X138435000Y-101605000D01*
X138425000Y-101605000D01*
X138405000Y-101605000D01*
X138405000Y-101595000D01*
X138425000Y-101595000D01*
X138425000Y-100455160D01*
X138435000Y-100455160D01*
X138435000Y-101595000D01*
X139574839Y-101595000D01*
X139652559Y-101401303D01*
X139747441Y-101401303D01*
X139825161Y-101595000D01*
X140965000Y-101595000D01*
X140965000Y-100455160D01*
X140975000Y-100455160D01*
X140975000Y-101595000D01*
X142114839Y-101595000D01*
X142192559Y-101401303D01*
X142175536Y-101315719D01*
X141974980Y-100876020D01*
X141621425Y-100546541D01*
X141168697Y-100377441D01*
X140975000Y-100455160D01*
X140965000Y-100455160D01*
X140771303Y-100377441D01*
X140318575Y-100546541D01*
X139965020Y-100876020D01*
X139764464Y-101315719D01*
X139747441Y-101401303D01*
X139652559Y-101401303D01*
X139635536Y-101315719D01*
X139434980Y-100876020D01*
X139081425Y-100546541D01*
X138628697Y-100377441D01*
X138435000Y-100455160D01*
X138425000Y-100455160D01*
X138231303Y-100377441D01*
X137778575Y-100546541D01*
X137425020Y-100876020D01*
X137285000Y-101183000D01*
X137285000Y-100277107D01*
X137339606Y-100222501D01*
X137417646Y-100275823D01*
X137566400Y-100305946D01*
X139293600Y-100305946D01*
X139432566Y-100279798D01*
X139560199Y-100197669D01*
X139645823Y-100072354D01*
X139675946Y-99923600D01*
X139675946Y-98473053D01*
X139799341Y-98596447D01*
X139707134Y-99060000D01*
X139801417Y-99533992D01*
X140069912Y-99935822D01*
X140471742Y-100204317D01*
X140945734Y-100298600D01*
X140994266Y-100298600D01*
X141468258Y-100204317D01*
X141870088Y-99935822D01*
X142138583Y-99533992D01*
X142232866Y-99060000D01*
X142138583Y-98586008D01*
X141870088Y-98184178D01*
X141468258Y-97915683D01*
X140994266Y-97821400D01*
X140945734Y-97821400D01*
X140522661Y-97905555D01*
X139418553Y-96801447D01*
X139256342Y-96693060D01*
X139065000Y-96655000D01*
X138249634Y-96655000D01*
X138177856Y-96583097D01*
X137929855Y-96480117D01*
X137661323Y-96479883D01*
X137660000Y-96480430D01*
X137660000Y-94942744D01*
X137931742Y-95124317D01*
X138405734Y-95218600D01*
X138454266Y-95218600D01*
X138928258Y-95124317D01*
X139330088Y-94855822D01*
X139598583Y-94453992D01*
X139692866Y-93980000D01*
X139707134Y-93980000D01*
X139801417Y-94453992D01*
X140069912Y-94855822D01*
X140471742Y-95124317D01*
X140945734Y-95218600D01*
X140994266Y-95218600D01*
X141468258Y-95124317D01*
X141870088Y-94855822D01*
X142138583Y-94453992D01*
X142232866Y-93980000D01*
X142138583Y-93506008D01*
X141870088Y-93104178D01*
X141468258Y-92835683D01*
X140994266Y-92741400D01*
X140945734Y-92741400D01*
X140471742Y-92835683D01*
X140069912Y-93104178D01*
X139801417Y-93506008D01*
X139707134Y-93980000D01*
X139692866Y-93980000D01*
X139598583Y-93506008D01*
X139330088Y-93104178D01*
X138928258Y-92835683D01*
X138454266Y-92741400D01*
X138405734Y-92741400D01*
X137931742Y-92835683D01*
X137660000Y-93017256D01*
X137660000Y-92382959D01*
X137778575Y-92493459D01*
X138231303Y-92662559D01*
X138425000Y-92584840D01*
X138425000Y-91445000D01*
X138435000Y-91445000D01*
X138435000Y-92584840D01*
X138628697Y-92662559D01*
X139081425Y-92493459D01*
X139434980Y-92163980D01*
X139635536Y-91724281D01*
X139652559Y-91638697D01*
X139747441Y-91638697D01*
X139764464Y-91724281D01*
X139965020Y-92163980D01*
X140318575Y-92493459D01*
X140771303Y-92662559D01*
X140965000Y-92584840D01*
X140965000Y-91445000D01*
X140975000Y-91445000D01*
X140975000Y-92584840D01*
X141168697Y-92662559D01*
X141621425Y-92493459D01*
X141974980Y-92163980D01*
X142175536Y-91724281D01*
X142192559Y-91638697D01*
X142114839Y-91445000D01*
X140975000Y-91445000D01*
X140965000Y-91445000D01*
X139825161Y-91445000D01*
X139747441Y-91638697D01*
X139652559Y-91638697D01*
X139574839Y-91445000D01*
X138435000Y-91445000D01*
X138425000Y-91445000D01*
X138405000Y-91445000D01*
X138405000Y-91435000D01*
X138425000Y-91435000D01*
X138425000Y-90295160D01*
X138435000Y-90295160D01*
X138435000Y-91435000D01*
X139574839Y-91435000D01*
X139652559Y-91241303D01*
X139747441Y-91241303D01*
X139825161Y-91435000D01*
X140965000Y-91435000D01*
X140965000Y-90295160D01*
X140975000Y-90295160D01*
X140975000Y-91435000D01*
X142114839Y-91435000D01*
X142192559Y-91241303D01*
X142175536Y-91155719D01*
X141974980Y-90716020D01*
X141621425Y-90386541D01*
X141168697Y-90217441D01*
X140975000Y-90295160D01*
X140965000Y-90295160D01*
X140771303Y-90217441D01*
X140318575Y-90386541D01*
X139965020Y-90716020D01*
X139764464Y-91155719D01*
X139747441Y-91241303D01*
X139652559Y-91241303D01*
X139635536Y-91155719D01*
X139434980Y-90716020D01*
X139081425Y-90386541D01*
X138628697Y-90217441D01*
X138435000Y-90295160D01*
X138425000Y-90295160D01*
X138231303Y-90217441D01*
X137778575Y-90386541D01*
X137660000Y-90497041D01*
X137660000Y-90377106D01*
X137891160Y-90145946D01*
X139293600Y-90145946D01*
X139432566Y-90119798D01*
X139560199Y-90037669D01*
X139645823Y-89912354D01*
X139675946Y-89763600D01*
X139675946Y-88313052D01*
X139799341Y-88436447D01*
X139707134Y-88900000D01*
X139801417Y-89373992D01*
X140069912Y-89775822D01*
X140471742Y-90044317D01*
X140945734Y-90138600D01*
X140994266Y-90138600D01*
X141468258Y-90044317D01*
X141870088Y-89775822D01*
X142138583Y-89373992D01*
X142232866Y-88900000D01*
X142138583Y-88426008D01*
X141870088Y-88024178D01*
X141468258Y-87755683D01*
X141464824Y-87755000D01*
X144330000Y-87755000D01*
X144330000Y-116080000D01*
M02*
