M48
;DRILL file {KiCad 4.0.2-stable} date 4/28/2016 9:51:34 AM
;FORMAT={-:-/ absolute / inch / decimal}
FMAT,2
INCH,TZ
T1C0.016
T2C0.040
%
G90
G05
M72
T1
X4.525Y-3.825
X4.55Y-4.
X4.6Y-3.725
X4.6Y-3.925
X4.675Y-3.675
X4.675Y-4.4
X4.7Y-3.825
X4.775Y-4.
X4.825Y-4.25
X4.85Y-3.525
X4.85Y-3.575
X4.875Y-4.3
X4.9Y-3.6
X4.9Y-3.675
X4.9Y-4.325
X4.9Y-4.425
X4.95Y-3.475
X4.95Y-4.2
X4.975Y-3.625
X4.975Y-4.
X5.05Y-3.675
X5.05Y-4.4
X5.1Y-4.275
X5.3Y-3.85
X5.325Y-3.95
X5.35Y-3.975
X5.35Y-4.1
X5.375Y-3.775
X5.375Y-4.075
X5.425Y-3.825
X5.425Y-4.2
T2
X4.3Y-3.6
X4.3Y-3.7
X4.3Y-3.9
X4.3Y-4.
X4.3Y-4.1
X4.3Y-4.3
X4.3Y-4.4
X4.4Y-3.6
X4.4Y-3.7
X4.4Y-3.9
X4.4Y-4.
X4.4Y-4.1
X4.4Y-4.3
X4.4Y-4.4
X4.5Y-3.6
X4.5Y-3.7
X4.5Y-4.3
X4.5Y-4.4
X5.45Y-3.5
X5.45Y-3.6
X5.45Y-3.7
X5.45Y-3.9
X5.45Y-4.
X5.45Y-4.1
X5.45Y-4.3
X5.45Y-4.4
X5.45Y-4.5
X5.55Y-3.5
X5.55Y-3.6
X5.55Y-3.7
X5.55Y-3.9
X5.55Y-4.
X5.55Y-4.1
X5.55Y-4.3
X5.55Y-4.4
X5.55Y-4.5
T0
M30
